<svg width="79" height="79" fill="none" xmlns="http://www.w3.org/2000/svg"><g clip-path="url('#clip0_303_4216')"><path fill="url('#paint0_linear_303_4216')" d="M0 0h79v79H0z"/><path d="M47.665 45.82v3.16c0 4.213 6.056 6.057 6.056 6.057s-6.978 5.266-14.22 5.266c-7.241 0-14.22-5.266-14.22-5.266s6.105-1.844 6.057-6.057c-.048-4.213-.016-6.689-.048-13.907-3.774-4.892-3.532-8.175-1.468-10.484 6.914-7.736 25.743-5.102 25.743-5.102s1.757 18.958-2.239 24.49c-1.711 2.37-5.661 1.843-5.661 1.843Z" fill="url('#paint1_linear_303_4216')"/><path d="M47.664 45.82c-5.793-.658-9.217-3.16-9.217-3.16a15.243 15.243 0 0 0 9.217 6.32v-3.16Z" fill="#DB6F3D"/><path d="M67.15 63.018c2.507 5.097 3.95 16.853 3.95 16.853H7.9s1.444-11.757 3.95-16.853c2.507-5.096 17.143-9.823 17.143-9.823 2.822 5.792 18.304 5.792 21.007-.002 0 0 14.644 4.727 17.15 9.825Z" fill="url('#paint2_linear_303_4216')"/><mask id="mask0_303_4216" style="mask-type:alpha" maskUnits="userSpaceOnUse" x="7" y="53" width="65" height="27"><path d="M67.15 63.018c2.507 5.097 3.95 16.853 3.95 16.853H7.9s1.444-11.757 3.95-16.853c2.507-5.096 17.143-9.823 17.143-9.823 2.822 5.792 18.304 5.792 21.007-.002 0 0 14.644 4.727 17.15 9.825Z" fill="url('#paint3_linear_303_4216')"/></mask><g mask="url('#mask0_303_4216')"><path d="M5.268 75.84v-2.106h68.466v2.106H5.268Zm0-5.267v-2.106h68.466v2.106H5.268Zm0-5.266V63.2h68.466v2.107H5.268Z" fill="#FFA789"/></g><path d="M34.539 27.178c-.838-.719-1.855-1.203-3.293-.456-3.41 1.77-.83 8.565 2.199 8.565.79 0 1.183 2.48-2.335 4.213 0-2.765-4.213-9.612-4.582-15.845-4.24-1.579-3.186-7.896-.275-7.896-.465-5.79 8.807-8.78 12.398-5.458 3.65-4.376 12.868-2.138 13.424 1.66 6.338-3.384 10.504 6.34 4.57 10.116-2.443 1.554-8.155 2.145-16.4 2.145-1.245 0-1.943.309-1.594 1.848.673 2.983-.891 4.861-4.112 1.108Z" fill="url('#paint4_linear_303_4216')"/></g><defs><linearGradient id="paint0_linear_303_4216" x1="39.5" y1="0" x2="39.5" y2="79" gradientUnits="userSpaceOnUse"><stop stop-color="#2C315B"/><stop offset="1" stop-color="#2A2F5A"/></linearGradient><linearGradient id="paint1_linear_303_4216" x1="40.615" y1="19.055" x2="40.615" y2="60.303" gradientUnits="userSpaceOnUse"><stop stop-color="#E6864E"/><stop offset="1" stop-color="#EB965E"/></linearGradient><linearGradient id="paint2_linear_303_4216" x1="39.5" y1="79.871" x2="39.5" y2="53.193" gradientUnits="userSpaceOnUse"><stop stop-color="#FFC9B3"/><stop offset="1" stop-color="#FFD2C2"/></linearGradient><linearGradient id="paint3_linear_303_4216" x1="39.5" y1="79.871" x2="39.5" y2="53.193" gradientUnits="userSpaceOnUse"><stop stop-color="#FFC9B3"/><stop offset="1" stop-color="#FFD2C2"/></linearGradient><linearGradient id="paint4_linear_303_4216" x1="41.604" y1="7.899" x2="41.604" y2="39.5" gradientUnits="userSpaceOnUse"><stop stop-color="#1D0024"/><stop offset="1" stop-color="#100014"/></linearGradient><clipPath id="clip0_303_4216"><path fill="#fff" d="M0 0h79v79H0z"/></clipPath></defs></svg>