<svg width="49" height="48" fill="none" xmlns="http://www.w3.org/2000/svg"><circle cx="24.25" cy="16" r="6.5" stroke="#5346A5" stroke-width="3" stroke-linecap="round"/><path d="M31.353 15.75a4.5 4.5 0 1 1 7.794 4.5 4.5 4.5 0 0 1-7.794-4.5ZM9.019 15.75a4.5 4.5 0 1 1 7.794 4.5 4.5 4.5 0 0 1-7.794-4.5Z" stroke="#5346A5" stroke-width="3"/><path d="m34.014 36-1.47.296.242 1.204h1.228V36Zm8.01-1.106-1.453.376 1.452-.376Zm-12.212-5.473-.907-1.194-1.735 1.317 1.85 1.15.793-1.273ZM41.118 34.5h-7.104v3h7.104v-3Zm-.547.77a.648.648 0 0 1 .13-.566.55.55 0 0 1 .417-.204v3c1.461 0 2.783-1.335 2.358-2.98l-2.905.75Zm-6.32-5.77c2.171 0 3.57.923 4.53 2.081 1.002 1.209 1.533 2.692 1.79 3.689l2.905-.75c-.31-1.2-.984-3.164-2.385-4.854-1.443-1.74-3.647-3.166-6.84-3.166v3Zm-3.531 1.116c.854-.65 1.984-1.116 3.53-1.116v-3c-2.212 0-3.977.688-5.345 1.727l1.815 2.389Zm-1.7.079c2.25 1.4 3.164 3.817 3.524 5.601l2.94-.592c-.424-2.11-1.595-5.514-4.88-7.557l-1.584 2.548ZM18.69 29.421l.791 1.274 1.85-1.15-1.735-1.319-.907 1.195ZM6.477 34.894l1.453.376-1.453-.376ZM14.488 36v1.5h1.228l.242-1.204-1.47-.296Zm-.237-6.5c1.547 0 2.676.466 3.53 1.116l1.815-2.39c-1.368-1.038-3.132-1.726-5.345-1.726v3Zm-6.32 5.77c.257-.997.787-2.48 1.79-3.689.96-1.158 2.359-2.081 4.53-2.081v-3c-3.194 0-5.398 1.427-6.84 3.166-1.402 1.69-2.075 3.654-2.385 4.853l2.905.75Zm-.547-.77c.14 0 .3.064.417.204.125.15.18.367.13.566l-2.905-.75c-.425 1.645.896 2.98 2.358 2.98v-3Zm7.104 0H7.384v3h7.104v-3Zm1.47 1.796c.36-1.784 1.273-4.202 3.523-5.601l-1.584-2.548c-3.285 2.043-4.455 5.447-4.88 7.557l2.941.592Z" fill="#5346A5"/><path d="M24.25 28c8.049 0 9.62 6.478 9.926 9.007.066.548-.374.993-.926.993h-18c-.552 0-.992-.445-.926-.993C14.631 34.478 16.201 28 24.25 28Z" stroke="#5346A5" stroke-width="3" stroke-linecap="round"/></svg>