<svg width="104" height="104" fill="none" xmlns="http://www.w3.org/2000/svg"><g clip-path="url('#clip0_296_3043')"><path transform="translate(.666 .346)" fill="url('#paint0_linear_296_3043')" d="M0 0h103v103H0z"/><path d="M63.154 60.772v9.614H41.18s.041-14.214 0-23.626c-4.92-6.378-4.92-10.364-1.03-14.484 3.89-4.12 31.587-6.18 31.587-6.18s2.078 19.985 2.403 25.406c.131 2.18 1.545 9.27-3.948 9.27h-7.038Z" fill="url('#paint1_linear_296_3043')"/><path d="M63.153 60.086a32.802 32.802 0 0 1-12.704-4.12s2.404 6.523 12.704 8.583v-4.463Z" fill="#F08956"/><path d="M45.65 36.467c-1.092-.938-2.419-1.57-4.294-.595-4.446 2.308-1.495 11.214 3.48 11.04 1.717-.06.93 3.361-3.657 5.62 0-3.604-5.493-12.531-5.974-20.659-5.527-2.058-4.154-10.293-.359-10.293-.606-7.55 11.484-11.45 16.165-7.118 4.76-5.706 16.777-2.787 17.502 2.163 8.263-4.41 13.695 8.268 5.958 13.19-3.184 2.026-10.632 2.797-21.382 2.797-5.16 0-2.192 12.075-.58 15.972 2.06 4.978 13.562 5.665 17.167 5.15 2.816-.402 4.292-1.545 4.463-2.232 2.576 6.867-.686 10.987-5.836 10.987-8.755 0-17.51-2.575-18.883-8.926-1.094-5.055-1.034-13.213-3.77-17.096Z" fill="#fff"/><path d="M88.217 83.881c2.179 4.43 3.895 11.755 5.15 21.974h-82.4c1.255-10.22 2.971-17.544 5.15-21.974 2.171-4.415 22.317-12.912 22.317-12.912s.4-3.884 1.373-4.441c.972-.557 23.562-.557 24.72 0 1.158.556 1.373 4.439 1.373 4.439s20.15 8.508 22.317 12.914Z" fill="url('#paint2_linear_296_3043')"/><mask id="mask0_296_3043" style="mask-type:alpha" maskUnits="userSpaceOnUse" x="10" y="66" width="84" height="40"><path d="M88.217 83.881c2.179 4.43 3.895 11.755 5.15 21.974h-82.4c1.255-10.22 2.971-17.544 5.15-21.974 2.171-4.415 22.317-12.912 22.317-12.912s.4-3.884 1.373-4.441c.972-.557 23.562-.557 24.72 0 1.158.556 1.373 4.439 1.373 4.439s20.15 8.508 22.317 12.914Z" fill="url('#paint3_linear_296_3043')"/></mask><g mask="url('#mask0_296_3043')"><path d="M5.473 101.286V98.54h92.356v2.746H5.473Zm0-6.867v-2.746h92.356v2.746H5.473Zm0-6.866v-2.747h92.356v2.747H5.473Zm0-6.867V77.94h92.356v2.747H5.473Z" fill="#FFA789"/></g></g><defs><linearGradient id="paint0_linear_296_3043" x1="51.5" y1="0" x2="51.5" y2="103" gradientUnits="userSpaceOnUse"><stop stop-color="#2C315B"/><stop offset="1" stop-color="#2A2F5A"/></linearGradient><linearGradient id="paint1_linear_296_3043" x1="55.874" y1="26.096" x2="55.874" y2="70.386" gradientUnits="userSpaceOnUse"><stop stop-color="#F7B186"/><stop offset="1" stop-color="#FFC299"/></linearGradient><linearGradient id="paint2_linear_296_3043" x1="52.167" y1="105.855" x2="52.167" y2="66.11" gradientUnits="userSpaceOnUse"><stop stop-color="#FFC9B3"/><stop offset="1" stop-color="#FFD2C2"/></linearGradient><linearGradient id="paint3_linear_296_3043" x1="52.167" y1="105.855" x2="52.167" y2="66.11" gradientUnits="userSpaceOnUse"><stop stop-color="#FFC9B3"/><stop offset="1" stop-color="#FFD2C2"/></linearGradient><clipPath id="clip0_296_3043"><path fill="#fff" transform="translate(.666 .346)" d="M0 0h103v103H0z"/></clipPath></defs></svg>