<svg width="16" height="16" fill="none" xmlns="http://www.w3.org/2000/svg"><path fill-rule="evenodd" clip-rule="evenodd" d="M12.33 3.1c-.425.07-1.008.253-1.856.522L5.473 5.208c-.984.312-1.681.534-2.154.74a2.19 2.19 0 0 0-.476.264.428.428 0 0 0-.08.078.076.076 0 0 0-.013.024.5.5 0 0 0 0 .257c0 .001.002.009.014.024a.428.428 0 0 0 .079.078c.091.073.24.16.476.263.473.207 1.17.43 2.154.741l.087.028c.657.208 1.113.352 1.478.644.123.1.237.21.34.33.303.356.463.812.693 1.472l.031.088c.345.983.589 1.677.815 2.143.244.5.378.54.397.543.057.01.116.01.173 0 .021-.004.154-.043.393-.533.224-.457.464-1.14.803-2.108l1.66-4.736c.294-.84.495-1.416.577-1.84.082-.426.009-.524-.028-.562-.037-.039-.133-.115-.562-.045Zm-.16-.986c.51-.083 1.046-.07 1.44.335.393.406.39.941.292 1.45-.098.504-.324 1.15-.601 1.94l-.014.04-1.66 4.736-.012.034c-.325.926-.584 1.665-.836 2.182-.24.491-.563.981-1.12 1.079a1.5 1.5 0 0 1-.518 0c-.557-.098-.882-.595-1.123-1.09-.255-.525-.518-1.275-.848-2.216l-.012-.035c-.274-.782-.375-1.045-.541-1.241a1.5 1.5 0 0 0-.204-.198c-.202-.161-.463-.253-1.242-.5l-.032-.01c-.945-.3-1.694-.537-2.221-.768a3.135 3.135 0 0 1-.7-.399 1.202 1.202 0 0 1-.435-.627 1.5 1.5 0 0 1 0-.767c.071-.268.24-.471.434-.627.191-.154.433-.282.7-.4.528-.23 1.277-.468 2.222-.767l.032-.01 5-1.586.042-.013c.797-.253 1.45-.46 1.956-.542Z" fill="#B6ABFF"/></svg>