<svg width="49" height="48" fill="none" xmlns="http://www.w3.org/2000/svg"><rect width="12" height="12" rx="1" transform="matrix(1 0 0 -1 28.25 20)" stroke="#5346A5" stroke-width="3" stroke-linecap="round"/><path d="M20.25 28h10c.943 0 1.414 0 1.707.293.293.293.293.764.293 1.707v8c0 .943 0 1.414-.293 1.707-.293.293-.764.293-1.707.293h-10V28ZM20.25 18c0-.943 0-1.414-.293-1.707C19.664 16 19.193 16 18.25 16h-8c-.943 0-1.414 0-1.707.293-.293.293-.293.764-.293 1.707v10h12V18ZM20.25 40h-10c-.943 0-1.414 0-1.707-.293-.293-.293-.293-.764-.293-1.707V28h12v12Z" stroke="#5346A5" stroke-width="3" stroke-linecap="round"/></svg>