<svg width="49" height="48" fill="none" xmlns="http://www.w3.org/2000/svg"><path d="m37.602 33.358 1.386.574-1.386-.575Zm-7.576 7.576.574 1.386-.575-1.386Zm-10.716 0-.574 1.386.574-1.386ZM14.77 37.9l1.06-1.06-1.06 1.06Zm-3.035-4.541 1.386-.575-1.386.575ZM31.58 12.069l-.944-1.166.944 1.166Zm.174 0 .944-1.166-.944 1.166Zm6.854 17.27-1.411-.508 1.411.508Zm-.009.04-1.493-.148 1.493.147ZM26.998 17.415l1.426-.465-1.425.465Zm.282.027 1.315.721-1.315-.72ZM20.385 6.086 19.4 4.955l.985 1.131Zm.194.01L19.494 7.13l1.085-1.036ZM19.4 4.954C18.27 5.939 9.168 14.267 9.168 28h3c0-12.393 8.257-19.96 9.202-20.782L19.4 4.955Zm9.024 11.996C26.15 9.978 22.377 5.807 21.664 5.06l-2.17 2.07c.532.559 3.991 4.353 6.078 10.751l2.852-.93Zm.171 1.213c1.642-2.996 3.578-4.644 3.93-4.93l-1.888-2.33c-.544.44-2.785 2.374-4.673 5.818l2.631 1.442Zm2.216-4.93c.66.535 6.357 5.423 6.357 14.648h3c0-10.554-6.52-16.21-7.469-16.979l-1.888 2.332Zm6.357 14.648V28h3v-.118h-3Zm0 .118v1h3v-1h-3Zm0 1c0-.057.01-.115.03-.17l2.822 1.018c.096-.267.148-.553.148-.848h-3Zm-.06.23a12.5 12.5 0 0 1-.891 3.553l2.771 1.148a15.5 15.5 0 0 0 1.105-4.405l-2.986-.295Zm-.891 3.553a12.502 12.502 0 0 1-2.71 4.056l2.121 2.121a15.499 15.499 0 0 0 3.36-5.029l-2.771-1.148Zm-2.71 4.056a12.5 12.5 0 0 1-4.055 2.71L30.6 42.32c1.88-.779 3.589-1.92 5.028-3.36l-2.121-2.121Zm-4.055 2.71a12.5 12.5 0 0 1-4.784.95v3c2.035 0 4.051-.4 5.932-1.179l-1.149-2.772Zm-4.784.95a12.5 12.5 0 0 1-4.784-.95l-1.148 2.771a15.5 15.5 0 0 0 5.932 1.18v-3Zm-4.784-.95a12.502 12.502 0 0 1-4.055-2.71l-2.121 2.121a15.5 15.5 0 0 0 5.028 3.36l1.148-2.772Zm-4.055-2.71a12.502 12.502 0 0 1-2.71-4.056l-2.771 1.148a15.5 15.5 0 0 0 3.36 5.03l2.121-2.122Zm-2.71-4.056A12.5 12.5 0 0 1 12.168 28h-3c0 2.035.4 4.051 1.18 5.931l2.771-1.148Zm19.406-19.548a1.364 1.364 0 0 1-1.714 0l1.888-2.332a1.636 1.636 0 0 0-2.062 0l1.888 2.332Zm4.673 15.596a1.66 1.66 0 0 0-.09.4l2.985.295a1.34 1.34 0 0 1-.073.322l-2.822-1.017ZM25.572 17.88c.443 1.356 2.317 1.57 3.023.283l-2.63-1.442c.577-1.053 2.1-.874 2.46.229l-2.853.93ZM21.37 7.218a1.362 1.362 0 0 1-1.876-.087l2.17-2.071a1.638 1.638 0 0 0-2.264-.105l1.97 2.263Z" fill="#7D6DE2"/><path d="m24.12 22.401-.908-1.194.907 1.194Zm-7.422 10.902 1.494.13v-.002l-1.494-.128Zm8.519-10.901.907-1.195-.907 1.194Zm7.421 10.903-1.494.127v.001l1.494-.128Zm-9.426-12.098c-.913.694-2.756 2.198-4.44 4.232-1.667 2.011-3.31 4.695-3.569 7.737l2.99.255c.183-2.156 1.387-4.266 2.888-6.078 1.483-1.79 3.13-3.137 3.946-3.757l-1.815-2.389Zm2.912 0a2.4 2.4 0 0 0-2.912 0l1.815 2.389a.6.6 0 0 1-.718 0l1.815-2.389Zm8.009 11.97c-.26-3.041-1.901-5.726-3.568-7.737-1.685-2.034-3.528-3.54-4.44-4.233l-1.816 2.389c.817.62 2.463 1.968 3.946 3.758 1.501 1.812 2.705 3.922 2.889 6.078l2.989-.255Zm-2.99.256c.017.187.025.376.025.567h3c0-.277-.012-.552-.035-.824l-2.99.257Zm.025.567a6.5 6.5 0 0 1-6.5 6.5v3a9.5 9.5 0 0 0 9.5-9.5h-3Zm-6.5 6.5a6.5 6.5 0 0 1-6.5-6.5h-3a9.5 9.5 0 0 0 9.5 9.5v-3Zm-6.5-6.5c0-.192.008-.381.024-.568l-2.989-.258a9.609 9.609 0 0 0-.035.826h3Z" fill="#7D6DE2"/></svg>