<svg width="459" height="122" fill="none" xmlns="http://www.w3.org/2000/svg"><path d="M161.469 52.352 158.227 62h-2.274l4.25-11.375h1.453l-.187 1.727ZM164.18 62l-3.258-9.648-.195-1.727h1.461L166.461 62h-2.281Zm-.149-4.227v1.696h-6.101v-1.696h6.101Zm5.266-2.421V62h-2.063v-8.453h1.938l.125 1.805Zm-.328 2.117h-.61a5.618 5.618 0 0 1 .25-1.672c.162-.5.388-.93.68-1.29.297-.359.649-.635 1.055-.827a3.13 3.13 0 0 1 1.359-.29c.406 0 .774.058 1.102.172.328.115.609.297.843.547.24.25.422.578.547.985.131.4.196.896.196 1.484V62h-2.079v-5.438c0-.385-.057-.69-.171-.914a.96.96 0 0 0-.485-.476c-.208-.094-.466-.14-.773-.14-.318 0-.597.064-.836.195-.235.125-.432.299-.594.523a2.576 2.576 0 0 0-.359.773 3.404 3.404 0 0 0-.125.946Zm10.711 3.062c.291 0 .552-.057.781-.172.229-.114.411-.276.547-.484.14-.208.216-.45.226-.727h1.946a2.739 2.739 0 0 1-.485 1.54 3.313 3.313 0 0 1-1.25 1.078c-.515.26-1.093.39-1.734.39-.651 0-1.219-.11-1.703-.328a3.311 3.311 0 0 1-1.211-.914 4.051 4.051 0 0 1-.719-1.36 5.692 5.692 0 0 1-.234-1.656v-.25c0-.588.078-1.14.234-1.656a4.05 4.05 0 0 1 .719-1.36c.323-.39.726-.694 1.211-.913.484-.219 1.049-.328 1.695-.328.682 0 1.281.132 1.797.398.521.266.927.64 1.219 1.125.297.484.45 1.055.461 1.711h-1.946a1.867 1.867 0 0 0-.203-.813 1.493 1.493 0 0 0-.531-.578c-.229-.145-.508-.218-.836-.218-.349 0-.641.073-.875.218a1.51 1.51 0 0 0-.539.602c-.125.25-.214.531-.266.844-.046.307-.07.63-.07.968v.25c0 .344.024.672.07.985.052.312.141.594.266.844.13.244.31.44.539.586.234.145.531.218.891.218Zm7.062-6.984V62h-2.07v-8.453h2.07Zm-2.211-2.211c0-.307.104-.563.313-.766.213-.203.5-.304.859-.304s.643.101.852.304c.213.203.32.459.32.766 0 .302-.107.555-.32.758-.209.203-.493.304-.852.304s-.646-.101-.859-.304a1.014 1.014 0 0 1-.313-.758Zm7.977 10.82c-.641 0-1.216-.104-1.727-.312a3.79 3.79 0 0 1-1.304-.867 3.98 3.98 0 0 1-.821-1.305 4.557 4.557 0 0 1-.281-1.61v-.312c0-.651.094-1.242.281-1.773.188-.537.453-.998.797-1.383a3.505 3.505 0 0 1 1.235-.89 3.931 3.931 0 0 1 1.585-.313c.599 0 1.128.101 1.586.304.459.198.842.48 1.149.844.307.365.539.802.695 1.313.156.505.235 1.065.235 1.68v.866h-6.626v-1.421h4.594v-.157a2.493 2.493 0 0 0-.187-.898 1.441 1.441 0 0 0-.531-.656c-.24-.167-.55-.25-.93-.25-.307 0-.576.067-.805.203-.224.13-.411.317-.562.562-.146.24-.256.526-.329.86a5.263 5.263 0 0 0-.109 1.109v.313c0 .354.047.682.141.984.099.302.242.565.429.789.193.219.422.39.688.516.271.12.578.18.922.18.432 0 .823-.084 1.172-.25.354-.173.661-.425.922-.759l1.039 1.079a3.45 3.45 0 0 1-.719.75 3.67 3.67 0 0 1-1.078.586c-.422.145-.909.218-1.461.218Zm6.836-6.804V62h-2.063v-8.453h1.938l.125 1.805Zm-.328 2.117h-.61a5.586 5.586 0 0 1 .25-1.672c.162-.5.388-.93.68-1.29a3.05 3.05 0 0 1 1.055-.827 3.13 3.13 0 0 1 1.359-.29c.406 0 .773.058 1.102.172.328.115.609.297.843.547.24.25.422.578.547.985.13.4.196.896.196 1.484V62h-2.079v-5.438c0-.385-.057-.69-.171-.914a.96.96 0 0 0-.485-.476c-.208-.094-.466-.14-.773-.14-.318 0-.597.064-.836.195-.235.125-.433.299-.594.523a2.576 2.576 0 0 0-.359.773 3.404 3.404 0 0 0-.125.946Zm11.242-3.922v1.484h-4.844v-1.484h4.844Zm-3.547-2.078h2.07v8.093c0 .25.034.443.102.579a.523.523 0 0 0 .305.273c.135.047.296.07.484.07.135 0 .26-.007.375-.023.114-.016.211-.031.289-.047l.008 1.547a3.876 3.876 0 0 1-.586.14 4.362 4.362 0 0 1-.727.055c-.463 0-.87-.078-1.219-.234a1.747 1.747 0 0 1-.812-.774c-.193-.359-.289-.833-.289-1.421v-8.258Zm11.351-.844V62h-2.148V50.625h2.148Zm4.188 4.727V62h-2.062v-8.453h1.937l.125 1.805Zm-.328 2.117h-.61a5.618 5.618 0 0 1 .25-1.672c.162-.5.389-.93.68-1.29.297-.359.649-.635 1.055-.827a3.13 3.13 0 0 1 1.359-.29c.406 0 .774.058 1.102.172.328.115.609.297.844.547.239.25.421.578.546.985.131.4.196.896.196 1.484V62h-2.078v-5.438c0-.385-.058-.69-.172-.914a.96.96 0 0 0-.485-.476c-.208-.094-.466-.14-.773-.14-.318 0-.596.064-.836.195-.234.125-.432.299-.594.523a2.576 2.576 0 0 0-.359.773 3.442 3.442 0 0 0-.125.946Zm12.312 2.734V50h2.078v12h-1.874l-.204-1.797Zm-5.429-2.328v-.164c0-.646.073-1.232.218-1.758a4.11 4.11 0 0 1 .657-1.367 3 3 0 0 1 1.039-.883 3.05 3.05 0 0 1 1.398-.312c.505 0 .945.101 1.321.304.38.203.703.492.968.867.271.376.487.82.649 1.336.161.51.278 1.073.351 1.688v.445a8.885 8.885 0 0 1-.351 1.649c-.162.5-.378.937-.649 1.312-.265.37-.588.656-.968.86-.381.203-.826.304-1.336.304-.516 0-.98-.106-1.391-.32a3.055 3.055 0 0 1-1.039-.898 4.333 4.333 0 0 1-.649-1.36 6.333 6.333 0 0 1-.218-1.703Zm2.07-.164v.164c0 .365.031.706.094 1.023.062.318.164.6.304.844.141.24.321.427.539.563.224.135.495.203.813.203.406 0 .74-.089 1-.266.266-.182.471-.43.617-.742.146-.318.24-.675.281-1.07v-1.227a3.406 3.406 0 0 0-.164-.867 2.053 2.053 0 0 0-.359-.688 1.6 1.6 0 0 0-.562-.453 1.8 1.8 0 0 0-.797-.164c-.318 0-.589.07-.813.211a1.56 1.56 0 0 0-.547.57c-.14.245-.245.53-.312.852a5.47 5.47 0 0 0-.094 1.047Zm9.492-4.164V62h-2.07v-8.453h2.07Zm-2.211-2.211c0-.307.104-.563.313-.766.213-.203.5-.304.859-.304.36 0 .643.101.852.304.213.203.32.459.32.766 0 .302-.107.555-.32.758-.209.203-.492.304-.852.304-.359 0-.646-.101-.859-.304a1.014 1.014 0 0 1-.313-.758Zm8.836 8.867v-3.898c0-.287-.049-.534-.148-.742a1.074 1.074 0 0 0-.453-.485c-.203-.114-.461-.172-.774-.172-.276 0-.518.047-.726.14a1.07 1.07 0 0 0-.469.4c-.11.166-.164.359-.164.577h-2.07c0-.349.083-.68.25-.992.166-.317.403-.599.71-.843.313-.25.685-.446 1.118-.586a4.78 4.78 0 0 1 1.468-.211c.641 0 1.211.109 1.711.328a2.6 2.6 0 0 1 1.188.968c.291.433.437.977.437 1.633v3.688c0 .422.026.784.078 1.086.058.297.141.554.25.773V62h-2.101a3.108 3.108 0 0 1-.227-.813 6.38 6.38 0 0 1-.078-.984Zm.289-3.351.016 1.226h-1.305a3.2 3.2 0 0 0-.851.102 1.573 1.573 0 0 0-.602.28 1.14 1.14 0 0 0-.351.438 1.316 1.316 0 0 0-.118.57c0 .21.047.397.141.563.099.167.24.3.422.399.187.093.406.14.656.14.365 0 .682-.073.953-.218.271-.151.482-.334.633-.547.151-.214.232-.417.242-.61l.594.89c-.073.215-.182.441-.328.68-.146.24-.334.464-.563.672a2.86 2.86 0 0 1-.828.516 2.892 2.892 0 0 1-1.125.203 3.21 3.21 0 0 1-1.469-.328 2.604 2.604 0 0 1-1.023-.898 2.307 2.307 0 0 1-.375-1.297c0-.448.083-.844.25-1.188.167-.343.414-.633.742-.867.328-.24.735-.42 1.219-.539a6.815 6.815 0 0 1 1.68-.187h1.39Zm5.672-1.5V62h-2.062v-8.453h1.937l.125 1.805Zm-.328 2.117h-.609a5.555 5.555 0 0 1 .25-1.672c.161-.5.388-.93.679-1.29.297-.359.649-.635 1.055-.827a3.13 3.13 0 0 1 1.359-.29c.407 0 .774.058 1.102.172.328.115.609.297.844.547.239.25.422.578.547.985.13.4.195.896.195 1.484V62h-2.078v-5.438c0-.385-.058-.69-.172-.914a.957.957 0 0 0-.485-.476c-.208-.094-.466-.14-.773-.14-.318 0-.596.064-.836.195-.234.125-.432.299-.594.523a2.576 2.576 0 0 0-.359.773 3.442 3.442 0 0 0-.125.946Zm15.906-5.117L265.289 62h-2.273l4.25-11.375h1.453l-.188 1.727ZM271.242 62l-3.258-9.648-.195-1.727h1.461L273.523 62h-2.281Zm-.148-4.227v1.696h-6.102v-1.696h6.102Zm5.508-2.5V62h-2.063v-8.453h1.953l.11 1.726Zm2.57-1.78-.031 1.921a3.653 3.653 0 0 0-.391-.047 5.412 5.412 0 0 0-.398-.015c-.318 0-.597.044-.836.132-.24.084-.44.206-.602.368-.156.161-.276.359-.359.593-.084.23-.131.49-.141.782l-.445-.055c0-.537.054-1.034.164-1.492.109-.459.268-.86.476-1.203.209-.344.469-.61.782-.797.317-.193.682-.29 1.093-.29.115 0 .237.011.368.032.135.016.242.039.32.07Zm5.523.054v1.484h-4.843v-1.484h4.843Zm-3.547-2.078h2.071v8.093c0 .25.034.443.101.579.068.135.17.226.305.273.135.047.297.07.484.07.136 0 .261-.007.375-.023a4.79 4.79 0 0 0 .289-.047l.008 1.547a3.876 3.876 0 0 1-.586.14 4.34 4.34 0 0 1-.726.055c-.464 0-.87-.078-1.219-.234a1.738 1.738 0 0 1-.812-.774c-.193-.359-.29-.833-.29-1.421v-8.258Zm-91.625 25.054v-.148c0-1.104.118-2.107.352-3.008.24-.906.552-1.7.937-2.383.386-.682.803-1.247 1.25-1.695.454-.453.894-.779 1.321-.977l.406 1.133a4.731 4.731 0 0 0-.891.922 6.656 6.656 0 0 0-.796 1.43 9.972 9.972 0 0 0-.579 1.984c-.14.755-.211 1.615-.211 2.578v.18c0 .964.071 1.826.211 2.586.146.755.339 1.417.579 1.984.239.568.505 1.05.796 1.446.297.395.594.708.891.937l-.406 1.102c-.427-.203-.867-.529-1.321-.977-.447-.448-.864-1.013-1.25-1.695-.385-.682-.697-1.474-.937-2.375-.234-.906-.352-1.914-.352-3.024Zm10.149 2.165a.838.838 0 0 0-.141-.477c-.093-.14-.271-.268-.531-.383-.255-.12-.63-.232-1.125-.336a8.335 8.335 0 0 1-1.211-.351c-.37-.141-.687-.31-.953-.508a2.302 2.302 0 0 1-.625-.711 2.009 2.009 0 0 1-.219-.953c0-.35.076-.677.227-.985.151-.312.37-.586.656-.82.286-.24.635-.427 1.047-.562.411-.141.875-.211 1.391-.211.718 0 1.335.117 1.851.351.521.235.919.557 1.195.969.276.406.414.865.414 1.375h-2.062c0-.224-.052-.427-.156-.61a1.075 1.075 0 0 0-.461-.437c-.209-.115-.472-.172-.789-.172a1.69 1.69 0 0 0-.727.14 1.059 1.059 0 0 0-.437.368.893.893 0 0 0-.149.5c0 .135.026.258.078.367.058.104.149.2.274.29.125.088.294.169.508.241.218.073.487.144.804.211.63.125 1.18.292 1.649.5.474.204.843.474 1.109.813.266.338.399.77.399 1.297 0 .375-.081.719-.243 1.031a2.388 2.388 0 0 1-.703.805c-.307.229-.674.408-1.101.539a5.146 5.146 0 0 1-1.446.187c-.776 0-1.432-.138-1.968-.414-.537-.281-.943-.635-1.219-1.062a2.464 2.464 0 0 1-.414-1.344h1.976c.016.328.104.591.266.789.161.198.365.341.609.43.25.083.513.125.789.125.313 0 .576-.042.789-.125a1.13 1.13 0 0 0 .485-.352.86.86 0 0 0 .164-.516Zm8.242.515v-3.898c0-.287-.049-.534-.148-.743a1.07 1.07 0 0 0-.454-.484c-.203-.115-.46-.172-.773-.172a1.76 1.76 0 0 0-.727.14 1.067 1.067 0 0 0-.468.4c-.11.166-.164.359-.164.577h-2.071c0-.349.084-.68.25-.992.167-.318.404-.599.711-.844.313-.25.685-.445 1.118-.585a4.78 4.78 0 0 1 1.468-.211c.641 0 1.211.109 1.711.328.505.213.901.536 1.188.969.291.432.437.976.437 1.632v3.688c0 .422.026.784.078 1.086.058.297.141.554.25.773V81h-2.101a3.108 3.108 0 0 1-.227-.813 6.38 6.38 0 0 1-.078-.984Zm.289-3.351.016 1.226h-1.305c-.323 0-.607.034-.852.102a1.575 1.575 0 0 0-.601.28c-.156.12-.273.267-.352.438a1.33 1.33 0 0 0-.117.57c0 .21.047.397.141.563.099.167.239.3.422.399.187.093.406.14.656.14.365 0 .682-.073.953-.218.271-.151.482-.334.633-.547.151-.214.232-.417.242-.61l.594.89c-.073.215-.182.441-.328.68-.146.24-.334.464-.563.672a2.86 2.86 0 0 1-.828.516 2.892 2.892 0 0 1-1.125.203 3.21 3.21 0 0 1-1.469-.328 2.604 2.604 0 0 1-1.023-.898 2.307 2.307 0 0 1-.375-1.297c0-.448.083-.844.25-1.188.167-.343.414-.632.742-.867.328-.24.734-.42 1.219-.539a6.807 6.807 0 0 1 1.679-.187h1.391Zm8.297 2.835a.838.838 0 0 0-.141-.476c-.093-.14-.27-.268-.531-.383-.255-.12-.63-.232-1.125-.336a8.335 8.335 0 0 1-1.211-.351c-.37-.141-.687-.31-.953-.508a2.302 2.302 0 0 1-.625-.711 2.009 2.009 0 0 1-.219-.953c0-.35.076-.677.227-.985.151-.312.37-.586.656-.82.287-.24.636-.427 1.047-.562.411-.141.875-.211 1.391-.211.718 0 1.336.117 1.851.351.521.235.919.557 1.195.969.277.406.415.865.415 1.375h-2.063c0-.224-.052-.427-.156-.61a1.075 1.075 0 0 0-.461-.437c-.208-.115-.471-.172-.789-.172a1.69 1.69 0 0 0-.727.14 1.065 1.065 0 0 0-.437.368.893.893 0 0 0-.149.5c0 .135.026.258.078.367.058.104.149.2.274.29.125.088.294.169.508.241.218.073.487.144.804.211.631.125 1.18.292 1.649.5.474.204.844.474 1.109.813.266.338.399.77.399 1.297 0 .375-.081.719-.243 1.031a2.377 2.377 0 0 1-.703.805c-.307.229-.674.408-1.101.539a5.146 5.146 0 0 1-1.446.187c-.776 0-1.432-.138-1.968-.414-.537-.281-.943-.635-1.219-1.062a2.464 2.464 0 0 1-.414-1.344h1.976c.016.328.105.591.266.789.162.198.365.341.609.43.25.083.513.125.789.125.313 0 .576-.042.79-.125.213-.089.375-.206.484-.352a.86.86 0 0 0 .164-.516Zm7.586-6.14v1.484h-4.844v-1.484h4.844Zm-3.547-2.078h2.07v8.094c0 .25.034.442.102.578a.523.523 0 0 0 .305.273c.135.047.296.07.484.07.135 0 .26-.007.375-.023a4.79 4.79 0 0 0 .289-.047l.008 1.547a3.876 3.876 0 0 1-.586.14 4.362 4.362 0 0 1-.727.055c-.463 0-.869-.078-1.218-.234a1.745 1.745 0 0 1-.813-.774c-.193-.359-.289-.833-.289-1.421v-8.258Zm6.984 3.804V81h-2.062v-8.453h1.953l.109 1.726Zm2.571-1.78-.032 1.921a3.6 3.6 0 0 0-.39-.047 5.438 5.438 0 0 0-.399-.015 2.4 2.4 0 0 0-.835.132c-.24.084-.441.206-.602.368-.156.161-.276.359-.359.593-.084.23-.131.49-.141.782l-.445-.055c0-.537.054-1.034.164-1.492.109-.459.268-.86.476-1.203.209-.344.469-.61.781-.797a2.07 2.07 0 0 1 1.094-.29c.115 0 .237.011.367.032.136.016.243.039.321.07Zm5.523 6.71v-3.898c0-.287-.049-.534-.148-.743a1.074 1.074 0 0 0-.453-.484c-.204-.115-.461-.172-.774-.172-.276 0-.518.047-.726.14-.204.095-.36.227-.469.4-.109.166-.164.359-.164.577h-2.071c0-.349.084-.68.25-.992.167-.318.404-.599.711-.844.313-.25.685-.445 1.118-.585a4.78 4.78 0 0 1 1.468-.211c.641 0 1.211.109 1.711.328a2.6 2.6 0 0 1 1.188.969c.291.432.437.976.437 1.632v3.688c0 .422.026.784.078 1.086.058.297.141.554.25.773V81h-2.101a3.108 3.108 0 0 1-.227-.813 6.38 6.38 0 0 1-.078-.984Zm.289-3.351.016 1.226h-1.305a3.2 3.2 0 0 0-.851.102 1.573 1.573 0 0 0-.602.28c-.156.12-.273.267-.352.438a1.33 1.33 0 0 0-.117.57c0 .21.047.397.141.563.099.167.24.3.422.399.187.093.406.14.656.14.365 0 .682-.073.953-.218.271-.151.482-.334.633-.547.151-.214.232-.417.242-.61l.594.89c-.073.215-.182.441-.328.68-.146.24-.334.464-.563.672a2.86 2.86 0 0 1-.828.516 2.892 2.892 0 0 1-1.125.203 3.21 3.21 0 0 1-1.469-.328A2.604 2.604 0 0 1 231 79.93a2.307 2.307 0 0 1-.375-1.297c0-.448.083-.844.25-1.188.167-.343.414-.632.742-.867.328-.24.735-.42 1.219-.539a6.815 6.815 0 0 1 1.68-.187h1.39Zm8.297 2.835a.838.838 0 0 0-.141-.476c-.093-.14-.27-.268-.531-.383-.255-.12-.63-.232-1.125-.336a8.335 8.335 0 0 1-1.211-.351 3.937 3.937 0 0 1-.953-.508 2.315 2.315 0 0 1-.625-.711 2.009 2.009 0 0 1-.219-.953c0-.35.076-.677.227-.985.151-.312.37-.586.656-.82.287-.24.636-.427 1.047-.562.412-.141.875-.211 1.391-.211.719 0 1.336.117 1.851.351.521.235.92.557 1.196.969.276.406.414.865.414 1.375h-2.063c0-.224-.052-.427-.156-.61a1.075 1.075 0 0 0-.461-.437c-.208-.115-.471-.172-.789-.172a1.69 1.69 0 0 0-.727.14 1.065 1.065 0 0 0-.437.368.893.893 0 0 0-.149.5c0 .135.026.258.079.367.057.104.148.2.273.29.125.088.294.169.508.241.219.073.487.144.804.211.631.125 1.18.292 1.649.5.474.204.844.474 1.109.813.266.338.399.77.399 1.297 0 .375-.081.719-.242 1.031a2.39 2.39 0 0 1-.704.805c-.307.229-.674.408-1.101.539a5.144 5.144 0 0 1-1.445.187c-.776 0-1.433-.138-1.969-.414-.537-.281-.943-.635-1.219-1.062a2.464 2.464 0 0 1-.414-1.344h1.977c.015.328.104.591.265.789.162.198.365.341.61.43.25.083.513.125.789.125.312 0 .575-.042.789-.125.213-.089.375-.206.484-.352a.86.86 0 0 0 .164-.516Zm7.328-2.312v.148c0 1.084-.122 2.076-.367 2.977-.24.901-.557 1.695-.953 2.383-.391.687-.818 1.26-1.281 1.719-.459.458-.909.789-1.352.992l-.406-1.102c.297-.224.591-.531.883-.922.291-.39.557-.872.797-1.445.244-.573.437-1.24.578-2 .146-.76.218-1.622.218-2.586v-.18c0-.963-.075-1.825-.226-2.586a9.623 9.623 0 0 0-.586-1.992 7.03 7.03 0 0 0-.805-1.445c-.291-.396-.578-.703-.859-.922l.406-1.102c.443.198.893.53 1.352.993.463.458.89 1.033 1.281 1.726.396.688.713 1.482.953 2.383.245.896.367 1.883.367 2.961ZM367.383 28.125c0-.266-.042-.5-.125-.703a1.339 1.339 0 0 0-.422-.563c-.198-.166-.474-.325-.828-.476a11.583 11.583 0 0 0-1.328-.461 12.198 12.198 0 0 1-1.524-.555 5.323 5.323 0 0 1-1.164-.71 2.805 2.805 0 0 1-.742-.915 2.602 2.602 0 0 1-.258-1.18c0-.442.091-.851.274-1.226.182-.375.442-.7.781-.977.344-.28.752-.5 1.226-.656a5.05 5.05 0 0 1 1.586-.234c.855 0 1.579.164 2.172.492.599.323 1.055.747 1.367 1.273a3.19 3.19 0 0 1 .469 1.672h-1.5c0-.427-.091-.804-.273-1.133a1.891 1.891 0 0 0-.828-.78c-.37-.194-.839-.29-1.407-.29-.536 0-.979.08-1.328.242-.349.162-.609.38-.781.657a1.79 1.79 0 0 0-.25.945c0 .24.049.458.148.656.105.193.263.373.477.54.219.166.495.32.828.46.339.14.742.276 1.211.406.646.183 1.203.386 1.672.61.469.224.854.476 1.156.758.307.276.534.59.68.945.151.349.226.745.226 1.187 0 .464-.093.883-.281 1.258a2.73 2.73 0 0 1-.805.961 3.876 3.876 0 0 1-1.257.617c-.485.14-1.026.211-1.625.211a5.634 5.634 0 0 1-1.555-.218 4.639 4.639 0 0 1-1.383-.657 3.443 3.443 0 0 1-.992-1.078c-.245-.432-.367-.932-.367-1.5h1.5c0 .39.075.727.226 1.008.151.276.357.505.618.687.265.183.565.318.898.407.339.083.69.125 1.055.125.526 0 .971-.073 1.336-.22.364-.145.64-.353.828-.624.192-.27.289-.591.289-.961Zm4.789-5.578V31h-1.453v-8.453h1.453Zm-1.563-2.242c0-.235.071-.433.211-.594.146-.162.36-.242.641-.242.276 0 .487.08.633.242.151.161.226.36.226.594a.817.817 0 0 1-.226.578c-.146.156-.357.234-.633.234-.281 0-.495-.078-.641-.234a.854.854 0 0 1-.211-.578ZM376.062 19v12h-1.453V19h1.453Zm3.766 5.172V34.25h-1.453V22.547h1.328l.125 1.625Zm5.695 2.531v.164c0 .615-.072 1.185-.218 1.711-.146.521-.36.974-.641 1.36a2.915 2.915 0 0 1-1.023.898c-.407.213-.873.32-1.399.32-.536 0-1.01-.088-1.422-.265a2.814 2.814 0 0 1-1.047-.774 3.962 3.962 0 0 1-.687-1.219 7.062 7.062 0 0 1-.344-1.601v-.875a7.37 7.37 0 0 1 .352-1.68 4.19 4.19 0 0 1 .679-1.265 2.797 2.797 0 0 1 1.039-.805c.407-.188.876-.281 1.407-.281s1.002.104 1.414.312c.411.203.758.495 1.039.875.281.38.492.836.633 1.367a6.57 6.57 0 0 1 .218 1.758Zm-1.453.164v-.164c0-.422-.044-.818-.132-1.187a3.001 3.001 0 0 0-.415-.985 1.965 1.965 0 0 0-.703-.672c-.286-.166-.627-.25-1.023-.25-.365 0-.682.063-.953.188a2.062 2.062 0 0 0-.68.508 2.712 2.712 0 0 0-.461.718c-.114.266-.2.542-.258.829v2.023c.104.365.25.708.438 1.031.187.318.437.576.75.774.312.192.706.289 1.179.289.391 0 .727-.081 1.008-.242.287-.167.521-.394.703-.68a3.1 3.1 0 0 0 .415-.985 5.22 5.22 0 0 0 .132-1.195Zm8.282 2.688v-4.352c0-.333-.068-.622-.204-.867a1.33 1.33 0 0 0-.593-.578c-.266-.136-.594-.203-.985-.203-.364 0-.685.062-.961.187-.27.125-.484.29-.64.492a1.08 1.08 0 0 0-.227.657h-1.445c0-.302.078-.602.234-.899.157-.297.38-.565.672-.805a3.356 3.356 0 0 1 1.063-.578c.416-.146.88-.218 1.39-.218.615 0 1.156.104 1.625.312.474.209.844.524 1.11.945.27.417.406.94.406 1.57v3.938c0 .282.023.581.07.899.052.317.128.59.227.82V31h-1.508a2.71 2.71 0 0 1-.172-.664 5.304 5.304 0 0 1-.062-.781Zm.25-3.68.015 1.016h-1.461c-.411 0-.778.034-1.101.101a2.524 2.524 0 0 0-.813.29c-.219.13-.385.294-.5.491a1.31 1.31 0 0 0-.172.68c0 .266.06.508.18.727.12.218.299.393.539.523.245.125.544.188.899.188.442 0 .833-.094 1.171-.282.339-.187.607-.416.805-.687.203-.271.313-.534.328-.79l.617.696c-.036.219-.135.461-.297.727a3.502 3.502 0 0 1-1.601 1.367 3.107 3.107 0 0 1-1.234.234c-.573 0-1.076-.112-1.508-.336a2.574 2.574 0 0 1-1-.898 2.373 2.373 0 0 1-.352-1.274c0-.453.089-.851.266-1.195.177-.349.432-.638.765-.867a3.648 3.648 0 0 1 1.204-.531 6.34 6.34 0 0 1 1.57-.18h1.68Zm8.39 2.883c0-.209-.047-.401-.14-.578-.089-.183-.274-.347-.555-.492-.276-.151-.693-.282-1.25-.391a9.946 9.946 0 0 1-1.274-.352 3.869 3.869 0 0 1-.961-.492 2.07 2.07 0 0 1-.601-.68 1.89 1.89 0 0 1-.211-.914c0-.333.073-.648.219-.945.151-.297.362-.56.633-.789.276-.23.606-.409.992-.54.385-.13.815-.194 1.289-.194.677 0 1.255.12 1.734.359.479.24.847.56 1.102.96.255.397.383.837.383 1.321h-1.446c0-.234-.07-.46-.211-.68a1.556 1.556 0 0 0-.601-.554c-.261-.146-.581-.219-.961-.219-.401 0-.727.063-.977.188-.245.12-.424.273-.539.46a1.164 1.164 0 0 0-.086 1.016c.058.12.157.232.297.336.141.1.339.193.594.281.255.089.581.177.976.266.693.156 1.263.344 1.711.563.448.218.782.486 1 .804.219.318.329.703.329 1.156a2.247 2.247 0 0 1-.899 1.813c-.286.219-.63.39-1.031.516-.396.12-.841.18-1.336.18-.745 0-1.375-.134-1.891-.4-.515-.265-.906-.609-1.172-1.03a2.472 2.472 0 0 1-.398-1.336h1.453c.021.396.135.71.344.945.208.23.463.393.765.492.303.094.602.14.899.14.396 0 .726-.051.992-.155.271-.105.477-.248.617-.43a.993.993 0 0 0 .211-.625Zm8.328.797v-4.352c0-.333-.067-.622-.203-.867a1.327 1.327 0 0 0-.594-.578c-.265-.136-.593-.203-.984-.203-.365 0-.685.062-.961.187a1.667 1.667 0 0 0-.64.492 1.073 1.073 0 0 0-.227.657h-1.445c0-.302.078-.602.234-.899a2.62 2.62 0 0 1 .672-.805 3.362 3.362 0 0 1 1.062-.578 4.192 4.192 0 0 1 1.391-.218c.615 0 1.156.104 1.625.312.474.209.844.524 1.109.945.271.417.407.94.407 1.57v3.938c0 .282.023.581.07.899.052.317.128.59.226.82V31h-1.507a2.666 2.666 0 0 1-.172-.664 5.313 5.313 0 0 1-.063-.781Zm.25-3.68.016 1.016h-1.461c-.411 0-.779.034-1.102.101a2.527 2.527 0 0 0-.812.29c-.219.13-.385.294-.5.491-.115.193-.172.42-.172.68 0 .266.06.508.18.727.12.218.299.393.539.523.245.125.544.188.898.188.443 0 .834-.094 1.172-.282.339-.187.607-.416.805-.687.203-.271.312-.534.328-.79l.617.696c-.036.219-.135.461-.297.727a3.518 3.518 0 0 1-1.601 1.367 3.108 3.108 0 0 1-1.235.234c-.573 0-1.075-.112-1.507-.336a2.567 2.567 0 0 1-1-.898 2.373 2.373 0 0 1-.352-1.274c0-.453.088-.851.266-1.195.177-.349.432-.638.765-.867a3.652 3.652 0 0 1 1.203-.531c.469-.12.992-.18 1.571-.18h1.679Zm8.391 2.883c0-.209-.047-.401-.141-.578-.088-.183-.273-.347-.554-.492-.276-.151-.693-.282-1.25-.391a9.9 9.9 0 0 1-1.274-.352 3.869 3.869 0 0 1-.961-.492 2.06 2.06 0 0 1-.601-.68 1.89 1.89 0 0 1-.211-.914c0-.333.073-.648.219-.945a2.53 2.53 0 0 1 .632-.789 3.08 3.08 0 0 1 .992-.54 4.02 4.02 0 0 1 1.29-.194c.677 0 1.255.12 1.734.359.479.24.846.56 1.102.96.255.397.382.837.382 1.321h-1.445c0-.234-.07-.46-.211-.68a1.552 1.552 0 0 0-.602-.554c-.26-.146-.58-.219-.96-.219-.401 0-.727.063-.977.188-.245.12-.424.273-.539.46a1.164 1.164 0 0 0-.086 1.016c.057.12.156.232.297.336.141.1.338.193.594.281.255.089.58.177.976.266.693.156 1.263.344 1.711.563.448.218.781.486 1 .804.219.318.328.703.328 1.156 0 .37-.078.709-.234 1.016a2.258 2.258 0 0 1-.664.797c-.287.219-.63.39-1.031.516-.396.12-.842.18-1.336.18-.745 0-1.375-.134-1.891-.4-.516-.265-.906-.609-1.172-1.03a2.464 2.464 0 0 1-.398-1.336h1.453c.021.396.135.71.344.945.208.23.463.393.765.492.302.094.602.14.899.14.395 0 .726-.051.992-.155.271-.105.476-.248.617-.43a.993.993 0 0 0 .211-.625Zm6.883-6.211v1.11h-4.571v-1.11h4.571Zm-3.024-2.055h1.446v8.414c0 .287.044.503.132.649a.64.64 0 0 0 .344.289c.141.047.292.07.453.07.12 0 .245-.01.375-.031.136-.026.237-.047.305-.063l.008 1.18a3.41 3.41 0 0 1-.453.102 3.458 3.458 0 0 1-.664.054c-.355 0-.68-.07-.977-.21-.297-.141-.534-.376-.711-.704-.172-.333-.258-.781-.258-1.344v-8.406Zm6.164 3.383V31h-1.445v-8.453h1.406l.039 1.328Zm2.641-1.375-.008 1.344a2.078 2.078 0 0 0-.344-.047 3.652 3.652 0 0 0-.359-.016c-.333 0-.628.052-.883.157-.255.104-.471.25-.648.437a2.104 2.104 0 0 0-.422.672 3.217 3.217 0 0 0-.195.844l-.407.234c0-.51.05-.99.149-1.438.104-.447.263-.843.476-1.187.214-.349.485-.62.813-.813.333-.197.729-.296 1.187-.296.105 0 .224.013.36.039.135.02.229.044.281.07Zm6.008 7.055v-4.352c0-.333-.068-.622-.203-.867a1.332 1.332 0 0 0-.594-.578c-.266-.136-.594-.203-.984-.203-.365 0-.685.062-.961.187a1.67 1.67 0 0 0-.641.492 1.08 1.08 0 0 0-.227.657h-1.445c0-.302.078-.602.234-.899.157-.297.381-.565.672-.805a3.356 3.356 0 0 1 1.063-.578c.417-.146.88-.218 1.391-.218.614 0 1.156.104 1.624.312.474.209.844.524 1.11.945.271.417.406.94.406 1.57v3.938c0 .282.024.581.07.899.053.317.128.59.227.82V31h-1.508a2.71 2.71 0 0 1-.172-.664 5.444 5.444 0 0 1-.062-.781Zm.25-3.68.015 1.016h-1.46c-.412 0-.779.034-1.102.101a2.524 2.524 0 0 0-.813.29c-.218.13-.385.294-.5.491a1.31 1.31 0 0 0-.171.68c0 .266.059.508.179.727.12.218.3.393.539.523.245.125.545.188.899.188.442 0 .833-.094 1.172-.282.338-.187.606-.416.804-.687.203-.271.313-.534.328-.79l.618.696a2.119 2.119 0 0 1-.297.727 3.489 3.489 0 0 1-1.602 1.367 3.103 3.103 0 0 1-1.234.234c-.573 0-1.076-.112-1.508-.336a2.581 2.581 0 0 1-1-.898 2.382 2.382 0 0 1-.352-1.274c0-.453.089-.851.266-1.195.177-.349.432-.638.766-.867a3.633 3.633 0 0 1 1.203-.531c.469-.12.992-.18 1.57-.18h1.68ZM10.273 19.625V31H8.758L3.03 22.227V31H1.523V19.625h1.508l5.75 8.797v-8.797h1.492Zm7.438 9.93v-4.352c0-.333-.068-.622-.203-.867a1.33 1.33 0 0 0-.594-.578c-.266-.136-.594-.203-.984-.203-.365 0-.685.062-.961.187-.271.125-.485.29-.64.492a1.078 1.078 0 0 0-.227.657h-1.446c0-.302.078-.602.235-.899.156-.297.38-.565.671-.805a3.358 3.358 0 0 1 1.063-.578c.417-.146.88-.218 1.39-.218.615 0 1.157.104 1.626.312.474.209.843.524 1.109.945.27.417.406.94.406 1.57v3.938c0 .282.024.581.07.899.053.317.128.59.227.82V31h-1.508a2.702 2.702 0 0 1-.172-.664 5.364 5.364 0 0 1-.062-.781Zm.25-3.68.016 1.016h-1.461c-.412 0-.779.034-1.102.101a2.518 2.518 0 0 0-.812.29c-.22.13-.386.294-.5.491-.115.193-.172.42-.172.68 0 .266.06.508.18.727.12.218.299.393.538.523.245.125.545.188.899.188a2.38 2.38 0 0 0 1.172-.282 2.44 2.44 0 0 0 .804-.687c.204-.271.313-.534.329-.79l.617.696a2.1 2.1 0 0 1-.297.727 3.5 3.5 0 0 1-1.602 1.367 3.106 3.106 0 0 1-1.234.234c-.573 0-1.076-.112-1.508-.336a2.578 2.578 0 0 1-1-.898 2.379 2.379 0 0 1-.351-1.274c0-.453.088-.851.265-1.195.177-.349.432-.638.766-.867a3.64 3.64 0 0 1 1.203-.531c.469-.12.992-.18 1.57-.18h1.68Zm7.008-3.328v1.11h-4.57v-1.11h4.57Zm-3.024-2.055h1.446v8.414c0 .287.044.503.132.649a.636.636 0 0 0 .344.289c.14.047.292.07.453.07.12 0 .245-.01.375-.031.136-.026.237-.047.305-.063l.008 1.18c-.115.037-.266.07-.453.102a3.451 3.451 0 0 1-.664.054c-.354 0-.68-.07-.977-.21-.297-.141-.534-.376-.71-.704-.173-.333-.259-.781-.259-1.344v-8.406Zm7.094 9.633 2.352-7.578h1.547l-3.391 9.758a5.37 5.37 0 0 1-.313.672 3.218 3.218 0 0 1-.484.695 2.306 2.306 0 0 1-.719.531c-.276.14-.607.211-.992.211a2.62 2.62 0 0 1-.437-.047 4.277 4.277 0 0 1-.375-.078l-.008-1.172c.041.005.107.01.195.016a2.325 2.325 0 0 0 1.031-.117c.23-.084.422-.227.578-.43.162-.198.3-.471.415-.82l.601-1.641Zm-1.727-7.578 2.196 6.562.375 1.524-1.04.531-3.109-8.617h1.578Zm11.79 7.008v-4.352c0-.333-.068-.622-.204-.867a1.33 1.33 0 0 0-.593-.578c-.266-.136-.594-.203-.985-.203-.364 0-.685.062-.96.187-.271.125-.485.29-.641.492a1.078 1.078 0 0 0-.227.657h-1.445c0-.302.078-.602.234-.899a2.63 2.63 0 0 1 .672-.805 3.359 3.359 0 0 1 1.063-.578c.416-.146.88-.218 1.39-.218.615 0 1.157.104 1.625.312.474.209.844.524 1.11.945.27.417.406.94.406 1.57v3.938c0 .282.023.581.07.899.052.317.128.59.227.82V31h-1.508a2.698 2.698 0 0 1-.172-.664 5.35 5.35 0 0 1-.062-.781Zm.25-3.68.015 1.016h-1.46c-.412 0-.78.034-1.102.101a2.52 2.52 0 0 0-.813.29c-.219.13-.385.294-.5.491-.114.193-.172.42-.172.68 0 .266.06.508.18.727.12.218.3.393.54.523.244.125.543.188.898.188a2.38 2.38 0 0 0 1.171-.282c.339-.187.607-.416.805-.687.203-.271.313-.534.328-.79l.617.696a2.098 2.098 0 0 1-.297.727 3.502 3.502 0 0 1-1.602 1.367 3.105 3.105 0 0 1-1.233.234c-.573 0-1.076-.112-1.508-.336a2.577 2.577 0 0 1-1-.898 2.378 2.378 0 0 1-.352-1.274c0-.453.089-.851.266-1.195.177-.349.432-.638.765-.867a3.64 3.64 0 0 1 1.204-.531c.468-.12.992-.18 1.57-.18h1.68Zm8.39 2.883c0-.209-.047-.401-.14-.578-.089-.183-.274-.347-.555-.492-.276-.151-.693-.282-1.25-.391a9.91 9.91 0 0 1-1.274-.352 3.861 3.861 0 0 1-.96-.492c-.26-.193-.461-.42-.602-.68-.14-.26-.211-.565-.211-.914 0-.333.073-.648.219-.945.15-.297.362-.56.633-.789.276-.23.606-.409.992-.54a4.01 4.01 0 0 1 1.289-.194c.677 0 1.255.12 1.734.359.48.24.847.56 1.102.96.255.397.383.837.383 1.321h-1.446c0-.234-.07-.46-.21-.68a1.556 1.556 0 0 0-.602-.554c-.26-.146-.581-.219-.961-.219-.401 0-.727.063-.977.188-.245.12-.424.273-.539.46a1.16 1.16 0 0 0-.086 1.016c.058.12.157.232.297.336.14.1.339.193.594.281.255.089.58.177.976.266.693.156 1.263.344 1.711.563.448.218.782.486 1 .804.22.318.328.703.328 1.156a2.251 2.251 0 0 1-.898 1.813 3.3 3.3 0 0 1-1.031.516c-.396.12-.841.18-1.336.18-.745 0-1.375-.134-1.89-.4-.516-.265-.907-.609-1.173-1.03a2.468 2.468 0 0 1-.398-1.336h1.453c.02.396.136.71.344.945.208.23.463.393.765.492.302.094.602.14.899.14.396 0 .726-.051.992-.155.27-.105.477-.248.617-.43a.995.995 0 0 0 .211-.625Zm8.328.797v-4.352c0-.333-.067-.622-.203-.867a1.329 1.329 0 0 0-.594-.578c-.265-.136-.593-.203-.984-.203a2.31 2.31 0 0 0-.96.187c-.272.125-.485.29-.642.492a1.079 1.079 0 0 0-.226.657h-1.445c0-.302.078-.602.234-.899.156-.297.38-.565.672-.805a3.358 3.358 0 0 1 1.062-.578c.417-.146.88-.218 1.391-.218.615 0 1.156.104 1.625.312.474.209.844.524 1.11.945.27.417.406.94.406 1.57v3.938c0 .282.023.581.07.899.052.317.128.59.227.82V31h-1.508a2.702 2.702 0 0 1-.172-.664 5.35 5.35 0 0 1-.063-.781Zm.25-3.68.016 1.016h-1.461c-.411 0-.779.034-1.102.101a2.52 2.52 0 0 0-.812.29c-.219.13-.386.294-.5.491-.115.193-.172.42-.172.68 0 .266.06.508.18.727.12.218.3.393.539.523.245.125.544.188.898.188.443 0 .834-.094 1.172-.282.339-.187.607-.416.805-.687.203-.271.312-.534.328-.79l.617.696c-.036.219-.135.461-.297.727a3.5 3.5 0 0 1-1.602 1.367 3.106 3.106 0 0 1-1.234.234c-.573 0-1.075-.112-1.508-.336a2.578 2.578 0 0 1-1-.898 2.378 2.378 0 0 1-.351-1.274c0-.453.089-.851.266-1.195.177-.349.432-.638.765-.867a3.64 3.64 0 0 1 1.203-.531c.47-.12.992-.18 1.57-.18h1.68Zm8.39 2.883c0-.209-.046-.401-.14-.578-.088-.183-.273-.347-.554-.492-.276-.151-.693-.282-1.25-.391a9.913 9.913 0 0 1-1.274-.352 3.864 3.864 0 0 1-.96-.492c-.261-.193-.462-.42-.602-.68-.14-.26-.211-.565-.211-.914 0-.333.073-.648.218-.945.152-.297.363-.56.633-.789.276-.23.607-.409.992-.54a4.01 4.01 0 0 1 1.29-.194c.677 0 1.255.12 1.734.359.48.24.846.56 1.102.96.255.397.382.837.382 1.321h-1.445c0-.234-.07-.46-.21-.68a1.557 1.557 0 0 0-.603-.554c-.26-.146-.58-.219-.96-.219-.401 0-.727.063-.977.188-.245.12-.425.273-.54.46a1.161 1.161 0 0 0-.085 1.016c.057.12.156.232.297.336.14.1.338.193.594.281.255.089.58.177.976.266.693.156 1.263.344 1.711.563.448.218.781.486 1 .804.219.318.328.703.328 1.156a2.252 2.252 0 0 1-.898 1.813c-.287.219-.63.39-1.031.516-.396.12-.842.18-1.336.18-.745 0-1.375-.134-1.891-.4-.516-.265-.906-.609-1.172-1.03a2.468 2.468 0 0 1-.398-1.336h1.453c.02.396.135.71.344.945.208.23.463.393.765.492.302.094.602.14.899.14.395 0 .726-.051.992-.155.27-.105.476-.248.617-.43.14-.182.21-.39.21-.625Zm6.884-6.211v1.11h-4.57v-1.11h4.57Zm-3.024-2.055h1.446v8.414c0 .287.044.503.132.649a.636.636 0 0 0 .344.289c.14.047.292.07.453.07.12 0 .245-.01.375-.031.136-.026.237-.047.305-.063l.008 1.18c-.115.037-.266.07-.453.102a3.451 3.451 0 0 1-.664.054c-.355 0-.68-.07-.977-.21-.297-.141-.534-.376-.71-.704-.173-.333-.259-.781-.259-1.344v-8.406Zm6.164 3.383V31H73.29v-8.453h1.406l.04 1.328Zm2.641-1.375-.008 1.344a2.081 2.081 0 0 0-.344-.047 3.654 3.654 0 0 0-.359-.016c-.333 0-.627.052-.883.157a1.83 1.83 0 0 0-.648.437 2.106 2.106 0 0 0-.422.672 3.233 3.233 0 0 0-.195.844l-.407.234c0-.51.05-.99.149-1.438.104-.447.263-.843.476-1.187.214-.349.485-.62.813-.813.333-.197.729-.296 1.187-.296.105 0 .224.013.36.039.135.02.229.044.281.07Zm6.008 7.055v-4.352c0-.333-.068-.622-.203-.867a1.329 1.329 0 0 0-.594-.578c-.266-.136-.594-.203-.984-.203a2.31 2.31 0 0 0-.961.187c-.271.125-.485.29-.641.492a1.079 1.079 0 0 0-.227.657h-1.445c0-.302.078-.602.234-.899.157-.297.38-.565.672-.805a3.357 3.357 0 0 1 1.063-.578c.416-.146.88-.218 1.39-.218.615 0 1.157.104 1.626.312.474.209.843.524 1.109.945.27.417.406.94.406 1.57v3.938c0 .282.024.581.07.899.053.317.128.59.227.82V31h-1.508a2.702 2.702 0 0 1-.172-.664 5.35 5.35 0 0 1-.062-.781Zm.25-3.68.015 1.016h-1.46c-.412 0-.78.034-1.102.101a2.52 2.52 0 0 0-.813.29c-.218.13-.385.294-.5.491-.114.193-.171.42-.171.68 0 .266.06.508.18.727.119.218.299.393.538.523.245.125.545.188.899.188.443 0 .833-.094 1.172-.282.338-.187.606-.416.804-.687.203-.271.313-.534.328-.79l.618.696c-.037.219-.136.461-.297.727a3.5 3.5 0 0 1-1.602 1.367 3.106 3.106 0 0 1-1.234.234c-.573 0-1.076-.112-1.508-.336a2.578 2.578 0 0 1-1-.898 2.378 2.378 0 0 1-.352-1.274c0-.453.089-.851.266-1.195.177-.349.432-.638.766-.867a3.64 3.64 0 0 1 1.203-.531c.469-.12.992-.18 1.57-.18h1.68ZM367.383 91.125c0-.266-.042-.5-.125-.703a1.339 1.339 0 0 0-.422-.563c-.198-.166-.474-.325-.828-.476a11.583 11.583 0 0 0-1.328-.461 12.198 12.198 0 0 1-1.524-.555 5.323 5.323 0 0 1-1.164-.71 2.805 2.805 0 0 1-.742-.915 2.602 2.602 0 0 1-.258-1.18c0-.442.091-.851.274-1.226.182-.375.442-.7.781-.977.344-.28.752-.5 1.226-.656a5.05 5.05 0 0 1 1.586-.234c.855 0 1.579.164 2.172.492.599.323 1.055.747 1.367 1.273a3.19 3.19 0 0 1 .469 1.672h-1.5c0-.427-.091-.804-.273-1.133a1.891 1.891 0 0 0-.828-.78c-.37-.194-.839-.29-1.407-.29-.536 0-.979.08-1.328.242-.349.162-.609.38-.781.657a1.79 1.79 0 0 0-.25.945c0 .24.049.458.148.656.105.193.263.373.477.54.219.166.495.32.828.46.339.14.742.276 1.211.406.646.183 1.203.386 1.672.61.469.224.854.476 1.156.758.307.276.534.59.68.945.151.349.226.745.226 1.187 0 .464-.093.883-.281 1.258a2.73 2.73 0 0 1-.805.961 3.876 3.876 0 0 1-1.257.617c-.485.14-1.026.211-1.625.211a5.634 5.634 0 0 1-1.555-.219 4.639 4.639 0 0 1-1.383-.656 3.443 3.443 0 0 1-.992-1.078c-.245-.432-.367-.932-.367-1.5h1.5c0 .39.075.727.226 1.008.151.276.357.505.618.687.265.183.565.318.898.407.339.083.69.125 1.055.125.526 0 .971-.073 1.336-.22.364-.145.64-.353.828-.624.192-.27.289-.591.289-.961Zm8.203 1.43v-4.352c0-.333-.068-.622-.203-.867a1.327 1.327 0 0 0-.594-.578c-.266-.136-.594-.203-.984-.203-.365 0-.685.062-.961.187a1.67 1.67 0 0 0-.641.492 1.078 1.078 0 0 0-.226.657h-1.446c0-.303.078-.602.235-.899a2.62 2.62 0 0 1 .672-.805 3.35 3.35 0 0 1 1.062-.578c.417-.145.88-.218 1.391-.218.614 0 1.156.104 1.625.312.474.209.843.524 1.109.945.271.417.406.94.406 1.57v3.938c0 .281.024.581.071.899.052.317.127.59.226.82V94h-1.508a2.71 2.71 0 0 1-.172-.664 5.444 5.444 0 0 1-.062-.781Zm.25-3.68.016 1.016h-1.461c-.412 0-.779.033-1.102.101a2.51 2.51 0 0 0-.812.29c-.219.13-.386.294-.5.491-.115.193-.172.42-.172.68 0 .266.06.508.179.727.12.218.3.393.539.523.245.125.545.188.899.188a2.38 2.38 0 0 0 1.172-.282c.338-.187.607-.416.804-.687.204-.271.313-.534.329-.79l.617.696a2.119 2.119 0 0 1-.297.727 3.489 3.489 0 0 1-1.602 1.367 3.103 3.103 0 0 1-1.234.234c-.573 0-1.076-.112-1.508-.336a2.581 2.581 0 0 1-1-.898 2.381 2.381 0 0 1-.351-1.274c0-.453.088-.851.265-1.195.177-.349.432-.638.766-.867a3.633 3.633 0 0 1 1.203-.531c.469-.12.992-.18 1.57-.18h1.68Zm4.914-1.523V94h-1.445v-8.453h1.367l.078 1.805Zm-.344 2.101-.601-.023a5.098 5.098 0 0 1 .257-1.602c.167-.495.402-.924.704-1.289a3.128 3.128 0 0 1 1.078-.844 3.181 3.181 0 0 1 1.398-.304c.417 0 .792.057 1.125.171.334.11.617.287.852.532.239.245.422.562.547.953.125.385.187.857.187 1.414V94H384.5v-5.555c0-.442-.065-.797-.195-1.062a1.206 1.206 0 0 0-.571-.586c-.25-.125-.557-.188-.922-.188a2.14 2.14 0 0 0-.984.227c-.292.151-.544.36-.758.625-.208.266-.372.57-.492.914a3.356 3.356 0 0 0-.172 1.078Zm13.219-3.906h1.313v8.273c0 .745-.152 1.38-.454 1.907a2.954 2.954 0 0 1-1.265 1.195c-.537.276-1.157.414-1.86.414-.291 0-.635-.047-1.031-.14a4.163 4.163 0 0 1-1.156-.462 2.886 2.886 0 0 1-.945-.867l.757-.86c.355.428.724.725 1.11.891.39.167.776.25 1.156.25.458 0 .854-.085 1.188-.257.333-.172.591-.428.773-.766.187-.333.281-.745.281-1.234v-6.485l.133-1.86Zm-5.82 4.32v-.164c0-.646.075-1.232.226-1.758.157-.53.378-.987.664-1.367a2.99 2.99 0 0 1 2.446-1.187c.531 0 .994.093 1.39.28.401.183.74.451 1.016.806.281.349.502.77.664 1.265.161.495.273 1.055.336 1.68v.719a7.328 7.328 0 0 1-.336 1.671 3.959 3.959 0 0 1-.664 1.266 2.78 2.78 0 0 1-1.016.805c-.401.182-.87.273-1.406.273-.505 0-.964-.107-1.375-.32a3.137 3.137 0 0 1-1.047-.898 4.263 4.263 0 0 1-.672-1.36 6.18 6.18 0 0 1-.226-1.71Zm1.445-.164v.164c0 .422.042.818.125 1.188.089.37.221.695.398.976.183.281.415.503.696.664.281.157.617.235 1.008.235.479 0 .875-.102 1.187-.305.313-.203.56-.471.742-.805.188-.333.334-.695.438-1.086v-1.882a3.87 3.87 0 0 0-.266-.829 2.548 2.548 0 0 0-.453-.718 1.955 1.955 0 0 0-.68-.508 2.254 2.254 0 0 0-.953-.188c-.396 0-.737.084-1.023.25a2.003 2.003 0 0 0-.696.672c-.177.281-.309.61-.398.985-.083.37-.125.765-.125 1.187Zm9.453-4.156V94h-1.453v-8.453h1.453Zm-1.562-2.242a.87.87 0 0 1 .211-.594c.145-.162.359-.242.64-.242.276 0 .487.08.633.242.151.161.227.36.227.594a.818.818 0 0 1-.227.578c-.146.156-.357.234-.633.234-.281 0-.495-.078-.64-.234a.85.85 0 0 1-.211-.578Zm7.421 2.242v1.11h-4.57v-1.11h4.57Zm-3.023-2.055h1.445v8.414c0 .287.045.503.133.649a.636.636 0 0 0 .344.289c.141.047.292.07.453.07.12 0 .245-.01.375-.031.135-.026.237-.047.305-.063l.008 1.18c-.115.037-.266.07-.454.102a3.444 3.444 0 0 1-.664.054 2.25 2.25 0 0 1-.976-.21c-.297-.141-.534-.376-.711-.704-.172-.333-.258-.781-.258-1.344v-8.406Zm9.703 9.063v-4.352c0-.333-.068-.622-.203-.867a1.327 1.327 0 0 0-.594-.578c-.265-.136-.593-.203-.984-.203-.365 0-.685.062-.961.187a1.678 1.678 0 0 0-.641.492 1.078 1.078 0 0 0-.226.657h-1.445c0-.303.078-.602.234-.899a2.62 2.62 0 0 1 .672-.805 3.362 3.362 0 0 1 1.062-.578c.417-.145.88-.218 1.391-.218.614 0 1.156.104 1.625.312.474.209.844.524 1.109.945.271.417.407.94.407 1.57v3.938c0 .281.023.581.07.899.052.317.127.59.226.82V94h-1.507a2.666 2.666 0 0 1-.172-.664 5.313 5.313 0 0 1-.063-.781Zm.25-3.68.016 1.016h-1.461c-.412 0-.779.033-1.102.101a2.518 2.518 0 0 0-.812.29c-.219.13-.386.294-.5.491-.115.193-.172.42-.172.68 0 .266.06.508.18.727a1.3 1.3 0 0 0 .539.523c.244.125.544.188.898.188a2.38 2.38 0 0 0 1.172-.282c.339-.187.607-.416.805-.687.203-.271.312-.534.328-.79l.617.696c-.036.219-.135.461-.297.727a3.518 3.518 0 0 1-1.601 1.367 3.108 3.108 0 0 1-1.235.234c-.573 0-1.075-.112-1.508-.336a2.581 2.581 0 0 1-1-.898 2.381 2.381 0 0 1-.351-1.274c0-.453.088-.851.265-1.195a2.32 2.32 0 0 1 .766-.867 3.633 3.633 0 0 1 1.203-.531c.469-.12.992-.18 1.57-.18h1.68Zm8.391 2.883c0-.209-.047-.401-.141-.578-.088-.183-.273-.347-.554-.493-.277-.15-.693-.28-1.25-.39a9.9 9.9 0 0 1-1.274-.352 3.869 3.869 0 0 1-.961-.492 2.06 2.06 0 0 1-.601-.68 1.89 1.89 0 0 1-.211-.914c0-.333.073-.648.218-.945.151-.297.362-.56.633-.789a3.08 3.08 0 0 1 .992-.54c.386-.13.815-.194 1.289-.194.678 0 1.256.12 1.735.359.479.24.846.56 1.101.96.256.397.383.837.383 1.321h-1.445c0-.234-.07-.46-.211-.68a1.552 1.552 0 0 0-.602-.554c-.26-.146-.58-.219-.961-.219-.401 0-.726.063-.976.188a1.25 1.25 0 0 0-.539.46c-.11.188-.164.386-.164.594 0 .157.026.297.078.422.057.12.156.232.297.336.14.1.338.193.593.281.256.089.581.178.977.266.693.156 1.263.344 1.711.563.448.218.781.486 1 .804.219.318.328.703.328 1.156 0 .37-.078.709-.234 1.016a2.258 2.258 0 0 1-.664.797 3.31 3.31 0 0 1-1.032.516c-.395.12-.841.18-1.336.18-.744 0-1.374-.134-1.89-.4-.516-.265-.906-.609-1.172-1.03a2.464 2.464 0 0 1-.398-1.336h1.453c.021.395.135.71.343.945.209.23.464.393.766.492.302.094.602.14.898.14.396 0 .727-.051.993-.156.271-.104.476-.247.617-.43a1 1 0 0 0 .211-.624Zm8.328.797v-4.352c0-.333-.068-.622-.203-.867a1.327 1.327 0 0 0-.594-.578c-.266-.136-.594-.203-.984-.203-.365 0-.685.062-.961.187a1.67 1.67 0 0 0-.641.492 1.078 1.078 0 0 0-.226.657h-1.446c0-.303.078-.602.235-.899a2.63 2.63 0 0 1 .671-.805 3.367 3.367 0 0 1 1.063-.578c.417-.145.88-.218 1.391-.218.614 0 1.156.104 1.625.312.474.209.843.524 1.109.945.271.417.406.94.406 1.57v3.938c0 .281.024.581.071.899.052.317.127.59.226.82V94h-1.508a2.71 2.71 0 0 1-.172-.664 5.444 5.444 0 0 1-.062-.781Zm.25-3.68.016 1.016h-1.461c-.412 0-.779.033-1.102.101a2.51 2.51 0 0 0-.812.29c-.219.13-.386.294-.5.491-.115.193-.172.42-.172.68 0 .266.06.508.179.727.12.218.3.393.539.523.245.125.545.188.899.188a2.38 2.38 0 0 0 1.172-.282c.338-.187.607-.416.804-.687.204-.271.313-.534.329-.79l.617.696a2.119 2.119 0 0 1-.297.727 3.489 3.489 0 0 1-1.602 1.367 3.103 3.103 0 0 1-1.234.234c-.573 0-1.076-.112-1.508-.336a2.581 2.581 0 0 1-1-.898 2.381 2.381 0 0 1-.351-1.274c0-.453.088-.851.265-1.195.177-.349.432-.638.766-.867a3.633 3.633 0 0 1 1.203-.531c.469-.12.992-.18 1.57-.18h1.68Zm8.391 2.883c0-.209-.047-.401-.141-.578-.089-.183-.273-.347-.555-.493-.276-.15-.692-.28-1.25-.39a9.929 9.929 0 0 1-1.273-.352 3.869 3.869 0 0 1-.961-.492 2.063 2.063 0 0 1-.602-.68 1.902 1.902 0 0 1-.211-.914c0-.333.073-.648.219-.945.151-.297.362-.56.633-.789a3.08 3.08 0 0 1 .992-.54c.386-.13.815-.194 1.289-.194.677 0 1.255.12 1.735.359.479.24.846.56 1.101.96.255.397.383.837.383 1.321h-1.445c0-.234-.071-.46-.211-.68a1.56 1.56 0 0 0-.602-.554c-.26-.146-.581-.219-.961-.219-.401 0-.726.063-.976.188a1.25 1.25 0 0 0-.539.46 1.155 1.155 0 0 0-.086 1.016c.057.12.156.232.297.336.14.1.338.193.593.281.255.089.581.178.977.266.693.156 1.263.344 1.711.563.448.218.781.486 1 .804.219.318.328.703.328 1.156a2.247 2.247 0 0 1-.899 1.813c-.286.219-.63.39-1.031.516-.396.12-.841.18-1.336.18-.745 0-1.375-.134-1.89-.4-.516-.265-.907-.609-1.172-1.03a2.465 2.465 0 0 1-.399-1.336h1.453c.021.395.136.71.344.945.209.23.464.393.766.492.302.094.601.14.898.14.396 0 .727-.051.992-.156.271-.104.477-.247.618-.43a1 1 0 0 0 .211-.624Zm6.882-6.211v1.11h-4.57v-1.11h4.57Zm-3.023-2.055h1.445v8.414c0 .287.045.503.133.649a.636.636 0 0 0 .344.289c.14.047.291.07.453.07.12 0 .245-.01.375-.031.135-.026.237-.047.305-.063l.007 1.18c-.114.037-.265.07-.453.102a3.444 3.444 0 0 1-.664.054 2.25 2.25 0 0 1-.976-.21c-.297-.141-.534-.376-.711-.704-.172-.333-.258-.781-.258-1.344v-8.406Zm6.164 3.383V94h-1.445v-8.453h1.406l.039 1.328Zm2.641-1.375-.008 1.344a2.092 2.092 0 0 0-.344-.047 3.652 3.652 0 0 0-.359-.016 2.32 2.32 0 0 0-.883.156c-.255.105-.471.25-.649.438a2.102 2.102 0 0 0-.421.672 3.257 3.257 0 0 0-.196.844l-.406.234c0-.51.049-.99.148-1.438.105-.447.263-.843.477-1.187a2.33 2.33 0 0 1 .813-.813c.333-.197.729-.296 1.187-.296.104 0 .224.013.359.039.136.02.23.044.282.07Zm6.007 7.055v-4.352c0-.333-.067-.622-.203-.867a1.33 1.33 0 0 0-.593-.578c-.266-.136-.594-.203-.985-.203-.364 0-.685.062-.961.187a1.667 1.667 0 0 0-.64.492 1.08 1.08 0 0 0-.227.657h-1.445c0-.303.078-.602.234-.899a2.62 2.62 0 0 1 .672-.805 3.356 3.356 0 0 1 1.063-.578c.416-.145.88-.218 1.39-.218.615 0 1.156.104 1.625.312.474.209.844.524 1.109.945.271.417.407.94.407 1.57v3.938c0 .281.023.581.07.899.052.317.128.59.227.82V94h-1.508a2.71 2.71 0 0 1-.172-.664 5.313 5.313 0 0 1-.063-.781Zm.25-3.68.016 1.016h-1.461c-.411 0-.779.033-1.101.101a2.524 2.524 0 0 0-.813.29c-.219.13-.385.294-.5.491-.115.193-.172.42-.172.68 0 .266.06.508.18.727.12.218.299.393.539.523.245.125.544.188.898.188.443 0 .834-.094 1.172-.282.339-.187.607-.416.805-.687.203-.271.312-.534.328-.79l.617.696c-.036.219-.135.461-.297.727a3.502 3.502 0 0 1-1.601 1.367 3.108 3.108 0 0 1-1.235.234c-.572 0-1.075-.112-1.507-.336a2.574 2.574 0 0 1-1-.898 2.373 2.373 0 0 1-.352-1.274c0-.453.089-.851.266-1.195.177-.349.432-.638.765-.867a3.652 3.652 0 0 1 1.203-.531c.469-.12.993-.18 1.571-.18h1.679ZM5.852 92.273l3.351-9.648h1.633L6.625 94H5.461l.39-1.727Zm-3.133-9.648 3.32 9.648L6.453 94H5.29L1.086 82.625h1.633Zm14.054 9.93v-4.352c0-.333-.067-.622-.203-.867a1.33 1.33 0 0 0-.593-.578c-.266-.136-.594-.203-.985-.203a2.31 2.31 0 0 0-.96.187c-.272.125-.485.29-.641.492a1.078 1.078 0 0 0-.227.657H11.72c0-.303.078-.602.234-.899.156-.297.38-.565.672-.805a3.358 3.358 0 0 1 1.063-.578c.416-.145.88-.218 1.39-.218.615 0 1.156.104 1.625.312.474.209.844.524 1.11.945.27.417.406.94.406 1.57v3.938c0 .281.023.581.07.899.052.317.128.59.227.82V94h-1.508a2.702 2.702 0 0 1-.172-.664 5.364 5.364 0 0 1-.063-.781Zm.25-3.68.016 1.016h-1.46c-.412 0-.78.033-1.102.101a2.518 2.518 0 0 0-.813.29c-.219.13-.385.294-.5.491-.114.193-.172.42-.172.68 0 .266.06.508.18.727.12.218.3.393.539.523.245.125.544.188.898.188.443 0 .834-.094 1.172-.282.339-.187.607-.416.805-.687.203-.271.312-.534.328-.79l.617.696c-.036.219-.135.461-.297.727a3.5 3.5 0 0 1-1.602 1.367 3.106 3.106 0 0 1-1.234.234c-.572 0-1.075-.112-1.507-.336a2.578 2.578 0 0 1-1-.898 2.378 2.378 0 0 1-.352-1.274c0-.453.089-.851.266-1.195.177-.349.432-.638.765-.867a3.64 3.64 0 0 1 1.203-.531c.47-.12.993-.18 1.57-.18h1.68Zm8.391 2.883c0-.209-.047-.401-.14-.578-.09-.183-.274-.347-.555-.493-.276-.15-.693-.28-1.25-.39a9.91 9.91 0 0 1-1.274-.352 3.861 3.861 0 0 1-.96-.492 2.064 2.064 0 0 1-.602-.68c-.14-.26-.211-.565-.211-.914 0-.333.073-.648.219-.945.15-.297.362-.56.632-.789.276-.23.607-.409.993-.54a4.01 4.01 0 0 1 1.289-.194c.677 0 1.255.12 1.734.359.48.24.846.56 1.102.96.255.397.382.837.382 1.321h-1.445c0-.234-.07-.46-.21-.68a1.556 1.556 0 0 0-.602-.554c-.26-.146-.581-.219-.961-.219-.401 0-.727.063-.977.188-.245.12-.424.273-.539.46a1.16 1.16 0 0 0-.086 1.016c.057.12.156.232.297.336.14.1.338.193.594.281.255.089.58.178.976.266.693.156 1.263.344 1.711.563.448.218.782.486 1 .804.219.318.328.703.328 1.156a2.25 2.25 0 0 1-.899 1.813c-.286.219-.63.39-1.03.516-.396.12-.841.18-1.336.18-.745 0-1.375-.134-1.89-.4-.517-.265-.907-.609-1.173-1.03a2.468 2.468 0 0 1-.398-1.336h1.453c.02.395.135.71.344.945.208.23.463.393.765.492.302.094.602.14.899.14.396 0 .726-.051.992-.156.27-.104.477-.247.617-.43a.995.995 0 0 0 .211-.624Zm6.883-6.211v1.11h-4.57v-1.11h4.57Zm-3.024-2.055h1.446v8.414c0 .287.044.503.133.649a.635.635 0 0 0 .343.289c.14.047.292.07.453.07.12 0 .245-.01.375-.031.136-.026.237-.047.305-.063l.008 1.18c-.115.037-.266.07-.453.102a3.45 3.45 0 0 1-.664.054c-.354 0-.68-.07-.977-.21-.297-.141-.534-.376-.71-.704-.173-.333-.259-.781-.259-1.344v-8.406Zm9.891 8.555v-6.5h1.453V94h-1.383l-.07-1.953Zm.273-1.781.602-.016c0 .563-.06 1.083-.18 1.563a3.356 3.356 0 0 1-.562 1.234 2.66 2.66 0 0 1-1.024.82c-.421.193-.934.29-1.539.29-.411 0-.789-.06-1.132-.18a2.263 2.263 0 0 1-.875-.555c-.245-.25-.435-.576-.57-.977-.131-.4-.196-.882-.196-1.445v-5.453h1.445v5.469c0 .38.042.695.125.945.089.245.206.44.352.586.15.14.317.24.5.297.187.057.38.086.578.086.614 0 1.102-.118 1.46-.352.36-.24.618-.56.774-.96a3.63 3.63 0 0 0 .242-1.352Zm8.305 1.492c0-.209-.047-.401-.14-.578-.089-.183-.274-.347-.555-.493-.276-.15-.693-.28-1.25-.39a9.91 9.91 0 0 1-1.274-.352 3.861 3.861 0 0 1-.96-.492c-.26-.193-.461-.42-.602-.68-.14-.26-.211-.565-.211-.914 0-.333.073-.648.219-.945.15-.297.362-.56.633-.789.276-.23.606-.409.992-.54a4.01 4.01 0 0 1 1.289-.194c.677 0 1.255.12 1.734.359.48.24.847.56 1.102.96.255.397.383.837.383 1.321h-1.446c0-.234-.07-.46-.21-.68a1.556 1.556 0 0 0-.602-.554c-.26-.146-.581-.219-.961-.219-.401 0-.727.063-.977.188-.245.12-.424.273-.539.46a1.16 1.16 0 0 0-.086 1.016c.058.12.157.232.297.336.14.1.339.193.594.281.255.089.58.178.976.266.693.156 1.263.344 1.711.563.448.218.782.486 1 .804.22.318.328.703.328 1.156a2.251 2.251 0 0 1-.898 1.813 3.3 3.3 0 0 1-1.031.516c-.396.12-.841.18-1.336.18-.745 0-1.375-.134-1.89-.4-.516-.265-.907-.609-1.173-1.03a2.468 2.468 0 0 1-.398-1.336h1.453c.02.395.136.71.344.945.208.23.463.393.765.492.302.094.602.14.899.14.396 0 .726-.051.992-.156.27-.104.477-.247.617-.43a.995.995 0 0 0 .211-.624Zm8.328.797v-4.352c0-.333-.067-.622-.203-.867a1.329 1.329 0 0 0-.594-.578c-.265-.136-.593-.203-.984-.203a2.31 2.31 0 0 0-.96.187c-.272.125-.485.29-.642.492a1.079 1.079 0 0 0-.226.657h-1.445c0-.303.078-.602.234-.899.156-.297.38-.565.672-.805a3.358 3.358 0 0 1 1.062-.578c.417-.145.88-.218 1.391-.218.615 0 1.156.104 1.625.312.474.209.844.524 1.11.945.27.417.406.94.406 1.57v3.938c0 .281.023.581.07.899.052.317.128.59.227.82V94h-1.508a2.702 2.702 0 0 1-.172-.664 5.35 5.35 0 0 1-.063-.781Zm.25-3.68.016 1.016h-1.461c-.411 0-.779.033-1.102.101a2.52 2.52 0 0 0-.812.29c-.219.13-.386.294-.5.491-.115.193-.172.42-.172.68 0 .266.06.508.18.727.12.218.3.393.539.523.245.125.544.188.898.188.443 0 .834-.094 1.172-.282.339-.187.607-.416.805-.687.203-.271.312-.534.328-.79l.617.696c-.036.219-.135.461-.297.727a3.5 3.5 0 0 1-1.602 1.367 3.106 3.106 0 0 1-1.234.234c-.573 0-1.075-.112-1.508-.336a2.578 2.578 0 0 1-1-.898 2.378 2.378 0 0 1-.351-1.274c0-.453.089-.851.266-1.195.177-.349.432-.638.765-.867a3.64 3.64 0 0 1 1.203-.531c.47-.12.992-.18 1.57-.18h1.68Zm8.39 2.883c0-.209-.046-.401-.14-.578-.088-.183-.273-.347-.554-.493-.276-.15-.693-.28-1.25-.39a9.913 9.913 0 0 1-1.274-.352 3.864 3.864 0 0 1-.96-.492c-.261-.193-.462-.42-.602-.68-.14-.26-.211-.565-.211-.914 0-.333.073-.648.218-.945.152-.297.363-.56.633-.789.276-.23.607-.409.992-.54a4.01 4.01 0 0 1 1.29-.194c.677 0 1.255.12 1.734.359.48.24.846.56 1.102.96.255.397.382.837.382 1.321h-1.445c0-.234-.07-.46-.21-.68a1.557 1.557 0 0 0-.603-.554c-.26-.146-.58-.219-.96-.219-.401 0-.727.063-.977.188-.245.12-.425.273-.54.46a1.161 1.161 0 0 0-.085 1.016c.057.12.156.232.297.336.14.1.338.193.594.281.255.089.58.178.976.266.693.156 1.263.344 1.711.563.448.218.781.486 1 .804.219.318.328.703.328 1.156a2.252 2.252 0 0 1-.898 1.813c-.287.219-.63.39-1.031.516-.396.12-.842.18-1.336.18-.745 0-1.375-.134-1.891-.4-.516-.265-.906-.609-1.172-1.03a2.468 2.468 0 0 1-.398-1.336h1.453c.02.395.135.71.344.945.208.23.463.393.765.492.302.094.602.14.899.14.395 0 .726-.051.992-.156.27-.104.476-.247.617-.43.14-.181.21-.39.21-.624Zm6.884-6.211v1.11h-4.57v-1.11h4.57Zm-3.024-2.055h1.446v8.414c0 .287.044.503.132.649a.636.636 0 0 0 .344.289c.14.047.292.07.453.07.12 0 .245-.01.375-.031.136-.026.237-.047.305-.063l.008 1.18c-.115.037-.266.07-.453.102a3.451 3.451 0 0 1-.664.054c-.355 0-.68-.07-.977-.21-.297-.141-.534-.376-.71-.704-.173-.333-.259-.781-.259-1.344v-8.406Zm6.164 3.383V94H73.29v-8.453h1.406l.04 1.328Zm2.641-1.375-.008 1.344a2.081 2.081 0 0 0-.344-.047 3.654 3.654 0 0 0-.359-.016c-.333 0-.627.052-.883.156a1.83 1.83 0 0 0-.648.438 2.106 2.106 0 0 0-.422.672 3.233 3.233 0 0 0-.195.844l-.407.234c0-.51.05-.99.149-1.438.104-.447.263-.843.476-1.187.214-.349.485-.62.813-.813.333-.197.729-.296 1.187-.296.105 0 .224.013.36.039.135.02.229.044.281.07Zm6.008 7.055v-4.352c0-.333-.068-.622-.203-.867a1.329 1.329 0 0 0-.594-.578c-.266-.136-.594-.203-.984-.203a2.31 2.31 0 0 0-.961.187c-.271.125-.485.29-.641.492a1.079 1.079 0 0 0-.227.657h-1.445c0-.303.078-.602.234-.899.157-.297.38-.565.672-.805a3.357 3.357 0 0 1 1.063-.578c.416-.145.88-.218 1.39-.218.615 0 1.157.104 1.626.312.474.209.843.524 1.109.945.27.417.406.94.406 1.57v3.938c0 .281.024.581.07.899.053.317.128.59.227.82V94h-1.508a2.702 2.702 0 0 1-.172-.664 5.35 5.35 0 0 1-.062-.781Zm.25-3.68.015 1.016h-1.46c-.412 0-.78.033-1.102.101a2.52 2.52 0 0 0-.813.29c-.218.13-.385.294-.5.491-.114.193-.171.42-.171.68 0 .266.06.508.18.727.119.218.299.393.538.523.245.125.545.188.899.188.443 0 .833-.094 1.172-.282.338-.187.606-.416.804-.687.203-.271.313-.534.328-.79l.618.696c-.037.219-.136.461-.297.727a3.5 3.5 0 0 1-1.602 1.367 3.106 3.106 0 0 1-1.234.234c-.573 0-1.076-.112-1.508-.336a2.578 2.578 0 0 1-1-.898 2.378 2.378 0 0 1-.352-1.274c0-.453.089-.851.266-1.195.177-.349.432-.638.766-.867a3.64 3.64 0 0 1 1.203-.531c.469-.12.992-.18 1.57-.18h1.68Z" fill="#B6ABFF"/><path d="M296 58c24.5 0 22-31.5 55-31.5M150 58c-24.5 0-22-31.5-55-31.5M296 58c24.5 0 22 31.5 55 31.5M150 58c-24.5 0-22 31.5-55 31.5" stroke="#3F3584"/></svg>