<svg width="49" height="48" fill="none" xmlns="http://www.w3.org/2000/svg"><path d="m24.75 8-14 6 14 6 14-6-14-6Z" stroke="#5346A5" stroke-width="3" stroke-linejoin="round"/><path fill-rule="evenodd" clip-rule="evenodd" d="m17.974 19.272-7.815 3.35a1.5 1.5 0 0 0 0 2.757l14 6a1.5 1.5 0 0 0 1.182 0l14-6a1.5 1.5 0 0 0 0-2.758l-7.815-3.349-3.808 1.632L34.942 24 24.75 28.368 14.558 24l7.224-3.096-3.808-1.632Zm5.077-2.176 1.108-.475a1.5 1.5 0 0 1 1.182 0l1.108.475-1.699.728-1.699-.728Z" fill="#5346A5"/><path fill-rule="evenodd" clip-rule="evenodd" d="m17.974 29.272-7.815 3.35a1.5 1.5 0 0 0 0 2.757l14 6a1.5 1.5 0 0 0 1.182 0l14-6a1.5 1.5 0 0 0 0-2.758l-7.815-3.349-3.808 1.632L34.942 34 24.75 38.368 14.558 34l7.224-3.096-3.808-1.632Zm5.077-2.176 1.108-.475a1.5 1.5 0 0 1 1.182 0l1.108.475-1.699.728-1.699-.728Z" fill="#5346A5"/></svg>