<svg width="103" height="104" fill="none" xmlns="http://www.w3.org/2000/svg"><g clip-path="url('#clip0_296_3137')"><path transform="translate(0 .346)" fill="url('#paint0_linear_296_3137')" d="M0 0h103v103H0z"/><path d="M62.144 60.086v4.12c0 5.493 7.897 7.897 7.897 7.897s-9.098 6.866-18.54 6.866c-9.442 0-18.54-6.866-18.54-6.866s7.959-2.404 7.897-7.897c-.063-5.493-.021-8.72-.063-18.132-4.92-6.378-4.604-10.659-1.914-13.67 9.015-10.085 33.563-6.651 33.563-6.651s2.291 24.717-2.918 31.93c-2.232 3.09-7.382 2.403-7.382 2.403Z" fill="url('#paint1_linear_296_3137')"/><path d="M62.144 60.086c-7.554-.858-12.017-4.12-12.017-4.12a19.873 19.873 0 0 0 12.017 8.24v-4.12Z" fill="#DB6F3D"/><path d="M87.55 82.508c3.27 6.646 5.15 21.974 5.15 21.974H10.3s1.883-15.33 5.15-21.974c3.269-6.644 22.352-12.806 22.352-12.806 3.678 7.55 23.864 7.55 27.388-.003 0 0 19.092 6.163 22.36 12.81Z" fill="url('#paint2_linear_296_3137')"/><mask id="mask0_296_3137" style="mask-type:alpha" maskUnits="userSpaceOnUse" x="10" y="69" width="83" height="36"><path d="M87.55 82.508c3.27 6.646 5.15 21.974 5.15 21.974H10.3s1.883-15.33 5.15-21.974c3.269-6.644 22.352-12.806 22.352-12.806 3.678 7.55 23.864 7.55 27.388-.003 0 0 19.092 6.163 22.36 12.81Z" fill="url('#paint3_linear_296_3137')"/></mask><g mask="url('#mask0_296_3137')"><path d="M6.867 99.226V96.48h89.267v2.747H6.867Zm0-6.867v-2.746h89.267v2.746H6.867Zm0-6.866v-2.747h89.267v2.747H6.867Z" fill="#FFA789"/></g><path d="M45.03 35.781c-1.091-.938-2.418-1.57-4.293-.595-4.446 2.309-1.081 11.167 2.867 11.167 1.03 0 1.542 3.234-3.044 5.493 0-3.605-5.493-12.532-5.974-20.66-5.527-2.058-4.154-10.293-.36-10.293-.605-7.55 11.484-11.449 16.165-7.116 4.761-5.706 16.778-2.788 17.503 2.162 8.263-4.41 13.695 8.269 5.958 13.19-3.184 2.026-10.632 2.797-21.383 2.797-1.622 0-2.532.403-2.078 2.41.879 3.889-1.16 6.338-5.36 1.445Z" fill="url('#paint4_linear_296_3137')"/></g><defs><linearGradient id="paint0_linear_296_3137" x1="51.5" y1="0" x2="51.5" y2="103" gradientUnits="userSpaceOnUse"><stop stop-color="#2C315B"/><stop offset="1" stop-color="#2A2F5A"/></linearGradient><linearGradient id="paint1_linear_296_3137" x1="52.953" y1="25.189" x2="52.953" y2="78.969" gradientUnits="userSpaceOnUse"><stop stop-color="#E6864E"/><stop offset="1" stop-color="#EB965E"/></linearGradient><linearGradient id="paint2_linear_296_3137" x1="51.501" y1="104.482" x2="51.501" y2="69.699" gradientUnits="userSpaceOnUse"><stop stop-color="#FFC9B3"/><stop offset="1" stop-color="#FFD2C2"/></linearGradient><linearGradient id="paint3_linear_296_3137" x1="51.501" y1="104.482" x2="51.501" y2="69.699" gradientUnits="userSpaceOnUse"><stop stop-color="#FFC9B3"/><stop offset="1" stop-color="#FFD2C2"/></linearGradient><linearGradient id="paint4_linear_296_3137" x1="54.242" y1="10.645" x2="54.242" y2="51.846" gradientUnits="userSpaceOnUse"><stop stop-color="#1D0024"/><stop offset="1" stop-color="#100014"/></linearGradient><clipPath id="clip0_296_3137"><path fill="#fff" transform="translate(0 .346)" d="M0 0h103v103H0z"/></clipPath></defs></svg>