<svg width="387" height="155" fill="none" xmlns="http://www.w3.org/2000/svg"><path d="M38.4 18.481h12.96v56H38.4v-56Zm-25.44 56H0v-56h12.96v56Zm25.44-22.96H12.96v-10.96H38.4v10.96Z" fill="url('#paint0_linear_226_2260')"/><path d="m76.209 47.408-12.48 20.446V31.441h12.48v15.967Z" fill="url('#paint1_linear_226_2260')"/><path d="M64.369 23.441c1.44 1.333 3.307 2 5.6 2 2.347 0 4.213-.667 5.6-2 1.44-1.387 2.16-3.12 2.16-5.2 0-1.973-.72-3.573-2.16-4.8-1.44-1.28-3.307-1.92-5.6-1.92-2.293 0-4.16.667-5.6 2-1.44 1.333-2.16 2.987-2.16 4.96 0 1.973.72 3.627 2.16 4.96Z" fill="url('#paint2_linear_226_2260')"/><path d="M368.427 95.801c3.413 0 6.453.693 9.12 2.08 2.72 1.333 4.853 3.413 6.4 6.24 1.546 2.773 2.32 6.347 2.32 10.72v24.64h-12.48v-22.72c0-3.467-.774-6.027-2.32-7.68-1.494-1.653-3.627-2.48-6.4-2.48-1.974 0-3.76.427-5.36 1.28-1.547.8-2.774 2.053-3.68 3.76-.854 1.707-1.28 3.893-1.28 6.56v21.28h-12.48v-59.36h12.48v28.24-7.192c1.753-1.648 2.253-2.148 3.84-3.048 2.88-1.547 6.16-2.32 9.84-2.32Z" fill="url('#paint3_linear_226_2260')"/><path d="M312.472 140.121c-3.786 0-7.04-.8-9.76-2.4-1.498-.881-2.712-1.7-3.76-3.2-.008-4.267.4-11.547.4-16.56.133-12.292.115-12.416.138-16.916.988-1 2.01-2.024 3.462-2.844 2.72-1.6 5.894-2.4 9.52-2.4 4.054 0 7.68.907 10.88 2.72 3.254 1.813 5.814 4.373 7.68 7.68 1.92 3.307 2.88 7.227 2.88 11.76 0 4.48-.96 8.373-2.88 11.68-1.866 3.307-4.426 5.893-7.68 7.76-3.2 1.813-6.826 2.72-10.88 2.72Zm-25.44-.64v-59.36h12.48l-.047 26.08-.113 11.76-.4 16.56v4.96h-11.92Zm23.28-9.6c2.08 0 3.92-.48 5.52-1.44 1.654-.96 2.96-2.32 3.92-4.08 1.014-1.813 1.52-3.947 1.52-6.4 0-2.507-.506-4.64-1.52-6.4-.96-1.76-2.266-3.12-3.92-4.08-1.6-.96-3.44-1.44-5.52-1.44-2.08 0-3.946.48-5.6 1.44-1.653.96-2.96 2.32-3.92 4.08-.96 1.76-1.44 3.893-1.44 6.4 0 2.453.48 4.587 1.44 6.4.96 1.76 2.267 3.12 3.92 4.08 1.654.96 3.52 1.44 5.6 1.44Z" fill="url('#paint4_linear_226_2260')"/><path d="M262.97 139.481v-43.04h12.48v43.04h-12.48Zm6.24-49.04c-2.294 0-4.16-.667-5.6-2-1.44-1.333-2.16-2.987-2.16-4.96 0-1.973.72-3.627 2.16-4.96 1.44-1.333 3.306-2 5.6-2 2.293 0 4.16.64 5.6 1.92 1.44 1.227 2.16 2.827 2.16 4.8 0 2.08-.72 3.813-2.16 5.2-1.387 1.333-3.254 2-5.6 2Z" fill="url('#paint5_linear_226_2260')"/><path d="M228.751 139.481v-43.04h11.92v12.16-6.276c1.829-2.304 1.961-2.698 4.48-4.124 2.827-1.6 6.267-2.4 10.32-2.4v11.52a14.701 14.701 0 0 0-1.44-.08c-.427-.053-.88-.08-1.36-.08-3.413 0-6.187.987-8.32 2.96-2.08 1.92-3.12 4.933-3.12 9.04v20.32h-12.48Z" fill="url('#paint6_linear_226_2260')"/><path d="M196.67 140.441c-3.787 0-7.28-.693-10.48-2.08-3.147-1.44-5.734-3.467-7.76-6.08l7.2-8.64c1.546 2.027 3.173 3.573 4.88 4.64a10.625 10.625 0 0 0 5.52 1.52c5.28 0 7.92-3.093 7.92-9.28v-26.64h-19.68v-10.4h32.56v36.32c0 6.933-1.707 12.107-5.12 15.52-3.414 3.413-8.427 5.12-15.04 5.12Z" fill="url('#paint7_linear_226_2260')"/><path d="M134.027 95.801c3.414 0 6.427.693 9.04 2.08 2.667 1.333 4.747 3.413 6.24 6.24 1.547 2.773 2.32 6.347 2.32 10.72v24.64h-12.48v-22.72c0-3.467-.72-6.027-2.16-7.68-1.44-1.653-3.466-2.48-6.08-2.48-1.813 0-3.44.427-4.88 1.28-1.44.8-2.56 2.027-3.36 3.68-.8 1.653-1.2 3.76-1.2 6.32v21.6h-12.48v-22.72c0-3.467-.72-6.027-2.16-7.68-1.386-1.653-3.386-2.48-6-2.48-1.813 0-3.44.427-4.88 1.28-1.44.8-2.56 2.027-3.36 3.68-.8 1.653-1.2 3.76-1.2 6.32v21.6h-12.48v-43.04h11.92v4.966c1.673-1.886 1.673-1.886 4.08-3.286 2.774-1.547 5.92-2.32 9.44-2.32 3.947 0 7.387 1.013 10.32 3.04 2.333 1.612 2.333 1.68 3.833 3.937 2-2.257 2.266-2.598 4.567-4.017 3.2-1.973 6.854-2.96 10.96-2.96Z" fill="url('#paint8_linear_226_2260')"/><path d="m55.81 106.681 5.28-19.2-1.799 6.54c-1.291-.5-1.291-.5-2.121-1.26-1.44-1.387-2.16-3.253-2.16-5.6 0-2.293.746-4.133 2.24-5.52 1.493-1.44 3.333-2.16 5.52-2.16 2.24 0 4.08.72 5.52 2.16 1.44 1.387 2.16 3.227 2.16 5.52 0 .693-.054 1.387-.16 2.08-.054.64-.24 1.413-.56 2.32-.267.907-.72 2.107-1.36 3.6l-4.64 11.52h-7.92Z" fill="url('#paint9_linear_226_2260')"/><path d="M32.6 120.773 45.56 99.54v39.941H32.6v-18.708Z" fill="url('#paint10_linear_226_2260')"/><path fill-rule="evenodd" clip-rule="evenodd" d="m106 .521-94 154-.854-.521 94-154 .854.521Z" fill="url('#paint11_linear_226_2260')"/><defs><linearGradient id="paint0_linear_226_2260" x1="305.618" y1="154.619" x2="82.284" y2="-132.665" gradientUnits="userSpaceOnUse"><stop stop-color="#8473F4"/><stop offset="1" stop-color="#5346A5" stop-opacity=".26"/></linearGradient><linearGradient id="paint1_linear_226_2260" x1="305.618" y1="154.619" x2="82.284" y2="-132.665" gradientUnits="userSpaceOnUse"><stop stop-color="#8473F4"/><stop offset="1" stop-color="#5346A5" stop-opacity=".26"/></linearGradient><linearGradient id="paint2_linear_226_2260" x1="305.618" y1="154.619" x2="82.284" y2="-132.665" gradientUnits="userSpaceOnUse"><stop stop-color="#8473F4"/><stop offset="1" stop-color="#5346A5" stop-opacity=".26"/></linearGradient><linearGradient id="paint3_linear_226_2260" x1="366.862" y1="197.019" x2="-12.869" y2="160.201" gradientUnits="userSpaceOnUse"><stop stop-color="#8574F5"/><stop offset="1" stop-color="#7D6DE2" stop-opacity=".15"/></linearGradient><linearGradient id="paint4_linear_226_2260" x1="366.862" y1="197.019" x2="-12.869" y2="160.201" gradientUnits="userSpaceOnUse"><stop stop-color="#8574F5"/><stop offset="1" stop-color="#7D6DE2" stop-opacity=".15"/></linearGradient><linearGradient id="paint5_linear_226_2260" x1="366.862" y1="197.019" x2="-12.869" y2="160.201" gradientUnits="userSpaceOnUse"><stop stop-color="#8574F5"/><stop offset="1" stop-color="#7D6DE2" stop-opacity=".15"/></linearGradient><linearGradient id="paint6_linear_226_2260" x1="366.862" y1="197.019" x2="-12.869" y2="160.201" gradientUnits="userSpaceOnUse"><stop stop-color="#8574F5"/><stop offset="1" stop-color="#7D6DE2" stop-opacity=".15"/></linearGradient><linearGradient id="paint7_linear_226_2260" x1="366.862" y1="197.019" x2="-12.869" y2="160.201" gradientUnits="userSpaceOnUse"><stop stop-color="#8574F5"/><stop offset="1" stop-color="#7D6DE2" stop-opacity=".15"/></linearGradient><linearGradient id="paint8_linear_226_2260" x1="366.862" y1="197.019" x2="-12.869" y2="160.201" gradientUnits="userSpaceOnUse"><stop stop-color="#8574F5"/><stop offset="1" stop-color="#7D6DE2" stop-opacity=".15"/></linearGradient><linearGradient id="paint9_linear_226_2260" x1="366.862" y1="197.019" x2="-12.869" y2="160.201" gradientUnits="userSpaceOnUse"><stop stop-color="#8574F5"/><stop offset="1" stop-color="#7D6DE2" stop-opacity=".15"/></linearGradient><linearGradient id="paint10_linear_226_2260" x1="366.862" y1="197.019" x2="-12.869" y2="160.201" gradientUnits="userSpaceOnUse"><stop stop-color="#8574F5"/><stop offset="1" stop-color="#7D6DE2" stop-opacity=".15"/></linearGradient><linearGradient id="paint11_linear_226_2260" x1="106" y1=".521" x2="12.083" y2="152.781" gradientUnits="userSpaceOnUse"><stop stop-color="#5346A5" stop-opacity="0"/><stop offset=".497" stop-color="#5346A5"/><stop offset="1" stop-color="#5346A5" stop-opacity="0"/></linearGradient></defs></svg>