<svg width="49" height="49" fill="none" xmlns="http://www.w3.org/2000/svg"><path d="M10.8 25.865c0-2.716 0-4.073.55-5.267.549-1.193 1.58-2.077 3.641-3.844l2-1.715c3.727-3.194 5.59-4.791 7.81-4.791 2.22 0 4.083 1.597 7.81 4.791l2 1.715c2.061 1.767 3.092 2.65 3.64 3.844.55 1.194.55 2.551.55 5.267v8.48c0 3.772 0 5.657-1.172 6.829-1.171 1.172-3.057 1.172-6.828 1.172h-12c-3.771 0-5.657 0-6.829-1.172-1.171-1.172-1.171-3.057-1.171-6.828v-8.481Z" stroke="#5346A5" stroke-width="3"/><path d="M29.8 42.346v-11a1 1 0 0 0-1-1h-8a1 1 0 0 0-1 1v11" stroke="#5346A5" stroke-width="3" stroke-linecap="round" stroke-linejoin="round"/></svg>