<svg width="49" height="48" fill="none" xmlns="http://www.w3.org/2000/svg"><path fill-rule="evenodd" clip-rule="evenodd" d="M5.672 5.171C4.5 6.343 4.5 8.23 4.5 12v24c0 3.771 0 5.657 1.172 6.828C6.843 44 8.729 44 12.5 44h24c3.771 0 5.657 0 6.828-1.172C44.5 41.657 44.5 39.771 44.5 36V12c0-2.84 0-4.61-.5-5.812V34c-1.553 0-2.33 0-3.035-.277l-.037-.015c-.702-.284-1.266-.818-2.393-1.886l-3.395-3.216c-1.303-1.234-1.954-1.851-2.751-1.851-.797 0-1.448.617-2.751 1.851l-3.654 3.462c-.93.88-1.394 1.32-1.9 1.221-.506-.1-.77-.683-1.298-1.849l-2.859-6.32c-1.055-2.333-1.583-3.5-2.595-3.698-1.012-.2-1.941.681-3.8 2.442L6 31V4.887c-.116.086-.225.18-.328.284Z" fill="#5346A5"/><path d="M6 12c0-1.928.003-3.223.133-4.19.124-.922.339-1.317.6-1.578.26-.26.655-.475 1.578-.599.966-.13 2.261-.133 4.189-.133h24c1.928 0 3.223.003 4.19.133.922.124 1.317.339 1.578.6.26.26.475.655.599 1.578.13.966.133 2.261.133 4.189v24c0 1.928-.003 3.223-.133 4.19-.124.922-.339 1.317-.6 1.578-.26.26-.655.475-1.578.599-.966.13-2.261.133-4.189.133h-24c-1.928 0-3.223-.003-4.19-.133-.922-.124-1.317-.339-1.578-.6-.26-.26-.475-.655-.599-1.578C6.003 39.223 6 37.928 6 36V12Z" stroke="#5346A5" stroke-width="3"/><circle cx="30.5" cy="18" r="4" fill="#5346A5"/></svg>