<svg width="910" height="170" fill="none" xmlns="http://www.w3.org/2000/svg"><path d="M35.258 32.516v1.226h-6.156v-1.226h6.156Zm-5.922-4.891V39h-1.508V27.625h1.508Zm7.234 0V39h-1.5V27.625h1.5Zm7.446 9.93v-4.352c0-.333-.068-.622-.203-.867a1.33 1.33 0 0 0-.594-.578c-.266-.136-.594-.203-.985-.203a2.31 2.31 0 0 0-.96.187c-.271.125-.485.29-.641.492a1.079 1.079 0 0 0-.227.657h-1.445c0-.302.078-.602.234-.899.157-.297.38-.565.672-.805a3.358 3.358 0 0 1 1.063-.578c.416-.146.88-.218 1.39-.218.615 0 1.157.104 1.625.312.474.209.844.524 1.11.945.27.417.406.94.406 1.57v3.938c0 .282.023.581.07.899.052.317.128.59.227.82V39H44.25a2.702 2.702 0 0 1-.172-.664 5.364 5.364 0 0 1-.062-.781Zm.25-3.68.015 1.016h-1.46c-.412 0-.78.034-1.102.101a2.52 2.52 0 0 0-.813.29c-.218.13-.385.294-.5.491-.114.193-.172.42-.172.68 0 .266.06.508.18.727.12.218.3.393.54.523.244.125.543.188.898.188.442 0 .833-.094 1.171-.282.339-.187.607-.416.805-.687.203-.271.313-.534.328-.79l.617.696c-.036.219-.135.461-.296.727a3.5 3.5 0 0 1-1.602 1.367 3.106 3.106 0 0 1-1.234.234c-.573 0-1.076-.112-1.508-.336a2.578 2.578 0 0 1-1-.898 2.378 2.378 0 0 1-.352-1.274c0-.453.089-.851.266-1.195.177-.349.432-.638.766-.867a3.64 3.64 0 0 1 1.203-.531c.468-.12.992-.18 1.57-.18h1.68Zm5.914 3.82 2.312-7.148h1.477L50.929 39h-.968l.219-1.305Zm-1.93-7.148 2.383 7.187.164 1.266h-.969l-3.062-8.453h1.484Zm8.68 0V39h-1.453v-8.453h1.453Zm-1.563-2.242c0-.235.07-.433.211-.594.146-.162.36-.242.64-.242.277 0 .488.08.634.242.15.161.226.36.226.594a.817.817 0 0 1-.226.578c-.146.156-.357.234-.633.234-.282 0-.495-.078-.64-.234a.85.85 0 0 1-.212-.578Zm5.328 4.047V39H59.25v-8.453h1.367l.078 1.805Zm-.343 2.101-.602-.023a5.084 5.084 0 0 1 .258-1.602c.166-.495.4-.924.703-1.289a3.132 3.132 0 0 1 2.477-1.148c.416 0 .791.057 1.124.172.334.109.618.286.852.53.24.245.422.563.547.954.125.385.187.857.187 1.414V39h-1.453v-5.555c0-.442-.065-.797-.195-1.062-.13-.271-.32-.466-.57-.586-.25-.125-.558-.188-.922-.188-.36 0-.688.076-.985.227-.291.151-.544.36-.757.625-.209.266-.373.57-.493.914a3.342 3.342 0 0 0-.171 1.078Zm13.218-3.906h1.313v8.273c0 .745-.151 1.38-.453 1.907a2.953 2.953 0 0 1-1.266 1.195c-.536.276-1.156.414-1.86.414-.291 0-.635-.047-1.03-.14a4.16 4.16 0 0 1-1.157-.462 2.889 2.889 0 0 1-.945-.867l.758-.86c.354.428.724.725 1.11.891.39.167.775.25 1.155.25.459 0 .855-.086 1.188-.257.333-.172.591-.427.773-.766.188-.333.281-.745.281-1.234v-6.485l.133-1.86Zm-5.82 4.32v-.164c0-.646.076-1.232.227-1.758.156-.53.377-.987.664-1.367a2.982 2.982 0 0 1 2.445-1.187c.531 0 .995.093 1.39.28.402.183.74.451 1.016.806.281.349.503.77.664 1.265.162.495.274 1.055.336 1.68v.719a7.36 7.36 0 0 1-.336 1.672 3.943 3.943 0 0 1-.664 1.265 2.78 2.78 0 0 1-1.015.805c-.401.182-.87.273-1.407.273a2.94 2.94 0 0 1-1.375-.32 3.132 3.132 0 0 1-1.047-.898 4.255 4.255 0 0 1-.671-1.36 6.175 6.175 0 0 1-.227-1.71Zm1.445-.164v.164c0 .422.042.818.125 1.188.089.37.222.695.399.976.182.282.414.503.695.664.281.157.617.235 1.008.235.479 0 .875-.102 1.187-.305.313-.203.56-.471.743-.805.187-.333.333-.695.437-1.086v-1.882a3.84 3.84 0 0 0-.266-.829 2.548 2.548 0 0 0-.453-.718 1.958 1.958 0 0 0-.68-.508 2.255 2.255 0 0 0-.953-.188c-.395 0-.736.084-1.023.25a1.992 1.992 0 0 0-.695.672c-.177.282-.31.61-.399.985-.083.37-.125.765-.125 1.187Zm16.836 2.852v-4.352c0-.333-.068-.622-.203-.867a1.33 1.33 0 0 0-.594-.578c-.265-.136-.593-.203-.984-.203-.365 0-.685.062-.96.187-.272.125-.485.29-.642.492a1.078 1.078 0 0 0-.226.657h-1.445c0-.302.078-.602.234-.899.156-.297.38-.565.672-.805a3.359 3.359 0 0 1 1.062-.578c.417-.146.88-.218 1.39-.218.616 0 1.157.104 1.626.312.474.209.844.524 1.11.945.27.417.406.94.406 1.57v3.938c0 .282.023.581.07.899.052.317.127.59.226.82V39h-1.507a2.698 2.698 0 0 1-.172-.664 5.35 5.35 0 0 1-.063-.781Zm.25-3.68.016 1.016h-1.461c-.412 0-.779.034-1.102.101a2.52 2.52 0 0 0-.812.29c-.219.13-.385.294-.5.491-.115.193-.172.42-.172.68 0 .266.06.508.18.727.12.218.3.393.539.523.245.125.544.188.898.188a2.38 2.38 0 0 0 1.172-.282c.339-.187.607-.416.805-.687.203-.271.312-.534.328-.79l.617.696a2.1 2.1 0 0 1-.297.727 3.502 3.502 0 0 1-1.602 1.367 3.106 3.106 0 0 1-1.234.234c-.573 0-1.075-.112-1.508-.336a2.578 2.578 0 0 1-1-.898 2.379 2.379 0 0 1-.351-1.274c0-.453.088-.851.266-1.195.177-.349.432-.638.765-.867a3.64 3.64 0 0 1 1.203-.531c.469-.12.992-.18 1.57-.18h1.68Zm4.914-1.523V39H89.75v-8.453h1.367l.078 1.805Zm-.343 2.101-.602-.023a5.084 5.084 0 0 1 .258-1.602c.166-.495.4-.924.703-1.289a3.132 3.132 0 0 1 2.477-1.148c.416 0 .791.057 1.124.172.334.109.618.286.852.53.24.245.422.563.547.954.125.385.187.857.187 1.414V39h-1.453v-5.555c0-.442-.065-.797-.195-1.062-.13-.271-.32-.466-.57-.586-.25-.125-.558-.188-.922-.188-.36 0-.688.076-.985.227-.291.151-.544.36-.757.625-.209.266-.373.57-.493.914a3.342 3.342 0 0 0-.171 1.078Zm-69.11 22.102v-4.352c0-.333-.068-.622-.203-.867a1.33 1.33 0 0 0-.594-.578c-.265-.136-.593-.203-.984-.203a2.31 2.31 0 0 0-.961.187c-.27.125-.484.29-.64.492a1.078 1.078 0 0 0-.227.657h-1.445c0-.302.078-.602.234-.899.156-.297.38-.565.672-.804a3.357 3.357 0 0 1 1.062-.579c.417-.145.88-.218 1.39-.218.616 0 1.157.104 1.626.312.474.208.844.524 1.11.945.27.417.405.94.405 1.57v3.938c0 .282.024.581.07.899.053.317.128.59.227.82V58h-1.507a2.698 2.698 0 0 1-.172-.664 5.35 5.35 0 0 1-.063-.781Zm.25-3.68.016 1.016h-1.461c-.412 0-.779.034-1.102.101a2.52 2.52 0 0 0-.812.29c-.219.13-.386.294-.5.491-.115.193-.172.42-.172.68 0 .266.06.508.18.727.12.218.3.393.539.523.244.125.544.188.898.188.443 0 .834-.094 1.172-.282a2.44 2.44 0 0 0 .805-.687c.203-.271.312-.534.328-.79l.617.696a2.098 2.098 0 0 1-.297.727 3.5 3.5 0 0 1-1.601 1.367 3.106 3.106 0 0 1-1.235.234c-.573 0-1.075-.112-1.508-.336a2.578 2.578 0 0 1-1-.898 2.378 2.378 0 0 1-.351-1.274c0-.453.088-.851.265-1.195.178-.349.433-.638.766-.867a3.638 3.638 0 0 1 1.203-.531c.469-.12.992-.18 1.57-.18h1.68ZM25.453 46h1.453v10.36L26.781 58h-1.328V46Zm7.164 7.703v.164c0 .615-.073 1.185-.219 1.711-.145.521-.359.974-.64 1.36a2.984 2.984 0 0 1-1.031.898c-.407.214-.873.32-1.399.32-.536 0-1.008-.09-1.414-.273a2.78 2.78 0 0 1-1.016-.805 4.159 4.159 0 0 1-.664-1.266 7.973 7.973 0 0 1-.336-1.671v-.72a7.982 7.982 0 0 1 .336-1.679c.167-.495.388-.916.664-1.265a2.675 2.675 0 0 1 1.016-.805c.401-.188.867-.281 1.398-.281.532 0 1.003.104 1.415.312a2.78 2.78 0 0 1 1.03.875c.282.38.496.836.641 1.367.146.526.22 1.112.22 1.758Zm-1.453.164v-.164c0-.422-.039-.818-.117-1.187a3.075 3.075 0 0 0-.375-.985 1.868 1.868 0 0 0-.68-.672c-.281-.166-.627-.25-1.039-.25-.364 0-.682.063-.953.188a2.06 2.06 0 0 0-.68.508 2.695 2.695 0 0 0-.46.718 4.13 4.13 0 0 0-.258.829v1.882c.083.365.218.716.406 1.055.193.333.448.607.765.82.323.214.722.32 1.196.32.39 0 .724-.077 1-.234.281-.161.508-.383.68-.664.177-.281.307-.606.39-.976.083-.37.125-.766.125-1.188Zm8.203 1.89c0-.207-.047-.4-.14-.577-.089-.183-.274-.347-.555-.492-.276-.152-.693-.282-1.25-.391a9.91 9.91 0 0 1-1.274-.352 3.861 3.861 0 0 1-.96-.492c-.26-.193-.461-.42-.602-.68-.14-.26-.211-.565-.211-.914 0-.333.073-.648.219-.945.15-.297.362-.56.633-.789.276-.23.606-.409.992-.54a4.01 4.01 0 0 1 1.289-.194c.677 0 1.255.12 1.734.359.48.24.847.56 1.102.96.255.397.383.837.383 1.321H39.28c0-.234-.07-.46-.21-.68a1.556 1.556 0 0 0-.602-.554c-.26-.146-.581-.219-.961-.219-.401 0-.727.063-.977.188-.245.12-.424.273-.539.46a1.16 1.16 0 0 0-.086 1.016c.058.12.157.232.297.336.14.1.339.193.594.281.255.089.58.177.976.266.693.156 1.263.344 1.711.563.448.218.782.486 1 .804.22.318.328.703.328 1.156a2.251 2.251 0 0 1-.898 1.813 3.3 3.3 0 0 1-1.031.516c-.396.12-.841.18-1.336.18-.745 0-1.375-.134-1.89-.4-.516-.265-.907-.609-1.173-1.03a2.468 2.468 0 0 1-.398-1.336h1.453c.02.395.136.71.344.945.208.23.463.393.765.492.302.094.602.14.899.14.396 0 .726-.051.992-.156.27-.104.477-.247.617-.43a.995.995 0 0 0 .211-.624Zm6.883-6.21v1.11h-4.57v-1.11h4.57Zm-3.023-2.055h1.445v8.414c0 .287.044.503.133.649a.635.635 0 0 0 .343.289c.141.047.292.07.454.07.12 0 .244-.01.375-.031.135-.026.237-.047.304-.063L46.29 58a3.38 3.38 0 0 1-.453.102 3.45 3.45 0 0 1-.664.054c-.354 0-.68-.07-.977-.21-.297-.141-.534-.376-.71-.704-.172-.333-.258-.781-.258-1.344v-8.406Zm6.164 3.383V58h-1.446v-8.453h1.407l.039 1.328Zm2.64-1.375-.008 1.344a2.08 2.08 0 0 0-.343-.047 3.658 3.658 0 0 0-.36-.016c-.333 0-.627.052-.883.157-.255.104-.47.25-.648.437a2.106 2.106 0 0 0-.422.672 3.225 3.225 0 0 0-.195.844l-.406.234c0-.51.05-.99.148-1.438.104-.447.263-.843.477-1.187.213-.349.484-.62.812-.813.333-.197.73-.296 1.188-.296.104 0 .224.013.359.039.135.02.23.044.281.07Zm6.008 7.055v-4.352c0-.333-.068-.622-.203-.867a1.33 1.33 0 0 0-.594-.578c-.265-.136-.594-.203-.984-.203-.365 0-.685.062-.961.187-.271.125-.484.29-.64.492a1.078 1.078 0 0 0-.227.657h-1.446c0-.302.078-.602.235-.899.156-.297.38-.565.672-.804a3.359 3.359 0 0 1 1.062-.579c.417-.145.88-.218 1.39-.218.615 0 1.157.104 1.626.312.474.208.843.524 1.11.945.27.417.405.94.405 1.57v3.938c0 .282.024.581.07.899.053.317.128.59.227.82V58h-1.508a2.698 2.698 0 0 1-.171-.664 5.35 5.35 0 0 1-.063-.781Zm.25-3.68.016 1.016h-1.461c-.412 0-.779.034-1.102.101a2.52 2.52 0 0 0-.812.29c-.22.13-.386.294-.5.491-.115.193-.172.42-.172.68 0 .266.06.508.18.727.12.218.299.393.539.523.244.125.544.188.898.188a2.38 2.38 0 0 0 1.172-.282c.338-.187.607-.416.805-.687.203-.271.312-.534.328-.79l.617.696a2.098 2.098 0 0 1-.297.727 3.502 3.502 0 0 1-1.602 1.367 3.105 3.105 0 0 1-1.234.234c-.573 0-1.075-.112-1.508-.336a2.578 2.578 0 0 1-1-.898 2.379 2.379 0 0 1-.351-1.274c0-.453.088-.851.265-1.195.177-.349.433-.638.766-.867a3.64 3.64 0 0 1 1.203-.531c.469-.12.992-.18 1.57-.18h1.68Zm6.852 4.094c.343 0 .661-.07.953-.211.291-.14.531-.334.719-.578a1.61 1.61 0 0 0 .32-.852h1.375c-.026.5-.195.966-.508 1.399-.307.427-.71.773-1.21 1.039-.5.26-1.05.39-1.65.39-.635 0-1.19-.112-1.663-.336a3.297 3.297 0 0 1-1.172-.922 4.117 4.117 0 0 1-.696-1.343 5.669 5.669 0 0 1-.226-1.617v-.329c0-.567.075-1.104.226-1.609.157-.51.388-.96.696-1.352.312-.39.703-.698 1.172-.921.474-.224 1.028-.336 1.664-.336.661 0 1.24.135 1.734.406.495.266.883.63 1.164 1.094.287.458.443.979.469 1.562h-1.375a2.082 2.082 0 0 0-.297-.945 1.85 1.85 0 0 0-.688-.672 1.922 1.922 0 0 0-1.007-.258c-.443 0-.816.089-1.118.266a1.957 1.957 0 0 0-.71.703 3.28 3.28 0 0 0-.376.976c-.072.355-.109.717-.109 1.086v.328c0 .37.037.735.11 1.094.072.36.195.685.367.977.177.291.414.526.71.703.303.172.678.258 1.126.258Zm8.53-7.422v1.11h-4.57v-1.11h4.57Zm-3.023-2.055h1.446v8.414c0 .287.044.503.133.649a.635.635 0 0 0 .343.289c.14.047.292.07.453.07.12 0 .245-.01.375-.031.136-.026.237-.047.305-.063l.008 1.18c-.115.036-.266.07-.453.102a3.45 3.45 0 0 1-.664.054c-.354 0-.68-.07-.977-.21-.297-.141-.534-.376-.71-.704-.173-.333-.259-.781-.259-1.344v-8.406Zm10.258 2.055V58h-1.453v-8.453h1.453Zm-1.562-2.242c0-.235.07-.433.21-.594.147-.161.36-.242.641-.242.276 0 .487.08.633.242.151.161.227.36.227.594a.817.817 0 0 1-.227.578c-.146.156-.357.234-.633.234-.28 0-.494-.078-.64-.234a.85.85 0 0 1-.211-.578Zm9.21 9.054V46h1.454v12H88.68l-.125-1.64Zm-5.687-2.492v-.164c0-.646.078-1.232.235-1.758.161-.53.388-.987.68-1.367.296-.38.648-.672 1.054-.875a3 3 0 0 1 1.375-.312c.531 0 .995.093 1.39.28.402.183.74.451 1.016.806.281.349.503.77.664 1.265.162.495.274 1.055.336 1.68v.719a7.36 7.36 0 0 1-.336 1.672 3.943 3.943 0 0 1-.664 1.265 2.78 2.78 0 0 1-1.015.805c-.401.182-.87.273-1.407.273-.494 0-.948-.106-1.36-.32a3.209 3.209 0 0 1-1.054-.898 4.378 4.378 0 0 1-.68-1.36 5.983 5.983 0 0 1-.234-1.71Zm1.453-.164v.164c0 .422.042.818.125 1.188.089.37.224.695.407.976.182.282.414.503.695.664.281.157.617.235 1.008.235.479 0 .872-.102 1.18-.305.312-.203.562-.471.75-.805.187-.333.333-.695.437-1.086v-1.882a4.173 4.173 0 0 0-.274-.829 2.548 2.548 0 0 0-.453-.718 1.958 1.958 0 0 0-.68-.508 2.202 2.202 0 0 0-.945-.188c-.395 0-.737.084-1.023.25a1.993 1.993 0 0 0-.695.672c-.183.282-.318.61-.407.985-.083.37-.125.765-.125 1.187Zm11.446 4.453a4.158 4.158 0 0 1-1.602-.297 3.631 3.631 0 0 1-1.227-.851 3.789 3.789 0 0 1-.78-1.297 4.758 4.758 0 0 1-.274-1.64v-.329c0-.687.101-1.3.305-1.836.203-.541.479-1 .828-1.375a3.548 3.548 0 0 1 1.187-.851c.443-.193.901-.29 1.375-.29.604 0 1.125.105 1.563.313.442.208.804.5 1.086.875.28.37.49.807.625 1.313.135.5.203 1.047.203 1.64v.649h-6.313V53h4.867v-.11a3.607 3.607 0 0 0-.234-1.093 1.965 1.965 0 0 0-.625-.875c-.287-.23-.677-.344-1.172-.344a1.966 1.966 0 0 0-1.617.82 3.07 3.07 0 0 0-.461.993c-.11.39-.164.84-.164 1.351v.328c0 .401.055.779.164 1.133.115.35.279.656.492.922.219.266.482.474.79.625.312.151.666.227 1.062.227.51 0 .943-.105 1.297-.313.354-.208.664-.487.93-.836l.874.695c-.182.276-.414.54-.695.79-.281.25-.628.453-1.04.609-.405.156-.887.234-1.444.234Zm9.961-1.601v-4.352c0-.333-.068-.622-.204-.867a1.33 1.33 0 0 0-.593-.578c-.266-.136-.594-.203-.985-.203-.364 0-.685.062-.961.187-.27.125-.484.29-.64.492a1.08 1.08 0 0 0-.227.657h-1.445c0-.302.078-.602.234-.899a2.62 2.62 0 0 1 .672-.804 3.356 3.356 0 0 1 1.063-.579c.416-.145.88-.218 1.39-.218.615 0 1.157.104 1.625.312.474.208.844.524 1.11.945.27.417.406.94.406 1.57v3.938c0 .282.023.581.07.899.052.317.128.59.227.82V58h-1.508a2.71 2.71 0 0 1-.172-.664 5.304 5.304 0 0 1-.062-.781Zm.25-3.68.015 1.016h-1.461c-.411 0-.778.034-1.101.101a2.524 2.524 0 0 0-.813.29c-.219.13-.385.294-.5.491a1.31 1.31 0 0 0-.172.68c0 .266.06.508.18.727.12.218.299.393.539.523.245.125.544.188.898.188.443 0 .834-.094 1.172-.282.339-.187.607-.416.805-.687.203-.271.313-.534.328-.79l.617.696c-.036.219-.135.461-.296.727a3.489 3.489 0 0 1-1.602 1.367 3.107 3.107 0 0 1-1.234.234c-.573 0-1.076-.112-1.508-.336a2.574 2.574 0 0 1-1-.898 2.373 2.373 0 0 1-.352-1.274c0-.453.089-.851.266-1.195.177-.349.432-.638.765-.867a3.648 3.648 0 0 1 1.204-.531 6.34 6.34 0 0 1 1.57-.18h1.68ZM265.289 35.383h1.5a4.787 4.787 0 0 1-.617 1.93 3.609 3.609 0 0 1-1.414 1.351c-.61.328-1.37.492-2.281.492a4.33 4.33 0 0 1-1.821-.375 4.044 4.044 0 0 1-1.398-1.062 4.957 4.957 0 0 1-.906-1.664c-.209-.651-.313-1.375-.313-2.172V32.75c0-.797.104-1.518.313-2.164a4.873 4.873 0 0 1 .914-1.672c.401-.463.882-.82 1.445-1.07.562-.25 1.195-.375 1.898-.375.86 0 1.586.161 2.18.484.594.323 1.055.771 1.383 1.344.333.568.539 1.226.617 1.976h-1.5c-.073-.53-.208-.986-.406-1.367a2.11 2.11 0 0 0-.844-.89c-.365-.209-.841-.313-1.43-.313-.505 0-.95.096-1.336.29-.38.192-.7.465-.961.82a3.837 3.837 0 0 0-.578 1.273 6.486 6.486 0 0 0-.195 1.648v1.149c0 .557.057 1.08.172 1.57.12.49.299.92.539 1.29.24.369.544.66.914.874.37.209.807.313 1.313.313.64 0 1.151-.102 1.531-.305.38-.203.666-.495.859-.875.198-.38.339-.836.422-1.367Zm2.953-.516v-.18c0-.609.089-1.174.266-1.695a4.03 4.03 0 0 1 .765-1.367c.334-.39.737-.693 1.211-.906a3.761 3.761 0 0 1 1.594-.328c.594 0 1.128.109 1.602.328.479.213.885.515 1.218.906.339.385.597.841.774 1.367.177.521.266 1.086.266 1.696v.18c0 .609-.089 1.174-.266 1.694-.177.521-.435.977-.774 1.368a3.545 3.545 0 0 1-1.21.906c-.469.214-1 .32-1.594.32a3.858 3.858 0 0 1-1.602-.32 3.628 3.628 0 0 1-1.219-.906 4.133 4.133 0 0 1-.765-1.367 5.237 5.237 0 0 1-.266-1.696Zm1.446-.18v.18c0 .422.049.82.148 1.196.099.37.247.697.445.984.203.286.456.513.758.68.302.161.654.242 1.055.242.396 0 .742-.081 1.039-.242.302-.167.552-.394.75-.68.198-.287.346-.615.445-.984.104-.376.156-.774.156-1.196v-.18c0-.416-.052-.81-.156-1.18a3.041 3.041 0 0 0-.453-.991 2.156 2.156 0 0 0-.75-.688 2.105 2.105 0 0 0-1.047-.25c-.396 0-.745.084-1.047.25a2.247 2.247 0 0 0-.75.688 3.136 3.136 0 0 0-.445.992c-.099.37-.148.763-.148 1.18Zm9.507-2.335V39h-1.445v-8.453h1.367l.078 1.805Zm-.343 2.101-.602-.023a5.07 5.07 0 0 1 .258-1.602c.166-.495.401-.924.703-1.289a3.128 3.128 0 0 1 1.078-.844 3.183 3.183 0 0 1 1.399-.304c.416 0 .791.057 1.124.172.334.109.618.286.852.53.24.245.422.563.547.954.125.385.187.857.187 1.414V39h-1.453v-5.555c0-.442-.065-.797-.195-1.062a1.2 1.2 0 0 0-.57-.586c-.25-.125-.558-.188-.922-.188-.36 0-.688.076-.985.227-.291.151-.544.36-.757.625-.209.266-.373.57-.493.914a3.356 3.356 0 0 0-.171 1.078Zm11.125 3.516c.343 0 .661-.07.953-.211.291-.14.531-.334.718-.578.188-.25.295-.534.321-.852h1.375c-.026.5-.196.966-.508 1.399a3.465 3.465 0 0 1-1.211 1.039c-.5.26-1.049.39-1.648.39-.636 0-1.191-.112-1.665-.336a3.296 3.296 0 0 1-1.171-.922 4.12 4.12 0 0 1-.696-1.343 5.672 5.672 0 0 1-.226-1.617v-.329c0-.567.075-1.104.226-1.609.157-.51.388-.96.696-1.352.312-.39.703-.697 1.171-.921.474-.224 1.029-.336 1.665-.336.661 0 1.239.135 1.734.406.495.265.883.63 1.164 1.094.286.458.443.979.469 1.562h-1.375a2.08 2.08 0 0 0-.297-.945 1.853 1.853 0 0 0-.688-.672 1.919 1.919 0 0 0-1.007-.258c-.443 0-.816.089-1.118.266a1.963 1.963 0 0 0-.711.703 3.33 3.33 0 0 0-.375.976 5.438 5.438 0 0 0-.109 1.086v.328c0 .37.037.735.109 1.094.073.36.196.685.368.977.177.291.414.526.711.703.302.172.677.258 1.125.258Zm6.437-6.094V39h-1.445v-8.453h1.406l.039 1.328Zm2.641-1.375-.008 1.344a2.092 2.092 0 0 0-.344-.047 3.652 3.652 0 0 0-.359-.016 2.32 2.32 0 0 0-.883.157c-.255.104-.471.25-.649.437a2.102 2.102 0 0 0-.421.672 3.257 3.257 0 0 0-.196.844l-.406.234c0-.51.05-.99.149-1.438.104-.447.263-.843.476-1.187a2.33 2.33 0 0 1 .813-.813c.333-.197.729-.296 1.187-.296.104 0 .224.013.359.039.136.02.23.044.282.07Zm4.687 8.656a4.157 4.157 0 0 1-1.601-.297 3.636 3.636 0 0 1-1.227-.851 3.791 3.791 0 0 1-.781-1.297 4.763 4.763 0 0 1-.274-1.64v-.329c0-.687.102-1.3.305-1.836.203-.541.479-1 .828-1.375a3.546 3.546 0 0 1 1.188-.851c.442-.193.901-.29 1.375-.29.604 0 1.125.105 1.562.313.443.209.805.5 1.086.875.281.37.49.807.625 1.313.136.5.203 1.047.203 1.64v.649h-6.312V34h4.867v-.11a3.621 3.621 0 0 0-.234-1.093 1.975 1.975 0 0 0-.625-.875c-.287-.23-.678-.344-1.172-.344a1.97 1.97 0 0 0-1.617.82 3.06 3.06 0 0 0-.461.993c-.11.39-.165.84-.165 1.351v.328c0 .401.055.779.165 1.133.114.35.278.656.492.922.219.266.482.474.789.625.312.151.666.227 1.062.227.511 0 .943-.105 1.297-.313a3.22 3.22 0 0 0 .93-.836l.875.695c-.182.276-.414.54-.695.79-.282.25-.628.453-1.039.609-.407.156-.889.234-1.446.234Zm8.516-8.61v1.11h-4.57v-1.11h4.57Zm-3.024-2.054h1.446v8.414c0 .287.044.503.132.649a.64.64 0 0 0 .344.289c.141.047.292.07.453.07.12 0 .245-.01.375-.031.136-.026.237-.047.305-.063l.008 1.18a3.41 3.41 0 0 1-.453.102 3.458 3.458 0 0 1-.664.054c-.354 0-.68-.07-.977-.21-.297-.141-.534-.376-.711-.704-.172-.333-.258-.781-.258-1.344v-8.406Zm6.289 2.055V39h-1.453v-8.453h1.453Zm-1.562-2.242a.87.87 0 0 1 .211-.594c.146-.162.359-.242.64-.242.277 0 .487.08.633.242.151.161.227.36.227.594a.818.818 0 0 1-.227.578c-.146.156-.356.234-.633.234-.281 0-.494-.078-.64-.234a.85.85 0 0 1-.211-.578Zm10.18 9.508V39h-6.149v-1.188h6.149Zm-.227-6.243L318.32 39h-.882v-1.063l5.554-7.39h.922v1.023Zm-.641-1.023v1.195H317.5v-1.195h5.773Zm4.079 0V39h-1.454v-8.453h1.454Zm-1.563-2.242a.87.87 0 0 1 .211-.594c.146-.162.359-.242.641-.242.276 0 .487.08.632.242.151.161.227.36.227.594a.818.818 0 0 1-.227.578c-.145.156-.356.234-.632.234-.282 0-.495-.078-.641-.234a.85.85 0 0 1-.211-.578Zm5.328 4.047V39h-1.445v-8.453h1.367l.078 1.805Zm-.344 2.101-.601-.023a5.07 5.07 0 0 1 .258-1.602c.166-.495.401-.924.703-1.289a3.128 3.128 0 0 1 1.078-.844 3.181 3.181 0 0 1 1.398-.304c.417 0 .792.057 1.125.172.334.109.618.286.852.53.24.245.422.563.547.954.125.385.187.857.187 1.414V39h-1.453v-5.555c0-.442-.065-.797-.195-1.062a1.2 1.2 0 0 0-.57-.586c-.25-.125-.558-.188-.922-.188-.36 0-.688.076-.985.227-.291.151-.544.36-.757.625-.209.266-.373.57-.493.914a3.356 3.356 0 0 0-.172 1.078Zm13.219-3.906h1.313v8.273c0 .745-.151 1.38-.453 1.907a2.956 2.956 0 0 1-1.266 1.195c-.537.276-1.156.414-1.859.414-.292 0-.636-.047-1.032-.14a4.163 4.163 0 0 1-1.156-.462 2.886 2.886 0 0 1-.945-.867l.758-.86c.354.428.724.725 1.109.891.391.167.776.25 1.156.25.459 0 .854-.086 1.188-.257.333-.172.591-.427.773-.766.188-.333.281-.745.281-1.234v-6.485l.133-1.86Zm-5.82 4.32v-.164c0-.646.075-1.232.226-1.758.157-.53.378-.987.664-1.367a2.99 2.99 0 0 1 2.446-1.187c.531 0 .995.093 1.39.28.401.183.74.451 1.016.806.281.349.503.77.664 1.265a7.92 7.92 0 0 1 .336 1.68v.719a7.328 7.328 0 0 1-.336 1.672 3.939 3.939 0 0 1-.664 1.265 2.78 2.78 0 0 1-1.016.805c-.401.182-.869.273-1.406.273-.505 0-.963-.106-1.375-.32a3.137 3.137 0 0 1-1.047-.898 4.284 4.284 0 0 1-.672-1.36 6.18 6.18 0 0 1-.226-1.71Zm1.445-.164v.164c0 .422.042.818.125 1.188.089.37.222.695.399.976.182.282.414.503.695.664.281.157.617.235 1.008.235.479 0 .875-.102 1.187-.305.313-.203.56-.471.742-.805.188-.333.334-.695.438-1.086v-1.882a3.814 3.814 0 0 0-.266-.829 2.526 2.526 0 0 0-.453-.718 1.955 1.955 0 0 0-.68-.508 2.25 2.25 0 0 0-.953-.188c-.395 0-.737.084-1.023.25a1.992 1.992 0 0 0-.695.672c-.177.282-.31.61-.399.985-.083.37-.125.765-.125 1.187Zm15.391-4.156v1.11h-4.57v-1.11h4.57Zm-3.024-2.055h1.446v8.414c0 .287.044.503.132.649a.64.64 0 0 0 .344.289c.141.047.292.07.453.07.12 0 .245-.01.375-.031.136-.026.237-.047.305-.063l.008 1.18a3.41 3.41 0 0 1-.453.102 3.458 3.458 0 0 1-.664.054c-.354 0-.68-.07-.977-.21-.297-.141-.534-.376-.711-.704-.172-.333-.258-.781-.258-1.344v-8.406ZM358.148 27v12h-1.445V27h1.445Zm-.343 7.453-.602-.023a5.07 5.07 0 0 1 .258-1.602c.167-.495.401-.924.703-1.289a3.137 3.137 0 0 1 2.477-1.148c.416 0 .791.057 1.125.172.333.109.617.286.851.53.24.245.422.563.547.954.125.385.188.857.188 1.414V39h-1.454v-5.555c0-.442-.065-.797-.195-1.062a1.2 1.2 0 0 0-.57-.586c-.25-.125-.557-.188-.922-.188-.359 0-.688.076-.984.227-.292.151-.545.36-.758.625a3.11 3.11 0 0 0-.492.914 3.329 3.329 0 0 0-.172 1.078Zm11.218 4.703a4.157 4.157 0 0 1-1.601-.297 3.636 3.636 0 0 1-1.227-.851 3.791 3.791 0 0 1-.781-1.297 4.763 4.763 0 0 1-.273-1.64v-.329c0-.687.101-1.3.304-1.836.203-.541.479-1 .828-1.375a3.546 3.546 0 0 1 1.188-.851c.443-.193.901-.29 1.375-.29.604 0 1.125.105 1.562.313.443.209.805.5 1.086.875.282.37.49.807.625 1.313.136.5.203 1.047.203 1.64v.649H366V34h4.867v-.11a3.621 3.621 0 0 0-.234-1.093 1.968 1.968 0 0 0-.625-.875c-.287-.23-.677-.344-1.172-.344a1.966 1.966 0 0 0-1.617.82 3.06 3.06 0 0 0-.461.993c-.11.39-.164.84-.164 1.351v.328c0 .401.054.779.164 1.133.114.35.278.656.492.922.219.266.482.474.789.625.313.151.667.227 1.063.227.51 0 .942-.105 1.296-.313.355-.208.664-.487.93-.836l.875.695c-.182.276-.414.54-.695.79-.281.25-.628.453-1.039.609-.407.156-.888.234-1.446.234Zm-77.242 17.399v-4.352c0-.333-.067-.622-.203-.867a1.327 1.327 0 0 0-.594-.578c-.265-.136-.593-.203-.984-.203-.365 0-.685.062-.961.187a1.678 1.678 0 0 0-.641.492 1.078 1.078 0 0 0-.226.657h-1.445c0-.302.078-.602.234-.899a2.62 2.62 0 0 1 .672-.804 3.362 3.362 0 0 1 1.062-.579 4.192 4.192 0 0 1 1.391-.218c.615 0 1.156.104 1.625.312.474.208.844.524 1.109.945.271.417.407.94.407 1.57v3.938c0 .282.023.581.07.899.052.317.127.59.226.82V58h-1.507a2.666 2.666 0 0 1-.172-.664 5.313 5.313 0 0 1-.063-.781Zm.25-3.68.016 1.016h-1.461c-.412 0-.779.034-1.102.101a2.518 2.518 0 0 0-.812.29c-.219.13-.386.294-.5.491-.115.193-.172.42-.172.68 0 .266.06.508.18.727a1.3 1.3 0 0 0 .539.523c.245.125.544.188.898.188.443 0 .834-.094 1.172-.282.339-.187.607-.416.805-.687.203-.271.312-.534.328-.79l.617.696c-.036.219-.135.461-.297.727a3.518 3.518 0 0 1-1.601 1.367 3.108 3.108 0 0 1-1.235.234c-.573 0-1.075-.112-1.508-.336a2.581 2.581 0 0 1-1-.898 2.381 2.381 0 0 1-.351-1.274c0-.453.088-.851.265-1.195a2.32 2.32 0 0 1 .766-.867 3.633 3.633 0 0 1 1.203-.531c.469-.12.992-.18 1.571-.18h1.679ZM295.492 46h1.453v10.36L296.82 58h-1.328V46Zm7.164 7.703v.164c0 .615-.073 1.185-.218 1.711-.146.521-.36.974-.641 1.36a2.984 2.984 0 0 1-1.031.898c-.407.214-.873.32-1.399.32-.536 0-1.008-.09-1.414-.273a2.777 2.777 0 0 1-1.015-.805 4.147 4.147 0 0 1-.665-1.266 7.975 7.975 0 0 1-.335-1.671v-.72a7.984 7.984 0 0 1 .335-1.679c.167-.495.388-.916.665-1.265a2.673 2.673 0 0 1 1.015-.805c.401-.188.867-.281 1.399-.281.531 0 1.002.104 1.414.312.411.203.755.495 1.031.875.281.38.495.836.641 1.367a6.61 6.61 0 0 1 .218 1.758Zm-1.453.164v-.164c0-.422-.039-.818-.117-1.187a3.07 3.07 0 0 0-.375-.985 1.87 1.87 0 0 0-.68-.672c-.281-.166-.627-.25-1.039-.25-.364 0-.682.063-.953.188a2.062 2.062 0 0 0-.68.508 2.712 2.712 0 0 0-.461.718c-.114.266-.2.542-.257.829v1.882c.083.365.218.716.406 1.055.193.333.448.607.765.82.323.214.722.32 1.196.32.39 0 .724-.077 1-.234a1.89 1.89 0 0 0 .68-.664c.177-.281.307-.606.39-.976.083-.37.125-.766.125-1.188Zm8.203 1.89c0-.207-.047-.4-.14-.577-.089-.183-.274-.347-.555-.492-.276-.152-.693-.282-1.25-.391a9.883 9.883 0 0 1-1.273-.352 3.834 3.834 0 0 1-.961-.492 2.063 2.063 0 0 1-.602-.68 1.89 1.89 0 0 1-.211-.914c0-.333.073-.648.219-.945.151-.297.362-.56.633-.789.276-.23.606-.409.992-.54.385-.13.815-.194 1.289-.194.677 0 1.255.12 1.734.359.479.24.847.56 1.102.96.255.397.383.837.383 1.321h-1.446c0-.234-.07-.46-.211-.68a1.556 1.556 0 0 0-.601-.554c-.261-.146-.581-.219-.961-.219-.401 0-.727.063-.977.188a1.26 1.26 0 0 0-.539.46 1.164 1.164 0 0 0-.086 1.016c.058.12.157.232.297.336.141.1.339.193.594.281.255.089.581.177.976.266.693.156 1.264.344 1.711.563.448.218.782.486 1 .804.219.318.329.703.329 1.156a2.247 2.247 0 0 1-.899 1.813c-.286.219-.63.39-1.031.516-.396.12-.841.18-1.336.18-.745 0-1.375-.134-1.891-.4-.515-.265-.906-.609-1.172-1.03a2.472 2.472 0 0 1-.398-1.336h1.453c.021.395.136.71.344.945.208.23.463.393.766.492.302.094.601.14.898.14.396 0 .726-.051.992-.156.271-.104.477-.247.617-.43a.993.993 0 0 0 .211-.624Zm6.883-6.21v1.11h-4.57v-1.11h4.57Zm-3.023-2.055h1.445v8.414c0 .287.044.503.133.649a.633.633 0 0 0 .344.289c.14.047.291.07.453.07.119 0 .244-.01.375-.031.135-.026.237-.047.304-.063l.008 1.18c-.114.036-.266.07-.453.102a3.451 3.451 0 0 1-.664.054c-.354 0-.68-.07-.977-.21-.296-.141-.533-.376-.711-.704-.171-.333-.257-.781-.257-1.344v-8.406Zm6.164 3.383V58h-1.446v-8.453h1.407l.039 1.328Zm2.64-1.375-.008 1.344a2.066 2.066 0 0 0-.343-.047 3.66 3.66 0 0 0-.36-.016c-.333 0-.627.052-.882.157-.256.104-.472.25-.649.437a2.104 2.104 0 0 0-.422.672 3.217 3.217 0 0 0-.195.844l-.406.234c0-.51.049-.99.148-1.438.104-.447.263-.843.477-1.187.213-.349.484-.62.812-.813.334-.197.729-.296 1.188-.296.104 0 .224.013.359.039.135.02.229.044.281.07Zm6.008 7.055v-4.352c0-.333-.068-.622-.203-.867a1.327 1.327 0 0 0-.594-.578c-.265-.136-.593-.203-.984-.203-.365 0-.685.062-.961.187a1.678 1.678 0 0 0-.641.492 1.078 1.078 0 0 0-.226.657h-1.446c0-.302.079-.602.235-.899a2.62 2.62 0 0 1 .672-.804 3.362 3.362 0 0 1 1.062-.579c.417-.145.88-.218 1.391-.218.614 0 1.156.104 1.625.312.474.208.844.524 1.109.945.271.417.406.94.406 1.57v3.938c0 .282.024.581.071.899.052.317.127.59.226.82V58h-1.508a2.715 2.715 0 0 1-.171-.664 5.313 5.313 0 0 1-.063-.781Zm.25-3.68.016 1.016h-1.461c-.412 0-.779.034-1.102.101a2.518 2.518 0 0 0-.812.29c-.219.13-.386.294-.5.491-.115.193-.172.42-.172.68 0 .266.06.508.18.727a1.3 1.3 0 0 0 .539.523c.244.125.544.188.898.188a2.38 2.38 0 0 0 1.172-.282c.338-.187.607-.416.805-.687.203-.271.312-.534.328-.79l.617.696a2.099 2.099 0 0 1-.297.727 3.483 3.483 0 0 1-1.601 1.367 3.112 3.112 0 0 1-1.235.234c-.573 0-1.075-.112-1.508-.336a2.581 2.581 0 0 1-1-.898 2.381 2.381 0 0 1-.351-1.274c0-.453.088-.851.265-1.195.177-.349.433-.638.766-.867a3.633 3.633 0 0 1 1.203-.531c.469-.12.992-.18 1.57-.18h1.68Zm6.852 4.094c.343 0 .661-.07.953-.211.291-.14.531-.334.719-.578.187-.25.294-.534.32-.852h1.375c-.026.5-.195.966-.508 1.399a3.465 3.465 0 0 1-1.211 1.039c-.5.26-1.049.39-1.648.39-.636 0-1.19-.112-1.664-.336a3.29 3.29 0 0 1-1.172-.922 4.12 4.12 0 0 1-.696-1.343 5.672 5.672 0 0 1-.226-1.617v-.329c0-.567.075-1.104.226-1.609.157-.51.388-.96.696-1.352.312-.39.703-.698 1.172-.921.474-.224 1.028-.336 1.664-.336.661 0 1.239.135 1.734.406.495.266.883.63 1.164 1.094.287.458.443.979.469 1.562h-1.375a2.08 2.08 0 0 0-.297-.945 1.858 1.858 0 0 0-.687-.672 1.925 1.925 0 0 0-1.008-.258c-.443 0-.815.089-1.118.266a1.96 1.96 0 0 0-.71.703 3.275 3.275 0 0 0-.375.976c-.073.355-.11.717-.11 1.086v.328c0 .37.037.735.11 1.094.072.36.195.685.367.977.177.291.414.526.711.703.302.172.677.258 1.125.258Zm8.531-7.422v1.11h-4.57v-1.11h4.57Zm-3.023-2.055h1.445v8.414c0 .287.044.503.133.649a.634.634 0 0 0 .343.289c.141.047.292.07.453.07.12 0 .245-.01.376-.031.135-.026.236-.047.304-.063l.008 1.18a3.41 3.41 0 0 1-.453.102 3.451 3.451 0 0 1-.664.054c-.354 0-.68-.07-.977-.21-.297-.141-.534-.376-.711-.704-.172-.333-.257-.781-.257-1.344v-8.406Z" fill="#B6ABFF"/><path d="M329.383 141.24a8.6 8.6 0 0 1-3.02-.52 7.225 7.225 0 0 1-2.4-1.52 7.138 7.138 0 0 1-1.6-2.3c-.373-.88-.56-1.847-.56-2.9s.187-2.02.56-2.9c.387-.88.92-1.647 1.6-2.3a7.197 7.197 0 0 1 2.42-1.5c.92-.36 1.927-.54 3.02-.54 1.214 0 2.307.213 3.28.64a6.298 6.298 0 0 1 2.48 1.84l-2.08 1.92c-.48-.547-1.013-.953-1.6-1.22a4.395 4.395 0 0 0-1.92-.42 4.92 4.92 0 0 0-1.8.32c-.546.213-1.02.52-1.42.92-.4.4-.713.873-.94 1.42a4.975 4.975 0 0 0-.32 1.82c0 .667.107 1.273.32 1.82.227.547.54 1.02.94 1.42.4.4.874.707 1.42.92a4.92 4.92 0 0 0 1.8.32c.694 0 1.334-.133 1.92-.4.587-.28 1.12-.7 1.6-1.26l2.08 1.92a6.483 6.483 0 0 1-2.48 1.86c-.973.427-2.073.64-3.3.64Zm7.748-.24v-14.84h3.12V141h-3.12Zm12.616 0v-2.1l-.2-.46v-3.76c0-.667-.207-1.187-.62-1.56-.4-.373-1.02-.56-1.86-.56-.573 0-1.14.093-1.7.28a4.325 4.325 0 0 0-1.4.72l-1.12-2.18c.587-.413 1.293-.733 2.12-.96a9.478 9.478 0 0 1 2.52-.34c1.64 0 2.913.387 3.82 1.16.907.773 1.36 1.98 1.36 3.62V141h-2.92Zm-3.28.16c-.84 0-1.56-.14-2.16-.42-.6-.293-1.06-.687-1.38-1.18a2.985 2.985 0 0 1-.48-1.66c0-.64.153-1.2.46-1.68.32-.48.82-.853 1.5-1.12.68-.28 1.567-.42 2.66-.42h2.86v1.82h-2.52c-.733 0-1.24.12-1.52.36-.267.24-.4.54-.4.9 0 .4.153.72.46.96.32.227.753.34 1.3.34.52 0 .987-.12 1.4-.36.413-.253.713-.62.9-1.1l.48 1.44c-.227.693-.64 1.22-1.24 1.58-.6.36-1.373.54-2.32.54Zm12.644 0c-.92 0-1.807-.107-2.66-.32-.84-.227-1.507-.507-2-.84l1.04-2.24c.493.307 1.073.56 1.74.76.68.187 1.346.28 2 .28.72 0 1.226-.087 1.52-.26.306-.173.46-.413.46-.72 0-.253-.12-.44-.36-.56-.227-.133-.534-.233-.92-.3a45.782 45.782 0 0 0-1.28-.2 17.73 17.73 0 0 1-1.38-.26 4.931 4.931 0 0 1-1.28-.52 2.696 2.696 0 0 1-.94-.92c-.227-.387-.34-.887-.34-1.5 0-.68.193-1.28.58-1.8.4-.52.973-.927 1.72-1.22.746-.307 1.64-.46 2.68-.46.733 0 1.48.08 2.24.24.76.16 1.393.393 1.9.7l-1.04 2.22a5.062 5.062 0 0 0-1.58-.62 6.752 6.752 0 0 0-1.52-.18c-.694 0-1.2.093-1.52.28-.32.187-.48.427-.48.72a.65.65 0 0 0 .34.6c.24.133.553.24.94.32.386.08.806.153 1.26.22.466.053.933.14 1.4.26.466.12.886.293 1.26.52.386.213.7.513.94.9.24.373.36.867.36 1.48 0 .667-.2 1.26-.6 1.78-.4.507-.98.907-1.74 1.2-.747.293-1.66.44-2.74.44Zm10.625 0c-.92 0-1.807-.107-2.66-.32-.84-.227-1.507-.507-2-.84l1.04-2.24c.493.307 1.073.56 1.74.76.68.187 1.346.28 2 .28.72 0 1.226-.087 1.52-.26.306-.173.46-.413.46-.72 0-.253-.12-.44-.36-.56-.227-.133-.534-.233-.92-.3a45.782 45.782 0 0 0-1.28-.2 17.73 17.73 0 0 1-1.38-.26 4.931 4.931 0 0 1-1.28-.52 2.696 2.696 0 0 1-.94-.92c-.227-.387-.34-.887-.34-1.5 0-.68.193-1.28.58-1.8.4-.52.973-.927 1.72-1.22.746-.307 1.64-.46 2.68-.46.733 0 1.48.08 2.24.24.76.16 1.393.393 1.9.7l-1.04 2.22a5.062 5.062 0 0 0-1.58-.62 6.752 6.752 0 0 0-1.52-.18c-.694 0-1.2.093-1.52.28-.32.187-.48.427-.48.72a.65.65 0 0 0 .34.6c.24.133.553.24.94.32.386.08.806.153 1.26.22.466.053.933.14 1.4.26.466.12.886.293 1.26.52.386.213.7.513.94.9.24.373.36.867.36 1.48 0 .667-.2 1.26-.6 1.78-.4.507-.98.907-1.74 1.2-.747.293-1.66.44-2.74.44Zm7.005-.16v-10.76h3.12V141h-3.12Zm1.56-12.26c-.574 0-1.04-.167-1.4-.5a1.622 1.622 0 0 1-.54-1.24c0-.493.18-.907.54-1.24.36-.333.826-.5 1.4-.5.573 0 1.04.16 1.4.48.36.307.54.707.54 1.2 0 .52-.18.953-.54 1.3-.347.333-.814.5-1.4.5Zm9.655 12.42c-1.16 0-2.193-.233-3.1-.7a5.48 5.48 0 0 1-2.14-1.98c-.506-.84-.76-1.793-.76-2.86 0-1.08.254-2.033.76-2.86a5.34 5.34 0 0 1 2.14-1.96c.907-.48 1.94-.72 3.1-.72 1.134 0 2.12.24 2.96.72.84.467 1.46 1.14 1.86 2.02l-2.42 1.3c-.28-.507-.633-.88-1.06-1.12a2.658 2.658 0 0 0-1.36-.36c-.533 0-1.013.12-1.44.36-.426.24-.766.58-1.02 1.02-.24.44-.36.973-.36 1.6 0 .627.12 1.16.36 1.6.254.44.594.78 1.02 1.02.427.24.907.36 1.44.36.494 0 .947-.113 1.36-.34.427-.24.78-.62 1.06-1.14l2.42 1.32a4.4 4.4 0 0 1-1.86 2.02c-.84.467-1.826.7-2.96.7Zm13.217-.16v-2.1l-.2-.46v-3.76c0-.667-.207-1.187-.62-1.56-.4-.373-1.02-.56-1.86-.56-.574 0-1.14.093-1.7.28a4.315 4.315 0 0 0-1.4.72l-1.12-2.18c.586-.413 1.293-.733 2.12-.96a9.467 9.467 0 0 1 2.52-.34c1.64 0 2.913.387 3.82 1.16.906.773 1.36 1.98 1.36 3.62V141h-2.92Zm-3.28.16c-.84 0-1.56-.14-2.16-.42-.6-.293-1.06-.687-1.38-1.18a2.985 2.985 0 0 1-.48-1.66c0-.64.153-1.2.46-1.68.32-.48.82-.853 1.5-1.12.68-.28 1.566-.42 2.66-.42h2.86v1.82h-2.52c-.734 0-1.24.12-1.52.36-.267.24-.4.54-.4.9 0 .4.153.72.46.96.32.227.753.34 1.3.34.52 0 .986-.12 1.4-.36.413-.253.713-.62.9-1.1l.48 1.44c-.227.693-.64 1.22-1.24 1.58-.6.36-1.374.54-2.32.54Zm9.024-.16v-14.84h3.12V141h-3.12Zm11.899 0v-14h6.36c1.52 0 2.86.293 4.02.88 1.16.573 2.067 1.38 2.72 2.42.654 1.04.98 2.273.98 3.7 0 1.413-.326 2.647-.98 3.7-.653 1.04-1.56 1.853-2.72 2.44-1.16.573-2.5.86-4.02.86h-6.36Zm3.24-2.66h2.96c.934 0 1.74-.173 2.42-.52a3.826 3.826 0 0 0 1.6-1.52c.387-.653.58-1.42.58-2.3 0-.893-.193-1.66-.58-2.3a3.704 3.704 0 0 0-1.6-1.5c-.68-.36-1.486-.54-2.42-.54h-2.96v8.68Zm18.404 2.82c-1.227 0-2.307-.24-3.24-.72-.92-.48-1.634-1.133-2.14-1.96-.507-.84-.76-1.793-.76-2.86 0-1.08.246-2.033.74-2.86a5.29 5.29 0 0 1 2.06-1.96c.866-.48 1.846-.72 2.94-.72 1.053 0 2 .227 2.84.68a4.92 4.92 0 0 1 2.02 1.92c.493.827.74 1.82.74 2.98 0 .12-.007.26-.02.42l-.04.42h-8.74v-1.82h7.1l-1.2.54c0-.56-.114-1.047-.34-1.46a2.419 2.419 0 0 0-.94-.96c-.4-.24-.867-.36-1.4-.36-.534 0-1.007.12-1.42.36-.4.227-.714.553-.94.98-.227.413-.34.907-.34 1.48v.48c0 .587.126 1.107.38 1.56a2.7 2.7 0 0 0 1.1 1.02c.48.227 1.04.34 1.68.34.573 0 1.073-.087 1.5-.26.44-.173.84-.433 1.2-.78l1.66 1.8a4.944 4.944 0 0 1-1.86 1.3c-.747.293-1.607.44-2.58.44Zm10.897 0c-.92 0-1.807-.107-2.66-.32-.84-.227-1.507-.507-2-.84l1.04-2.24c.493.307 1.073.56 1.74.76.68.187 1.347.28 2 .28.72 0 1.227-.087 1.52-.26.307-.173.46-.413.46-.72 0-.253-.12-.44-.36-.56-.227-.133-.533-.233-.92-.3a45.208 45.208 0 0 0-1.28-.2 17.908 17.908 0 0 1-1.38-.26 4.946 4.946 0 0 1-1.28-.52 2.696 2.696 0 0 1-.94-.92c-.227-.387-.34-.887-.34-1.5 0-.68.193-1.28.58-1.8.4-.52.973-.927 1.72-1.22.747-.307 1.64-.46 2.68-.46.733 0 1.48.08 2.24.24.76.16 1.393.393 1.9.7l-1.04 2.22a5.062 5.062 0 0 0-1.58-.62 6.752 6.752 0 0 0-1.52-.18c-.693 0-1.2.093-1.52.28-.32.187-.48.427-.48.72a.65.65 0 0 0 .34.6c.24.133.553.24.94.32.387.08.807.153 1.26.22.467.053.933.14 1.4.26.467.12.887.293 1.26.52.387.213.7.513.94.9.24.373.36.867.36 1.48 0 .667-.2 1.26-.6 1.78-.4.507-.98.907-1.74 1.2-.747.293-1.66.44-2.74.44Zm7.005-.16v-10.76h3.12V141h-3.12Zm1.56-12.26c-.573 0-1.04-.167-1.4-.5a1.622 1.622 0 0 1-.54-1.24c0-.493.18-.907.54-1.24.36-.333.827-.5 1.4-.5s1.04.16 1.4.48c.36.307.54.707.54 1.2 0 .52-.18.953-.54 1.3-.347.333-.813.5-1.4.5Zm9.516 16.3a11.33 11.33 0 0 1-2.94-.38c-.934-.24-1.714-.607-2.34-1.1l1.24-2.24c.453.373 1.026.667 1.72.88.706.227 1.4.34 2.08.34 1.106 0 1.906-.247 2.4-.74.506-.493.76-1.227.76-2.2v-1.62l.2-2.7-.04-2.72v-2.32h2.96v8.96c0 2-.52 3.473-1.56 4.42-1.04.947-2.534 1.42-4.48 1.42Zm-.48-4.56c-1 0-1.907-.213-2.72-.64a5.293 5.293 0 0 1-1.94-1.82c-.48-.787-.72-1.7-.72-2.74 0-1.053.24-1.967.72-2.74a5.08 5.08 0 0 1 1.94-1.82c.813-.427 1.72-.64 2.72-.64.906 0 1.706.187 2.4.56.693.36 1.233.927 1.62 1.7.386.76.58 1.74.58 2.94 0 1.187-.194 2.167-.58 2.94-.387.76-.927 1.327-1.62 1.7-.694.373-1.494.56-2.4.56Zm.62-2.56c.546 0 1.033-.107 1.46-.32.426-.227.76-.54 1-.94.24-.4.36-.86.36-1.38 0-.533-.12-.993-.36-1.38-.24-.4-.574-.707-1-.92-.427-.227-.914-.34-1.46-.34-.547 0-1.034.113-1.46.34a2.51 2.51 0 0 0-1.02.92c-.24.387-.36.847-.36 1.38 0 .52.12.98.36 1.38.253.4.593.713 1.02.94.426.213.913.32 1.46.32Zm15.343-7.84c.854 0 1.614.173 2.28.52.68.333 1.214.853 1.6 1.56.387.693.58 1.587.58 2.68V141h-3.12v-5.68c0-.867-.193-1.507-.58-1.92-.373-.413-.906-.62-1.6-.62-.493 0-.94.107-1.34.32-.386.2-.693.513-.92.94-.213.427-.32.973-.32 1.64V141h-3.12v-10.76h2.98v2.98l-.56-.9a3.99 3.99 0 0 1 1.66-1.66c.72-.387 1.54-.58 2.46-.58ZM498.094 141v-14h6.06c1.253 0 2.333.207 3.24.62.906.4 1.606.98 2.1 1.74.493.76.74 1.667.74 2.72 0 1.04-.247 1.94-.74 2.7-.494.76-1.194 1.347-2.1 1.76-.907.4-1.987.6-3.24.6h-4.26l1.44-1.46V141h-3.24Zm3.24-4.96-1.44-1.54h4.08c1 0 1.746-.213 2.24-.64.493-.427.74-1.02.74-1.78 0-.773-.247-1.373-.74-1.8-.494-.427-1.24-.64-2.24-.64h-4.08l1.44-1.54v7.94Zm10.973 4.96v-10.76h2.98v3.04l-.42-.88c.32-.76.834-1.333 1.54-1.72.707-.4 1.567-.6 2.58-.6v2.88a3.746 3.746 0 0 0-.36-.02 2.802 2.802 0 0 0-.34-.02c-.853 0-1.546.247-2.08.74-.52.48-.78 1.233-.78 2.26V141h-3.12Zm13.577.16c-1.146 0-2.166-.24-3.06-.72a5.602 5.602 0 0 1-2.1-1.96c-.506-.84-.76-1.793-.76-2.86 0-1.08.254-2.033.76-2.86a5.404 5.404 0 0 1 2.1-1.96c.894-.48 1.914-.72 3.06-.72 1.134 0 2.147.24 3.04.72a5.261 5.261 0 0 1 2.1 1.94c.507.827.76 1.787.76 2.88 0 1.067-.253 2.02-.76 2.86a5.402 5.402 0 0 1-2.1 1.96c-.893.48-1.906.72-3.04.72Zm0-2.56c.52 0 .987-.12 1.4-.36.414-.24.74-.58.98-1.02.24-.453.36-.987.36-1.6 0-.627-.12-1.16-.36-1.6-.24-.44-.566-.78-.98-1.02-.413-.24-.88-.36-1.4-.36-.52 0-.986.12-1.4.36a2.73 2.73 0 0 0-1 1.02c-.24.44-.36.973-.36 1.6 0 .613.12 1.147.36 1.6.254.44.587.78 1 1.02.414.24.88.36 1.4.36Zm13.186 2.56c-1.16 0-2.194-.233-3.1-.7a5.474 5.474 0 0 1-2.14-1.98c-.507-.84-.76-1.793-.76-2.86 0-1.08.253-2.033.76-2.86a5.333 5.333 0 0 1 2.14-1.96c.906-.48 1.94-.72 3.1-.72 1.133 0 2.12.24 2.96.72.84.467 1.46 1.14 1.86 2.02l-2.42 1.3c-.28-.507-.634-.88-1.06-1.12a2.663 2.663 0 0 0-1.36-.36c-.534 0-1.014.12-1.44.36-.427.24-.767.58-1.02 1.02-.24.44-.36.973-.36 1.6 0 .627.12 1.16.36 1.6.253.44.593.78 1.02 1.02.426.24.906.36 1.44.36.493 0 .946-.113 1.36-.34.426-.24.78-.62 1.06-1.14l2.42 1.32a4.4 4.4 0 0 1-1.86 2.02c-.84.467-1.827.7-2.96.7Zm11.819 0c-1.226 0-2.306-.24-3.24-.72-.92-.48-1.633-1.133-2.14-1.96-.506-.84-.76-1.793-.76-2.86 0-1.08.247-2.033.74-2.86a5.303 5.303 0 0 1 2.06-1.96c.867-.48 1.847-.72 2.94-.72 1.054 0 2 .227 2.84.68a4.907 4.907 0 0 1 2.02 1.92c.494.827.74 1.82.74 2.98 0 .12-.006.26-.02.42-.013.147-.026.287-.04.42h-8.74v-1.82h7.1l-1.2.54c0-.56-.113-1.047-.34-1.46a2.412 2.412 0 0 0-.94-.96c-.4-.24-.866-.36-1.4-.36-.533 0-1.006.12-1.42.36-.4.227-.713.553-.94.98-.226.413-.34.907-.34 1.48v.48c0 .587.127 1.107.38 1.56.267.44.634.78 1.1 1.02.48.227 1.04.34 1.68.34.574 0 1.074-.087 1.5-.26.44-.173.84-.433 1.2-.78l1.66 1.8a4.928 4.928 0 0 1-1.86 1.3c-.746.293-1.606.44-2.58.44Zm10.898 0c-.92 0-1.807-.107-2.66-.32-.84-.227-1.507-.507-2-.84l1.04-2.24c.493.307 1.073.56 1.74.76.68.187 1.346.28 2 .28.72 0 1.226-.087 1.52-.26.306-.173.46-.413.46-.72 0-.253-.12-.44-.36-.56-.227-.133-.534-.233-.92-.3a45.782 45.782 0 0 0-1.28-.2 17.73 17.73 0 0 1-1.38-.26 4.931 4.931 0 0 1-1.28-.52 2.696 2.696 0 0 1-.94-.92c-.227-.387-.34-.887-.34-1.5 0-.68.193-1.28.58-1.8.4-.52.973-.927 1.72-1.22.746-.307 1.64-.46 2.68-.46.733 0 1.48.08 2.24.24.76.16 1.393.393 1.9.7l-1.04 2.22a5.062 5.062 0 0 0-1.58-.62 6.752 6.752 0 0 0-1.52-.18c-.694 0-1.2.093-1.52.28-.32.187-.48.427-.48.72a.65.65 0 0 0 .34.6c.24.133.553.24.94.32.386.08.806.153 1.26.22.466.053.933.14 1.4.26.466.12.886.293 1.26.52.386.213.7.513.94.9.24.373.36.867.36 1.48 0 .667-.2 1.26-.6 1.78-.4.507-.98.907-1.74 1.2-.747.293-1.66.44-2.74.44Zm10.625 0c-.92 0-1.807-.107-2.66-.32-.84-.227-1.507-.507-2-.84l1.04-2.24c.493.307 1.073.56 1.74.76.68.187 1.346.28 2 .28.72 0 1.226-.087 1.52-.26.306-.173.46-.413.46-.72 0-.253-.12-.44-.36-.56-.227-.133-.534-.233-.92-.3a45.782 45.782 0 0 0-1.28-.2 17.73 17.73 0 0 1-1.38-.26 4.931 4.931 0 0 1-1.28-.52 2.696 2.696 0 0 1-.94-.92c-.227-.387-.34-.887-.34-1.5 0-.68.193-1.28.58-1.8.4-.52.973-.927 1.72-1.22.746-.307 1.64-.46 2.68-.46.733 0 1.48.08 2.24.24.76.16 1.393.393 1.9.7l-1.04 2.22a5.062 5.062 0 0 0-1.58-.62 6.752 6.752 0 0 0-1.52-.18c-.694 0-1.2.093-1.52.28-.32.187-.48.427-.48.72a.65.65 0 0 0 .34.6c.24.133.553.24.94.32.386.08.806.153 1.26.22.466.053.933.14 1.4.26.466.12.886.293 1.26.52.386.213.7.513.94.9.24.373.36.867.36 1.48 0 .667-.2 1.26-.6 1.78-.4.507-.98.907-1.74 1.2-.747.293-1.66.44-2.74.44Z" fill="#5346A5"/><path d="M554.953 33.336V37.5c-.141.208-.364.443-.672.703-.307.255-.732.48-1.273.672-.537.188-1.229.281-2.078.281-.693 0-1.331-.12-1.914-.36a4.318 4.318 0 0 1-1.508-1.062 4.99 4.99 0 0 1-.985-1.703c-.229-.672-.343-1.432-.343-2.281v-.883c0-.849.099-1.607.297-2.273.203-.667.5-1.232.89-1.696.391-.468.87-.822 1.438-1.062.567-.245 1.218-.367 1.953-.367.87 0 1.596.15 2.18.453a3.368 3.368 0 0 1 1.374 1.234 4.46 4.46 0 0 1 .641 1.797h-1.508a3.152 3.152 0 0 0-.406-1.125 2.177 2.177 0 0 0-.851-.812c-.37-.209-.847-.313-1.43-.313-.526 0-.982.096-1.367.29a2.511 2.511 0 0 0-.953.827 3.88 3.88 0 0 0-.563 1.305c-.12.51-.18 1.086-.18 1.727v.898c0 .656.076 1.242.227 1.758.156.515.377.956.664 1.32.286.36.628.633 1.023.82.401.188.844.282 1.329.282.536 0 .971-.045 1.304-.133.334-.094.594-.203.781-.328.188-.13.331-.253.43-.367v-2.547h-2.633v-1.22h4.133Zm3.852-2.79V39h-1.453v-8.453h1.453Zm-1.563-2.241a.87.87 0 0 1 .211-.594c.146-.162.359-.242.641-.242.276 0 .487.08.633.242.151.161.226.36.226.594a.817.817 0 0 1-.226.578c-.146.156-.357.234-.633.234-.282 0-.495-.078-.641-.234a.85.85 0 0 1-.211-.578Zm6.453 9.39 2.313-7.148h1.476L564.445 39h-.968l.218-1.305Zm-1.929-7.148 2.382 7.187.164 1.266h-.968l-3.063-8.453h1.485Zm8.679 0V39h-1.453v-8.453h1.453Zm-1.562-2.242a.87.87 0 0 1 .211-.594c.146-.162.359-.242.64-.242.276 0 .487.08.633.242.151.161.227.36.227.594a.818.818 0 0 1-.227.578c-.146.156-.357.234-.633.234-.281 0-.494-.078-.64-.234a.85.85 0 0 1-.211-.578Zm5.328 4.047V39h-1.445v-8.453h1.367l.078 1.805Zm-.344 2.101-.601-.023a5.098 5.098 0 0 1 .257-1.602c.167-.495.401-.924.704-1.289a3.128 3.128 0 0 1 1.078-.844 3.181 3.181 0 0 1 1.398-.304c.417 0 .792.057 1.125.172.333.109.617.286.852.53.239.245.422.563.547.954.125.385.187.857.187 1.414V39h-1.453v-5.555c0-.442-.065-.797-.195-1.062a1.206 1.206 0 0 0-.571-.586c-.25-.125-.557-.188-.922-.188a2.14 2.14 0 0 0-.984.227c-.292.151-.544.36-.758.625-.208.266-.372.57-.492.914a3.329 3.329 0 0 0-.172 1.078Zm13.219-3.906h1.312v8.273c0 .745-.151 1.38-.453 1.907a2.954 2.954 0 0 1-1.265 1.195c-.537.276-1.157.414-1.86.414-.291 0-.635-.047-1.031-.14a4.15 4.15 0 0 1-1.156-.462 2.886 2.886 0 0 1-.945-.867l.757-.86c.354.428.724.725 1.11.891.39.167.776.25 1.156.25.458 0 .854-.086 1.187-.257.334-.172.592-.427.774-.766.187-.333.281-.745.281-1.234v-6.485l.133-1.86Zm-5.82 4.32v-.164c0-.646.075-1.232.226-1.758.156-.53.378-.987.664-1.367a2.98 2.98 0 0 1 1.055-.875 3.034 3.034 0 0 1 1.391-.312c.531 0 .994.093 1.39.28.401.183.74.451 1.016.806.281.349.502.77.664 1.265.161.495.273 1.055.336 1.68v.719a7.328 7.328 0 0 1-.336 1.672 3.959 3.959 0 0 1-.664 1.265 2.78 2.78 0 0 1-1.016.805c-.401.182-.87.273-1.406.273-.505 0-.964-.106-1.375-.32a3.137 3.137 0 0 1-1.047-.898 4.243 4.243 0 0 1-.672-1.36 6.18 6.18 0 0 1-.226-1.71Zm1.445-.164v.164c0 .422.042.818.125 1.188.088.37.221.695.398.976.183.282.414.503.696.664.281.157.617.235 1.008.235.479 0 .874-.102 1.187-.305.313-.203.56-.471.742-.805.188-.333.334-.695.438-1.086v-1.882a3.87 3.87 0 0 0-.266-.829 2.57 2.57 0 0 0-.453-.718 1.955 1.955 0 0 0-.68-.508 2.254 2.254 0 0 0-.953-.188c-.396 0-.737.084-1.023.25a1.995 1.995 0 0 0-.696.672c-.177.282-.31.61-.398.985-.083.37-.125.765-.125 1.187ZM596.719 39h-1.446v-9.344c0-.61.11-1.122.329-1.539.224-.422.544-.74.96-.953.417-.219.912-.328 1.485-.328a4.034 4.034 0 0 1 1 .125l-.078 1.18a2.43 2.43 0 0 0-.375-.055 5.316 5.316 0 0 0-.406-.016c-.308 0-.573.063-.797.188-.219.12-.386.297-.5.531-.115.234-.172.523-.172.867V39Zm1.797-8.453v1.11h-4.578v-1.11h4.578Zm1.226 4.32v-.18c0-.609.089-1.174.266-1.695a4.03 4.03 0 0 1 .765-1.367c.334-.39.737-.693 1.211-.906a3.761 3.761 0 0 1 1.594-.328c.594 0 1.128.109 1.602.328.479.213.885.515 1.218.906.339.385.597.841.774 1.367.177.521.266 1.086.266 1.696v.18c0 .609-.089 1.174-.266 1.694-.177.521-.435.977-.774 1.368a3.545 3.545 0 0 1-1.21.906c-.469.214-1 .32-1.594.32a3.858 3.858 0 0 1-1.602-.32 3.628 3.628 0 0 1-1.219-.906 4.133 4.133 0 0 1-.765-1.367 5.237 5.237 0 0 1-.266-1.696Zm1.446-.18v.18c0 .422.049.82.148 1.196.099.37.247.697.445.984.203.286.456.513.758.68.302.161.654.242 1.055.242.396 0 .742-.081 1.039-.242.302-.167.552-.394.75-.68.198-.287.346-.615.445-.984.104-.376.156-.774.156-1.196v-.18c0-.416-.052-.81-.156-1.18a3.041 3.041 0 0 0-.453-.991 2.156 2.156 0 0 0-.75-.688 2.105 2.105 0 0 0-1.047-.25c-.396 0-.745.084-1.047.25a2.247 2.247 0 0 0-.75.688 3.136 3.136 0 0 0-.445.992c-.099.37-.148.763-.148 1.18Zm9.507-2.812V39h-1.445v-8.453h1.406l.039 1.328Zm2.641-1.375-.008 1.344a2.078 2.078 0 0 0-.344-.047 3.652 3.652 0 0 0-.359-.016c-.333 0-.628.052-.883.157-.255.104-.471.25-.648.437a2.104 2.104 0 0 0-.422.672 3.217 3.217 0 0 0-.195.844l-.407.234c0-.51.05-.99.149-1.438.104-.447.263-.843.476-1.187.214-.349.485-.62.813-.813.333-.197.729-.296 1.187-.296.104 0 .224.013.36.039.135.02.229.044.281.07Zm2.773 1.727V39h-1.453v-8.453h1.375l.078 1.68Zm-.297 2.226-.671-.023a5.76 5.76 0 0 1 .226-1.602c.146-.495.362-.924.649-1.289a2.877 2.877 0 0 1 1.07-.844c.427-.203.922-.304 1.484-.304.396 0 .761.057 1.094.172.333.109.622.283.867.523.245.24.435.547.571.922.135.375.203.828.203 1.36V39h-1.446v-5.563c0-.442-.075-.796-.226-1.062a1.295 1.295 0 0 0-.625-.578 2.257 2.257 0 0 0-.953-.188c-.427 0-.784.076-1.071.227-.286.151-.515.36-.687.625a2.81 2.81 0 0 0-.375.914c-.073.339-.11.698-.11 1.078Zm5.477-.797-.969.297c.006-.463.081-.909.227-1.336.151-.427.367-.807.648-1.14a3.072 3.072 0 0 1 1.055-.79c.417-.197.893-.296 1.43-.296a3.7 3.7 0 0 1 1.203.18c.354.12.651.304.89.554.245.245.43.56.555.945.125.386.188.844.188 1.375V39h-1.454v-5.57c0-.474-.075-.841-.226-1.102a1.18 1.18 0 0 0-.625-.555 2.5 2.5 0 0 0-.953-.164c-.318 0-.599.055-.844.164-.245.11-.45.26-.617.454a1.98 1.98 0 0 0-.383.648 2.417 2.417 0 0 0-.125.781Zm14.922-3.11v1.11h-4.57v-1.11h4.57Zm-3.023-2.054h1.445v8.414c0 .287.044.503.133.649a.634.634 0 0 0 .343.289c.141.047.292.07.453.07.12 0 .245-.01.376-.031.135-.026.236-.047.304-.063l.008 1.18a3.41 3.41 0 0 1-.453.102 3.451 3.451 0 0 1-.664.054c-.354 0-.68-.07-.977-.21-.297-.141-.534-.376-.711-.704-.172-.333-.257-.781-.257-1.344v-8.406Zm4.179 6.375v-.18c0-.609.089-1.174.266-1.695a4.03 4.03 0 0 1 .765-1.367c.334-.39.737-.693 1.211-.906a3.761 3.761 0 0 1 1.594-.328c.594 0 1.128.109 1.602.328.479.213.885.515 1.218.906.339.385.597.841.774 1.367.177.521.265 1.086.265 1.696v.18c0 .609-.088 1.174-.265 1.694-.177.521-.435.977-.774 1.368a3.54 3.54 0 0 1-1.211.906c-.468.214-1 .32-1.593.32a3.858 3.858 0 0 1-1.602-.32 3.628 3.628 0 0 1-1.219-.906 4.133 4.133 0 0 1-.765-1.367 5.237 5.237 0 0 1-.266-1.696Zm1.445-.18v.18c0 .422.05.82.149 1.196.099.37.247.697.445.984.203.286.456.513.758.68.302.161.654.242 1.055.242.396 0 .742-.081 1.039-.242.302-.167.552-.394.75-.68.198-.287.346-.615.445-.984.104-.376.156-.774.156-1.196v-.18c0-.416-.052-.81-.156-1.18a3.041 3.041 0 0 0-.453-.991 2.156 2.156 0 0 0-.75-.688 2.105 2.105 0 0 0-1.047-.25c-.396 0-.745.084-1.047.25a2.247 2.247 0 0 0-.75.688 3.136 3.136 0 0 0-.445.992c-.099.37-.149.763-.149 1.18Zm-81.226 14.86v1.11h-4.57v-1.11h4.57Zm-3.024-2.055h1.446v8.414c0 .287.044.503.133.649a.634.634 0 0 0 .343.289c.141.047.292.07.454.07.119 0 .244-.01.374-.031.136-.026.237-.047.305-.063l.008 1.18a3.41 3.41 0 0 1-.453.102 3.451 3.451 0 0 1-.664.054c-.354 0-.68-.07-.977-.21-.297-.141-.534-.376-.711-.704-.172-.333-.258-.781-.258-1.344v-8.406ZM560.727 46v12h-1.446V46h1.446Zm-.344 7.453-.602-.023a5.07 5.07 0 0 1 .258-1.602c.167-.495.401-.924.703-1.289a3.137 3.137 0 0 1 2.477-1.148c.416 0 .791.057 1.125.172.333.109.617.286.851.53.24.245.422.563.547.954.125.385.188.857.188 1.414V58h-1.453v-5.555c0-.442-.066-.797-.196-1.062a1.2 1.2 0 0 0-.57-.586c-.25-.125-.557-.188-.922-.188a2.14 2.14 0 0 0-.984.227c-.292.151-.545.36-.758.625-.208.266-.373.57-.492.914a3.329 3.329 0 0 0-.172 1.078Zm11.219 4.703A4.158 4.158 0 0 1 570 57.86a3.636 3.636 0 0 1-1.227-.851 3.791 3.791 0 0 1-.781-1.297 4.763 4.763 0 0 1-.273-1.64v-.329c0-.687.101-1.3.304-1.836.204-.541.48-1 .829-1.375a3.543 3.543 0 0 1 1.187-.851c.443-.193.901-.29 1.375-.29.604 0 1.125.105 1.563.313.442.208.804.5 1.085.875.282.37.49.807.626 1.313.135.5.203 1.047.203 1.64v.649h-6.313V53h4.867v-.11a3.621 3.621 0 0 0-.234-1.093 1.968 1.968 0 0 0-.625-.875c-.287-.23-.677-.344-1.172-.344a1.966 1.966 0 0 0-1.617.82 3.06 3.06 0 0 0-.461.993c-.109.39-.164.84-.164 1.351v.328c0 .401.055.779.164 1.133.115.35.279.656.492.922.219.266.482.474.789.625.313.151.667.227 1.063.227.51 0 .942-.105 1.297-.313.354-.208.664-.487.929-.836l.875.695c-.182.276-.414.54-.695.79-.281.25-.628.453-1.039.609-.406.156-.888.234-1.445.234Zm13.929-1.601v-4.352c0-.333-.067-.622-.203-.867a1.327 1.327 0 0 0-.594-.578c-.265-.136-.593-.203-.984-.203-.365 0-.685.062-.961.187a1.678 1.678 0 0 0-.641.492 1.078 1.078 0 0 0-.226.657h-1.445c0-.302.078-.602.234-.899a2.62 2.62 0 0 1 .672-.804 3.362 3.362 0 0 1 1.062-.579 4.192 4.192 0 0 1 1.391-.218c.615 0 1.156.104 1.625.312.474.208.844.524 1.109.945.271.417.407.94.407 1.57v3.938c0 .282.023.581.07.899.052.317.127.59.226.82V58h-1.507a2.666 2.666 0 0 1-.172-.664 5.313 5.313 0 0 1-.063-.781Zm.25-3.68.016 1.016h-1.461c-.412 0-.779.034-1.102.101a2.518 2.518 0 0 0-.812.29c-.219.13-.386.294-.5.491-.115.193-.172.42-.172.68 0 .266.06.508.18.727a1.3 1.3 0 0 0 .539.523c.245.125.544.188.898.188.443 0 .834-.094 1.172-.282.339-.187.607-.416.805-.687.203-.271.312-.534.328-.79l.617.696c-.036.219-.135.461-.297.727a3.518 3.518 0 0 1-1.601 1.367 3.108 3.108 0 0 1-1.235.234c-.573 0-1.075-.112-1.508-.336a2.581 2.581 0 0 1-1-.898 2.381 2.381 0 0 1-.351-1.274c0-.453.088-.851.265-1.195a2.32 2.32 0 0 1 .766-.867 3.633 3.633 0 0 1 1.203-.531c.469-.12.992-.18 1.571-.18h1.679ZM589.242 46h1.453v10.36L590.57 58h-1.328V46Zm7.164 7.703v.164c0 .615-.073 1.185-.218 1.711-.146.521-.36.974-.641 1.36a2.984 2.984 0 0 1-1.031.898c-.407.214-.873.32-1.399.32-.536 0-1.008-.09-1.414-.273a2.777 2.777 0 0 1-1.015-.805 4.147 4.147 0 0 1-.665-1.266 7.975 7.975 0 0 1-.335-1.671v-.72a7.984 7.984 0 0 1 .335-1.679c.167-.495.388-.916.665-1.265a2.673 2.673 0 0 1 1.015-.805c.401-.188.867-.281 1.399-.281.531 0 1.002.104 1.414.312.411.203.755.495 1.031.875.281.38.495.836.641 1.367a6.61 6.61 0 0 1 .218 1.758Zm-1.453.164v-.164c0-.422-.039-.818-.117-1.187a3.07 3.07 0 0 0-.375-.985 1.87 1.87 0 0 0-.68-.672c-.281-.166-.627-.25-1.039-.25-.364 0-.682.063-.953.188a2.062 2.062 0 0 0-.68.508 2.712 2.712 0 0 0-.461.718c-.114.266-.2.542-.257.829v1.882c.083.365.218.716.406 1.055.193.333.448.607.765.82.323.214.722.32 1.196.32.39 0 .724-.077 1-.234a1.89 1.89 0 0 0 .68-.664c.177-.281.307-.606.39-.976.083-.37.125-.766.125-1.188Zm8.203 1.89c0-.207-.047-.4-.14-.577-.089-.183-.274-.347-.555-.492-.276-.152-.693-.282-1.25-.391a9.883 9.883 0 0 1-1.273-.352 3.834 3.834 0 0 1-.961-.492 2.063 2.063 0 0 1-.602-.68 1.89 1.89 0 0 1-.211-.914c0-.333.073-.648.219-.945.151-.297.362-.56.633-.789.276-.23.606-.409.992-.54.385-.13.815-.194 1.289-.194.677 0 1.255.12 1.734.359.479.24.847.56 1.102.96.255.397.383.837.383 1.321h-1.446c0-.234-.07-.46-.211-.68a1.556 1.556 0 0 0-.601-.554c-.261-.146-.581-.219-.961-.219-.401 0-.727.063-.977.188a1.26 1.26 0 0 0-.539.46 1.164 1.164 0 0 0-.086 1.016c.058.12.157.232.297.336.141.1.339.193.594.281.255.089.581.177.976.266.693.156 1.264.344 1.711.563.448.218.782.486 1 .804.219.318.329.703.329 1.156a2.247 2.247 0 0 1-.899 1.813c-.286.219-.63.39-1.031.516-.396.12-.841.18-1.336.18-.745 0-1.375-.134-1.891-.4-.515-.265-.906-.609-1.172-1.03a2.472 2.472 0 0 1-.398-1.336h1.453c.021.395.136.71.344.945.208.23.463.393.766.492.302.094.601.14.898.14.396 0 .726-.051.992-.156.271-.104.477-.247.617-.43a.993.993 0 0 0 .211-.624Zm6.883-6.21v1.11h-4.57v-1.11h4.57Zm-3.023-2.055h1.445v8.414c0 .287.044.503.133.649a.633.633 0 0 0 .344.289c.14.047.291.07.453.07.119 0 .244-.01.375-.031.135-.026.237-.047.304-.063l.008 1.18c-.114.036-.266.07-.453.102a3.451 3.451 0 0 1-.664.054c-.354 0-.68-.07-.977-.21-.296-.141-.533-.376-.711-.704-.171-.333-.257-.781-.257-1.344v-8.406Zm6.164 3.383V58h-1.446v-8.453h1.407l.039 1.328Zm2.64-1.375-.008 1.344a2.066 2.066 0 0 0-.343-.047 3.66 3.66 0 0 0-.36-.016c-.333 0-.627.052-.882.157-.256.104-.472.25-.649.437a2.104 2.104 0 0 0-.422.672 3.217 3.217 0 0 0-.195.844l-.406.234c0-.51.049-.99.148-1.438.104-.447.263-.843.477-1.187.213-.349.484-.62.812-.813.334-.197.729-.296 1.188-.296.104 0 .224.013.359.039.135.02.229.044.281.07Zm6.008 7.055v-4.352c0-.333-.068-.622-.203-.867a1.327 1.327 0 0 0-.594-.578c-.265-.136-.593-.203-.984-.203-.365 0-.685.062-.961.187a1.678 1.678 0 0 0-.641.492 1.078 1.078 0 0 0-.226.657h-1.446c0-.302.079-.602.235-.899a2.62 2.62 0 0 1 .672-.804 3.362 3.362 0 0 1 1.062-.579c.417-.145.88-.218 1.391-.218.614 0 1.156.104 1.625.312.474.208.844.524 1.109.945.271.417.406.94.406 1.57v3.938c0 .282.024.581.071.899.052.317.127.59.226.82V58h-1.508a2.715 2.715 0 0 1-.171-.664 5.313 5.313 0 0 1-.063-.781Zm.25-3.68.016 1.016h-1.461c-.412 0-.779.034-1.102.101a2.518 2.518 0 0 0-.812.29c-.219.13-.386.294-.5.491-.115.193-.172.42-.172.68 0 .266.06.508.18.727a1.3 1.3 0 0 0 .539.523c.244.125.544.188.898.188a2.38 2.38 0 0 0 1.172-.282c.338-.187.607-.416.805-.687.203-.271.312-.534.328-.79l.617.696a2.099 2.099 0 0 1-.297.727 3.483 3.483 0 0 1-1.601 1.367 3.112 3.112 0 0 1-1.235.234c-.573 0-1.075-.112-1.508-.336a2.581 2.581 0 0 1-1-.898 2.381 2.381 0 0 1-.351-1.274c0-.453.088-.851.265-1.195.177-.349.433-.638.766-.867a3.633 3.633 0 0 1 1.203-.531c.469-.12.992-.18 1.57-.18h1.68Zm6.852 4.094c.343 0 .661-.07.953-.211.291-.14.531-.334.719-.578.187-.25.294-.534.32-.852h1.375c-.026.5-.195.966-.508 1.399a3.465 3.465 0 0 1-1.211 1.039c-.5.26-1.049.39-1.648.39-.636 0-1.19-.112-1.664-.336a3.29 3.29 0 0 1-1.172-.922 4.12 4.12 0 0 1-.696-1.343 5.672 5.672 0 0 1-.226-1.617v-.329c0-.567.075-1.104.226-1.609.157-.51.388-.96.696-1.352.312-.39.703-.698 1.172-.921.474-.224 1.028-.336 1.664-.336.661 0 1.239.135 1.734.406.495.266.883.63 1.164 1.094.287.458.443.979.469 1.562h-1.375a2.08 2.08 0 0 0-.297-.945 1.858 1.858 0 0 0-.687-.672 1.925 1.925 0 0 0-1.008-.258c-.443 0-.815.089-1.118.266a1.96 1.96 0 0 0-.71.703 3.275 3.275 0 0 0-.375.976c-.073.355-.11.717-.11 1.086v.328c0 .37.037.735.11 1.094.072.36.195.685.367.977.177.291.414.526.711.703.302.172.677.258 1.125.258Zm8.531-7.422v1.11h-4.57v-1.11h4.57Zm-3.023-2.055h1.445v8.414c0 .287.044.503.133.649a.634.634 0 0 0 .343.289c.141.047.292.07.453.07.12 0 .245-.01.376-.031.135-.026.236-.047.304-.063L637.5 58a3.41 3.41 0 0 1-.453.102 3.451 3.451 0 0 1-.664.054c-.354 0-.68-.07-.977-.21-.297-.141-.534-.376-.711-.704-.172-.333-.257-.781-.257-1.344v-8.406ZM785.078 37.773V39h-6.023v-1.227h6.023Zm-5.719-10.148V39h-1.507V27.625h1.507Zm4.922 4.89v1.227h-5.226v-1.226h5.226Zm.719-4.89v1.234h-5.945v-1.234H785Zm3.172 4.727V39h-1.445v-8.453h1.367l.078 1.805Zm-.344 2.101-.601-.023a5.098 5.098 0 0 1 .257-1.602c.167-.495.401-.924.704-1.289a3.128 3.128 0 0 1 1.078-.844 3.181 3.181 0 0 1 1.398-.304c.417 0 .792.057 1.125.172.333.109.617.286.852.53.239.245.421.563.547.954.124.385.187.857.187 1.414V39h-1.453v-5.555c0-.442-.065-.797-.195-1.062a1.206 1.206 0 0 0-.571-.586c-.25-.125-.557-.188-.922-.188a2.14 2.14 0 0 0-.984.227c-.292.151-.544.36-.758.625-.208.266-.372.57-.492.914a3.329 3.329 0 0 0-.172 1.078ZM797.016 27v12h-1.446V27h1.446Zm-.344 7.453-.602-.023a5.098 5.098 0 0 1 .258-1.602c.167-.495.401-.924.703-1.289a3.137 3.137 0 0 1 2.477-1.148c.416 0 .791.057 1.125.172.333.109.617.286.851.53.24.245.422.563.547.954.125.385.188.857.188 1.414V39h-1.453v-5.555c0-.442-.065-.797-.196-1.062a1.2 1.2 0 0 0-.57-.586c-.25-.125-.557-.188-.922-.188a2.14 2.14 0 0 0-.984.227c-.292.151-.545.36-.758.625-.208.266-.372.57-.492.914a3.329 3.329 0 0 0-.172 1.078Zm12.695 3.102v-4.352c0-.333-.068-.622-.203-.867a1.327 1.327 0 0 0-.594-.578c-.265-.136-.593-.203-.984-.203-.365 0-.685.062-.961.187a1.678 1.678 0 0 0-.641.492 1.078 1.078 0 0 0-.226.657h-1.446c0-.302.079-.602.235-.899a2.62 2.62 0 0 1 .672-.805 3.362 3.362 0 0 1 1.062-.578c.417-.146.88-.218 1.391-.218.614 0 1.156.104 1.625.312.474.209.844.524 1.109.945.271.417.406.94.406 1.57v3.938c0 .282.024.581.071.899.052.317.127.59.226.82V39h-1.507a2.666 2.666 0 0 1-.172-.664 5.313 5.313 0 0 1-.063-.781Zm.25-3.68.016 1.016h-1.461c-.412 0-.779.034-1.102.101a2.518 2.518 0 0 0-.812.29c-.219.13-.386.294-.5.491-.115.193-.172.42-.172.68 0 .266.06.508.18.727a1.3 1.3 0 0 0 .539.523c.244.125.544.188.898.188a2.38 2.38 0 0 0 1.172-.282c.339-.187.607-.416.805-.687.203-.271.312-.534.328-.79l.617.696c-.036.219-.135.461-.297.727a3.518 3.518 0 0 1-1.601 1.367 3.108 3.108 0 0 1-1.235.234c-.573 0-1.075-.112-1.508-.336a2.581 2.581 0 0 1-1-.898 2.381 2.381 0 0 1-.351-1.274c0-.453.088-.851.265-1.195a2.32 2.32 0 0 1 .766-.867 3.633 3.633 0 0 1 1.203-.531c.469-.12.992-.18 1.571-.18h1.679Zm4.914-1.523V39h-1.445v-8.453h1.367l.078 1.805Zm-.343 2.101-.602-.023a5.07 5.07 0 0 1 .258-1.602c.166-.495.401-.924.703-1.289a3.128 3.128 0 0 1 1.078-.844 3.181 3.181 0 0 1 1.398-.304c.417 0 .792.057 1.125.172.334.109.618.286.852.53.24.245.422.563.547.954.125.385.187.857.187 1.414V39h-1.453v-5.555c0-.442-.065-.797-.195-1.062a1.2 1.2 0 0 0-.57-.586c-.25-.125-.558-.188-.922-.188-.36 0-.688.076-.985.227-.291.151-.544.36-.757.625-.209.266-.373.57-.493.914a3.356 3.356 0 0 0-.171 1.078Zm11.124 3.516c.344 0 .662-.07.954-.211.291-.14.531-.334.718-.578.188-.25.295-.534.321-.852h1.375c-.026.5-.196.966-.508 1.399a3.465 3.465 0 0 1-1.211 1.039c-.5.26-1.05.39-1.649.39-.635 0-1.19-.112-1.664-.336a3.296 3.296 0 0 1-1.171-.922 4.12 4.12 0 0 1-.696-1.343 5.672 5.672 0 0 1-.226-1.617v-.329c0-.567.075-1.104.226-1.609.157-.51.388-.96.696-1.352.312-.39.703-.697 1.171-.921.474-.224 1.029-.336 1.664-.336.662 0 1.24.135 1.735.406.495.265.883.63 1.164 1.094.286.458.443.979.469 1.562h-1.375a2.08 2.08 0 0 0-.297-.945 1.853 1.853 0 0 0-.688-.672 1.92 1.92 0 0 0-1.008-.258c-.442 0-.815.089-1.117.266a1.955 1.955 0 0 0-.711.703 3.303 3.303 0 0 0-.375.976A5.366 5.366 0 0 0 823 34.61v.328c0 .37.036.735.109 1.094.073.36.196.685.368.977.177.291.414.526.711.703.302.172.677.258 1.124.258Zm6.563-7.422V39h-1.453v-8.453h1.453Zm-1.563-2.242c0-.235.071-.433.211-.594.146-.162.36-.242.641-.242.276 0 .487.08.633.242.151.161.226.36.226.594a.817.817 0 0 1-.226.578c-.146.156-.357.234-.633.234-.281 0-.495-.078-.641-.234a.854.854 0 0 1-.211-.578Zm5.329 4.047V39h-1.446v-8.453h1.367l.079 1.805Zm-.344 2.101-.602-.023a5.098 5.098 0 0 1 .258-1.602c.167-.495.401-.924.703-1.289a3.137 3.137 0 0 1 2.477-1.148c.416 0 .791.057 1.125.172.333.109.617.286.851.53.24.245.422.563.547.954.125.385.188.857.188 1.414V39h-1.453v-5.555c0-.442-.065-.797-.196-1.062a1.2 1.2 0 0 0-.57-.586c-.25-.125-.557-.188-.922-.188a2.14 2.14 0 0 0-.984.227c-.292.151-.545.36-.758.625-.208.266-.372.57-.492.914a3.329 3.329 0 0 0-.172 1.078Zm13.219-3.906h1.312v8.273c0 .745-.151 1.38-.453 1.907a2.95 2.95 0 0 1-1.266 1.195c-.536.276-1.156.414-1.859.414-.292 0-.635-.047-1.031-.14a4.169 4.169 0 0 1-1.157-.462 2.896 2.896 0 0 1-.945-.867l.758-.86c.354.428.724.725 1.109.891.391.167.776.25 1.157.25.458 0 .854-.086 1.187-.257.333-.172.591-.427.774-.766.187-.333.281-.745.281-1.234v-6.485l.133-1.86Zm-5.821 4.32v-.164c0-.646.076-1.232.227-1.758.156-.53.377-.987.664-1.367a2.98 2.98 0 0 1 1.055-.875 3.033 3.033 0 0 1 1.39-.312c.531 0 .995.093 1.391.28.401.183.739.451 1.016.806.281.349.502.77.664 1.265.161.495.273 1.055.336 1.68v.719a7.437 7.437 0 0 1-.336 1.672 3.959 3.959 0 0 1-.664 1.265 2.788 2.788 0 0 1-1.016.805c-.401.182-.87.273-1.406.273-.506 0-.964-.106-1.375-.32a3.118 3.118 0 0 1-1.047-.898 4.243 4.243 0 0 1-.672-1.36 6.179 6.179 0 0 1-.227-1.71Zm1.446-.164v.164c0 .422.041.818.125 1.188.088.37.221.695.398.976.182.282.414.503.695.664.282.157.618.235 1.008.235.479 0 .875-.102 1.188-.305.312-.203.56-.471.742-.805a4.66 4.66 0 0 0 .437-1.086v-1.882a3.812 3.812 0 0 0-.265-.829 2.57 2.57 0 0 0-.453-.718 1.964 1.964 0 0 0-.68-.508 2.257 2.257 0 0 0-.953-.188c-.396 0-.737.084-1.024.25a1.992 1.992 0 0 0-.695.672c-.177.282-.31.61-.398.985-.084.37-.125.765-.125 1.187Zm16.836 2.852v-4.352c0-.333-.068-.622-.204-.867a1.33 1.33 0 0 0-.593-.578c-.266-.136-.594-.203-.985-.203-.364 0-.685.062-.961.187-.27.125-.484.29-.64.492a1.08 1.08 0 0 0-.227.657h-1.445c0-.302.078-.602.234-.899a2.62 2.62 0 0 1 .672-.805 3.356 3.356 0 0 1 1.063-.578c.416-.146.88-.218 1.39-.218.615 0 1.157.104 1.625.312.474.209.844.524 1.11.945.27.417.406.94.406 1.57v3.938c0 .282.023.581.07.899.052.317.128.59.227.82V39h-1.508a2.71 2.71 0 0 1-.172-.664 5.304 5.304 0 0 1-.062-.781Zm.25-3.68.015 1.016h-1.461c-.411 0-.778.034-1.101.101a2.524 2.524 0 0 0-.813.29c-.219.13-.385.294-.5.491a1.31 1.31 0 0 0-.172.68c0 .266.06.508.18.727.12.218.299.393.539.523.245.125.544.188.898.188.443 0 .834-.094 1.172-.282.339-.187.607-.416.805-.687.203-.271.313-.534.328-.79l.617.696c-.036.219-.135.461-.296.727a3.489 3.489 0 0 1-1.602 1.367 3.107 3.107 0 0 1-1.234.234c-.573 0-1.076-.112-1.508-.336a2.574 2.574 0 0 1-1-.898 2.373 2.373 0 0 1-.352-1.274c0-.453.089-.851.266-1.195.177-.349.432-.638.765-.867a3.648 3.648 0 0 1 1.204-.531 6.34 6.34 0 0 1 1.57-.18h1.68Zm4.914-1.523V39h-1.446v-8.453h1.367l.079 1.805Zm-.344 2.101-.602-.023a5.098 5.098 0 0 1 .258-1.602c.167-.495.401-.924.703-1.289a3.137 3.137 0 0 1 2.477-1.148c.416 0 .791.057 1.125.172.333.109.617.286.851.53.24.245.422.563.547.954.125.385.188.857.188 1.414V39h-1.453v-5.555c0-.442-.065-.797-.196-1.062a1.2 1.2 0 0 0-.57-.586c-.25-.125-.557-.188-.922-.188a2.14 2.14 0 0 0-.984.227c-.292.151-.545.36-.758.625-.208.266-.372.57-.492.914a3.329 3.329 0 0 0-.172 1.078Zm13.07 2.906V27h1.453v12h-1.328l-.125-1.64Zm-5.687-2.492v-.164c0-.646.078-1.232.234-1.758a4.26 4.26 0 0 1 .68-1.367c.297-.38.648-.672 1.054-.875.412-.208.87-.312 1.375-.312.532 0 .995.093 1.391.28.401.183.74.451 1.016.806.281.349.502.77.664 1.265.161.495.273 1.055.336 1.68v.719a7.437 7.437 0 0 1-.336 1.672 3.959 3.959 0 0 1-.664 1.265 2.78 2.78 0 0 1-1.016.805c-.401.182-.87.273-1.406.273a2.91 2.91 0 0 1-1.36-.32 3.21 3.21 0 0 1-1.054-.898 4.383 4.383 0 0 1-.68-1.36 5.994 5.994 0 0 1-.234-1.71Zm1.453-.164v.164c0 .422.041.818.125 1.188.088.37.224.695.406.976.182.282.414.503.695.664.282.157.618.235 1.008.235.479 0 .873-.102 1.18-.305a2.28 2.28 0 0 0 .75-.805 4.66 4.66 0 0 0 .437-1.086v-1.882a4.127 4.127 0 0 0-.273-.829 2.57 2.57 0 0 0-.453-.718 1.955 1.955 0 0 0-.68-.508 2.204 2.204 0 0 0-.945-.188c-.396 0-.737.084-1.024.25a1.992 1.992 0 0 0-.695.672c-.182.282-.318.61-.406.985-.084.37-.125.765-.125 1.187ZM772.648 56.36V46h1.454v12h-1.329l-.125-1.64Zm-5.687-2.492v-.164c0-.646.078-1.232.234-1.758a4.26 4.26 0 0 1 .68-1.367 3.07 3.07 0 0 1 1.055-.875 2.997 2.997 0 0 1 1.375-.312c.531 0 .994.093 1.39.28.401.183.74.451 1.016.806.281.349.503.77.664 1.265.161.495.273 1.055.336 1.68v.719a7.328 7.328 0 0 1-.336 1.672 3.939 3.939 0 0 1-.664 1.265 2.78 2.78 0 0 1-1.016.805c-.401.182-.869.273-1.406.273-.495 0-.948-.106-1.359-.32a3.203 3.203 0 0 1-1.055-.898 4.383 4.383 0 0 1-.68-1.36 5.994 5.994 0 0 1-.234-1.71Zm1.453-.164v.164c0 .422.042.818.125 1.188.089.37.224.695.406.976.183.282.414.503.696.664.281.157.617.235 1.007.235.48 0 .873-.102 1.18-.305.313-.203.563-.471.75-.805.188-.333.333-.695.438-1.086v-1.882a4.194 4.194 0 0 0-.274-.829 2.526 2.526 0 0 0-.453-.718 1.955 1.955 0 0 0-.68-.508 2.197 2.197 0 0 0-.945-.188c-.396 0-.737.084-1.023.25a1.995 1.995 0 0 0-.696.672c-.182.282-.317.61-.406.985-.083.37-.125.765-.125 1.187Zm11.445 4.453a4.157 4.157 0 0 1-1.601-.297 3.636 3.636 0 0 1-1.227-.851 3.791 3.791 0 0 1-.781-1.297 4.763 4.763 0 0 1-.273-1.64v-.329c0-.687.101-1.3.304-1.836.203-.541.479-1 .828-1.375a3.546 3.546 0 0 1 1.188-.851c.443-.193.901-.29 1.375-.29.604 0 1.125.105 1.562.313.443.208.805.5 1.086.875.282.37.49.807.625 1.313.136.5.203 1.047.203 1.64v.649h-6.312V53h4.867v-.11a3.621 3.621 0 0 0-.234-1.093 1.968 1.968 0 0 0-.625-.875c-.287-.23-.677-.344-1.172-.344a1.966 1.966 0 0 0-1.617.82 3.06 3.06 0 0 0-.461.993c-.11.39-.164.84-.164 1.351v.328c0 .401.054.779.164 1.133.114.35.278.656.492.922.219.266.482.474.789.625.313.151.667.227 1.063.227.51 0 .942-.105 1.296-.313.355-.208.664-.487.93-.836l.875.695c-.182.276-.414.54-.695.79-.282.25-.628.453-1.039.609-.407.156-.888.234-1.446.234Zm8.516-8.61v1.11h-4.57v-1.11h4.57Zm-3.023-2.054h1.445v8.414c0 .287.044.503.133.649a.634.634 0 0 0 .343.289c.141.047.292.07.454.07.119 0 .244-.01.375-.031.135-.026.237-.047.304-.063l.008 1.18a3.41 3.41 0 0 1-.453.102 3.451 3.451 0 0 1-.664.054c-.354 0-.68-.07-.977-.21-.297-.141-.534-.376-.711-.704-.171-.333-.257-.781-.257-1.344v-8.406Zm9.703 9.063v-4.352c0-.333-.068-.622-.203-.867a1.337 1.337 0 0 0-.594-.578c-.266-.136-.594-.203-.985-.203-.364 0-.684.062-.961.187-.27.125-.484.29-.64.492a1.08 1.08 0 0 0-.227.657H790c0-.302.078-.602.234-.899.157-.297.381-.565.672-.804a3.356 3.356 0 0 1 1.063-.579c.416-.145.88-.218 1.39-.218.615 0 1.157.104 1.625.312.474.208.844.524 1.11.945.271.417.406.94.406 1.57v3.938c0 .282.023.581.07.899.052.317.128.59.227.82V58h-1.508a2.71 2.71 0 0 1-.172-.664 5.444 5.444 0 0 1-.062-.781Zm.25-3.68.015 1.016h-1.461c-.411 0-.778.034-1.101.101a2.524 2.524 0 0 0-.813.29c-.218.13-.385.294-.5.491a1.31 1.31 0 0 0-.172.68c0 .266.06.508.18.727.12.218.3.393.539.523.245.125.544.188.899.188.442 0 .833-.094 1.171-.282.339-.187.607-.416.805-.687.203-.271.313-.534.328-.79l.617.696c-.036.219-.135.461-.296.727a3.489 3.489 0 0 1-1.602 1.367 3.107 3.107 0 0 1-1.234.234c-.573 0-1.076-.112-1.508-.336a2.574 2.574 0 0 1-1-.898 2.382 2.382 0 0 1-.352-1.274c0-.453.089-.851.266-1.195.177-.349.432-.638.766-.867a3.633 3.633 0 0 1 1.203-.531 6.34 6.34 0 0 1 1.57-.18h1.68Zm5.039-3.328V58h-1.453v-8.453h1.453Zm-1.563-2.242c0-.235.071-.433.211-.594.146-.161.36-.242.641-.242.276 0 .487.08.633.242.151.161.226.36.226.594a.817.817 0 0 1-.226.578c-.146.156-.357.234-.633.234-.281 0-.495-.078-.641-.234a.854.854 0 0 1-.211-.578ZM804.234 46v12h-1.453V46h1.453Zm3.891 3.547V58h-1.453v-8.453h1.453Zm-1.563-2.242c0-.235.071-.433.211-.594.146-.161.36-.242.641-.242.276 0 .487.08.633.242.151.161.226.36.226.594a.817.817 0 0 1-.226.578c-.146.156-.357.234-.633.234-.281 0-.495-.078-.641-.234a.854.854 0 0 1-.211-.578Zm5.329 4.047V58h-1.446v-8.453h1.367l.079 1.805Zm-.344 2.101-.602-.023a5.098 5.098 0 0 1 .258-1.602c.167-.495.401-.924.703-1.289a3.137 3.137 0 0 1 2.477-1.148c.416 0 .791.057 1.125.172.333.109.617.286.851.53.24.245.422.563.547.954.125.385.188.857.188 1.414V58h-1.453v-5.555c0-.442-.065-.797-.196-1.062a1.2 1.2 0 0 0-.57-.586c-.25-.125-.557-.188-.922-.188a2.14 2.14 0 0 0-.984.227c-.292.151-.545.36-.758.625-.208.266-.372.57-.492.914a3.329 3.329 0 0 0-.172 1.078Zm13.219-3.906h1.312v8.273c0 .745-.151 1.38-.453 1.907a2.95 2.95 0 0 1-1.266 1.195c-.536.276-1.156.414-1.859.414-.292 0-.635-.047-1.031-.14a4.169 4.169 0 0 1-1.157-.462 2.896 2.896 0 0 1-.945-.867l.758-.86c.354.428.724.725 1.109.891.391.167.776.25 1.157.25.458 0 .854-.086 1.187-.257.333-.172.591-.427.774-.766.187-.333.281-.745.281-1.234v-6.485l.133-1.86Zm-5.821 4.32v-.164c0-.646.076-1.232.227-1.758.156-.53.377-.987.664-1.367a2.98 2.98 0 0 1 1.055-.875 3.033 3.033 0 0 1 1.39-.312c.531 0 .995.093 1.391.28.401.183.739.451 1.016.806.281.349.502.77.664 1.265.161.495.273 1.055.336 1.68v.719a7.437 7.437 0 0 1-.336 1.672 3.959 3.959 0 0 1-.664 1.265 2.788 2.788 0 0 1-1.016.805c-.401.182-.87.273-1.406.273-.506 0-.964-.106-1.375-.32a3.118 3.118 0 0 1-1.047-.898 4.243 4.243 0 0 1-.672-1.36 6.179 6.179 0 0 1-.227-1.71Zm1.446-.164v.164c0 .422.041.818.125 1.188.088.37.221.695.398.976.182.282.414.503.695.664.282.157.618.235 1.008.235.479 0 .875-.102 1.188-.305.312-.203.56-.471.742-.805a4.66 4.66 0 0 0 .437-1.086v-1.882a3.812 3.812 0 0 0-.265-.829 2.57 2.57 0 0 0-.453-.718 1.964 1.964 0 0 0-.68-.508 2.257 2.257 0 0 0-.953-.188c-.396 0-.737.084-1.024.25a1.992 1.992 0 0 0-.695.672c-.177.282-.31.61-.398.985-.084.37-.125.765-.125 1.187Zm15.39-4.156v1.11h-4.57v-1.11h4.57Zm-3.023-2.055h1.445v8.414c0 .287.044.503.133.649a.633.633 0 0 0 .344.289c.14.047.291.07.453.07.12 0 .245-.01.375-.031.135-.026.237-.047.304-.063l.008 1.18c-.114.036-.265.07-.453.102a3.444 3.444 0 0 1-.664.054c-.354 0-.68-.07-.976-.21-.297-.141-.534-.376-.711-.704-.172-.333-.258-.781-.258-1.344v-8.406ZM838.922 46v12h-1.445V46h1.445Zm-.344 7.453-.601-.023a5.098 5.098 0 0 1 .257-1.602c.167-.495.401-.924.704-1.289a3.128 3.128 0 0 1 1.078-.844 3.181 3.181 0 0 1 1.398-.304c.417 0 .792.057 1.125.172.333.109.617.286.852.53.239.245.421.563.547.954.124.385.187.857.187 1.414V58h-1.453v-5.555c0-.442-.065-.797-.195-1.062a1.206 1.206 0 0 0-.571-.586c-.25-.125-.557-.188-.922-.188a2.14 2.14 0 0 0-.984.227c-.292.151-.544.36-.758.625-.208.266-.372.57-.492.914a3.329 3.329 0 0 0-.172 1.078Zm11.219 4.703a4.158 4.158 0 0 1-1.602-.297 3.622 3.622 0 0 1-1.226-.851 3.776 3.776 0 0 1-.781-1.297 4.74 4.74 0 0 1-.274-1.64v-.329c0-.687.102-1.3.305-1.836.203-.541.479-1 .828-1.375a3.553 3.553 0 0 1 1.187-.851c.443-.193.901-.29 1.375-.29.605 0 1.125.105 1.563.313.443.208.805.5 1.086.875.281.37.489.807.625 1.313.135.5.203 1.047.203 1.64v.649h-6.313V53h4.868v-.11a3.592 3.592 0 0 0-.235-1.093 1.96 1.96 0 0 0-.625-.875c-.286-.23-.677-.344-1.172-.344a1.966 1.966 0 0 0-1.617.82 3.08 3.08 0 0 0-.461.993c-.109.39-.164.84-.164 1.351v.328c0 .401.055.779.164 1.133.115.35.279.656.492.922.219.266.482.474.789.625.313.151.667.227 1.063.227.51 0 .943-.105 1.297-.313a3.22 3.22 0 0 0 .93-.836l.875.695c-.183.276-.415.54-.696.79a3.31 3.31 0 0 1-1.039.609c-.406.156-.888.234-1.445.234ZM860.898 58h-1.445v-9.344c0-.61.109-1.122.328-1.539a2.21 2.21 0 0 1 .961-.953c.417-.219.912-.328 1.485-.328a4.046 4.046 0 0 1 1 .125l-.079 1.18a2.394 2.394 0 0 0-.375-.055 5.277 5.277 0 0 0-.406-.016c-.307 0-.573.063-.797.188-.218.12-.385.297-.5.531-.114.234-.172.523-.172.867V58Zm1.797-8.453v1.11h-4.578v-1.11h4.578Zm1.227 4.32v-.18c0-.609.088-1.174.266-1.695a4.03 4.03 0 0 1 .765-1.367c.333-.39.737-.693 1.211-.906a3.758 3.758 0 0 1 1.594-.328c.594 0 1.127.109 1.601.328.48.213.886.515 1.219.906.339.385.596.841.774 1.367.177.521.265 1.086.265 1.696v.18c0 .609-.088 1.174-.265 1.694-.178.521-.435.977-.774 1.368a3.54 3.54 0 0 1-1.211.906c-.469.214-1 .32-1.594.32a3.856 3.856 0 0 1-1.601-.32 3.628 3.628 0 0 1-1.219-.906 4.133 4.133 0 0 1-.765-1.367 5.21 5.21 0 0 1-.266-1.696Zm1.445-.18v.18c0 .422.05.82.149 1.196.099.37.247.697.445.984.203.286.456.513.758.68.302.161.653.242 1.054.242.396 0 .743-.081 1.039-.242.303-.167.553-.394.75-.68.198-.287.347-.615.446-.984.104-.376.156-.774.156-1.196v-.18c0-.416-.052-.81-.156-1.18a3.041 3.041 0 0 0-.453-.991 2.156 2.156 0 0 0-.75-.688 2.105 2.105 0 0 0-1.047-.25c-.396 0-.745.083-1.047.25a2.247 2.247 0 0 0-.75.688 3.136 3.136 0 0 0-.445.992c-.099.37-.149.763-.149 1.18Zm9.508-2.812V58h-1.445v-8.453h1.406l.039 1.328Zm2.641-1.375-.008 1.344a2.092 2.092 0 0 0-.344-.047 3.652 3.652 0 0 0-.359-.016 2.32 2.32 0 0 0-.883.157c-.255.104-.471.25-.649.437a2.102 2.102 0 0 0-.421.672 3.257 3.257 0 0 0-.196.844l-.406.234c0-.51.049-.99.148-1.438.105-.447.263-.843.477-1.187a2.33 2.33 0 0 1 .813-.813c.333-.197.729-.296 1.187-.296.104 0 .224.013.359.039.136.02.23.044.282.07Zm2.773 1.727V58h-1.453v-8.453h1.375l.078 1.68Zm-.297 2.226-.672-.023a5.798 5.798 0 0 1 .227-1.602 3.81 3.81 0 0 1 .648-1.289 2.889 2.889 0 0 1 1.071-.844c.427-.203.922-.304 1.484-.304.396 0 .76.057 1.094.172.333.109.622.283.867.523.245.24.435.547.57.922.136.375.203.828.203 1.36V58h-1.445v-5.563c0-.442-.075-.796-.227-1.062a1.293 1.293 0 0 0-.624-.578 2.259 2.259 0 0 0-.954-.188c-.427 0-.783.076-1.07.227-.286.151-.516.36-.687.625a2.81 2.81 0 0 0-.375.914c-.073.339-.11.698-.11 1.078Zm5.477-.797-.969.297c.005-.463.081-.909.227-1.336.151-.427.367-.807.648-1.14a3.062 3.062 0 0 1 1.055-.79c.416-.197.893-.296 1.429-.296.453 0 .855.06 1.203.18.355.12.652.304.891.554.245.245.43.56.555.945.125.386.187.844.187 1.375V58h-1.453v-5.57c0-.474-.075-.841-.226-1.102a1.184 1.184 0 0 0-.625-.555 2.503 2.503 0 0 0-.953-.164c-.318 0-.599.055-.844.164-.245.11-.451.26-.617.454a1.964 1.964 0 0 0-.383.648 2.39 2.39 0 0 0-.125.781Z" fill="#B6ABFF"/><path opacity=".6" d="m845 106-50-28.868v57.736L845 106Zm-792 5h747v-10H53v10Z" fill="url('#paint0_linear_300_11116')"/><defs><linearGradient id="paint0_linear_300_11116" x1="845" y1="105.996" x2="53" y2="106.006" gradientUnits="userSpaceOnUse"><stop stop-color="#5346A5"/><stop offset="1" stop-color="#3B2D96"/></linearGradient></defs></svg>