<svg width="325" height="100" fill="none" xmlns="http://www.w3.org/2000/svg"><path fill-rule="evenodd" clip-rule="evenodd" d="M115.051 62.312v20.225h8.1v-9.65h7.05c3.133 0 5.833-.5 8.1-1.5 2.266-1.033 4.016-2.5 5.25-4.4 1.233-1.9 1.85-4.15 1.85-6.75 0-2.633-.617-4.9-1.85-6.8-1.234-1.9-2.984-3.35-5.25-4.35-2.267-1.033-4.967-1.55-8.1-1.55h-6.183l-8.967 14.775Zm8.1-8.175v12.15h6.6c2.5 0 4.366-.533 5.6-1.6 1.233-1.067 1.85-2.55 1.85-4.45 0-1.933-.617-3.433-1.85-4.5-1.234-1.067-3.1-1.6-5.6-1.6h-6.6Zm27.434 1.5v26.9h7.8v-12.7c0-2.567.65-4.45 1.95-5.65 1.333-1.233 3.066-1.85 5.2-1.85.3 0 .583.017.85.05.266 0 .566.017.9.05v-7.2c-2.534 0-4.684.5-6.45 1.5a8.447 8.447 0 0 0-2.8 2.432v-3.532h-7.45Zm26.292 25.5c2.234 1.2 4.784 1.8 7.65 1.8 2.834 0 5.367-.6 7.6-1.8 2.234-1.2 3.984-2.833 5.25-4.9 1.267-2.1 1.9-4.483 1.9-7.15 0-2.733-.633-5.133-1.9-7.2-1.266-2.067-3.016-3.683-5.25-4.85-2.233-1.2-4.766-1.8-7.6-1.8-2.866 0-5.416.6-7.65 1.8-2.2 1.167-3.95 2.8-5.25 4.9-1.266 2.067-1.9 4.45-1.9 7.15 0 2.667.634 5.05 1.9 7.15 1.3 2.067 3.05 3.7 5.25 4.9Zm11.15-5.5c-1.033.6-2.2.9-3.5.9-1.3 0-2.466-.3-3.5-.9-1.033-.6-1.866-1.45-2.5-2.55-.6-1.133-.9-2.467-.9-4 0-1.567.3-2.9.9-4 .634-1.1 1.467-1.95 2.5-2.55 1.034-.6 2.2-.9 3.5-.9 1.3 0 2.467.3 3.5.9 1.034.6 1.85 1.45 2.45 2.55.6 1.1.9 2.433.9 4 0 1.533-.3 2.867-.9 4-.6 1.1-1.416 1.95-2.45 2.55Zm11.014 16.6c1.1.267 2.25.4 3.45.4 3.233 0 5.733-.917 7.5-2.75 1.767-1.833 2.65-4.3 2.65-7.4v-26.85h-7.8v26.9c0 1.3-.3 2.267-.9 2.9-.567.667-1.333 1-2.3 1-1.3 0-2.4-.317-3.3-.95l-2.1 5.65c.767.5 1.7.867 2.8 1.1Zm6.2-41.6c.9.833 2.067 1.25 3.5 1.25 1.467 0 2.633-.417 3.5-1.25.9-.867 1.35-1.95 1.35-3.25 0-1.233-.45-2.233-1.35-3-.9-.8-2.067-1.2-3.5-1.2-1.433 0-2.6.417-3.5 1.25-.9.833-1.35 1.867-1.35 3.1s.45 2.267 1.35 3.1Zm19.832 30.5c2.333 1.2 5.033 1.8 8.1 1.8 2.433 0 4.583-.367 6.45-1.1 1.867-.767 3.417-1.85 4.65-3.25l-4.15-4.5a9.12 9.12 0 0 1-3 1.95c-1.067.433-2.317.65-3.75.65-1.6 0-3-.283-4.2-.85a6.767 6.767 0 0 1-2.75-2.55 7.26 7.26 0 0 1-.753-2h20.353c.033-.333.067-.683.1-1.05.033-.4.05-.75.05-1.05 0-2.9-.617-5.383-1.85-7.45-1.233-2.1-2.917-3.7-5.05-4.8-2.1-1.133-4.467-1.7-7.1-1.7-2.733 0-5.183.6-7.35 1.8a13.235 13.235 0 0 0-5.15 4.9c-1.233 2.067-1.85 4.45-1.85 7.15 0 2.667.633 5.05 1.9 7.15 1.267 2.067 3.05 3.7 5.35 4.9Zm.507-14.4a6.82 6.82 0 0 1 .743-2.25c.567-1.067 1.35-1.883 2.35-2.45 1.033-.6 2.217-.9 3.55-.9 1.333 0 2.5.3 3.5.9a6.034 6.034 0 0 1 2.35 2.4c.376.686.627 1.453.754 2.3H225.58Zm31.036 14.45c2.267 1.167 4.85 1.75 7.75 1.75 2.833 0 5.3-.583 7.4-1.75 2.1-1.2 3.65-2.883 4.65-5.05l-6.05-3.3c-.7 1.3-1.583 2.25-2.65 2.85-1.033.567-2.167.85-3.4.85-1.333 0-2.533-.3-3.6-.9-1.067-.6-1.917-1.45-2.55-2.55-.6-1.1-.9-2.433-.9-4 0-1.567.3-2.9.9-4 .633-1.1 1.483-1.95 2.55-2.55 1.067-.6 2.267-.9 3.6-.9 1.233 0 2.367.3 3.4.9 1.067.6 1.95 1.533 2.65 2.8l6.05-3.25c-1-2.2-2.55-3.883-4.65-5.05-2.1-1.2-4.567-1.8-7.4-1.8-2.9 0-5.483.6-7.75 1.8-2.267 1.167-4.05 2.8-5.35 4.9-1.267 2.067-1.9 4.45-1.9 7.15 0 2.667.633 5.05 1.9 7.15 1.3 2.1 3.083 3.75 5.35 4.95Zm28.282-.65c1.766 1.6 4.233 2.4 7.4 2.4 1.2 0 2.35-.133 3.45-.4 1.133-.3 2.1-.733 2.9-1.3l-2.1-5.5c-.867.667-1.917 1-3.15 1-1.034 0-1.85-.3-2.45-.9-.6-.633-.9-1.517-.9-2.65v-10.95h6.7v-6h-6.7v-6.55h-7.8v6.55h-4.15v6h4.15v11.05c0 3.2.883 5.617 2.65 7.25Zm20.528 1.6c2.134.533 4.35.8 6.65.8 2.7 0 4.984-.367 6.85-1.1 1.9-.733 3.35-1.733 4.35-3 1-1.3 1.5-2.783 1.5-4.45 0-1.533-.3-2.767-.9-3.7a6.33 6.33 0 0 0-2.35-2.25c-.933-.567-1.983-1-3.15-1.3a25.803 25.803 0 0 0-3.5-.65 55.486 55.486 0 0 1-3.15-.55c-.966-.2-1.75-.467-2.35-.8-.567-.333-.85-.833-.85-1.5 0-.733.4-1.333 1.2-1.8.8-.467 2.067-.7 3.8-.7 1.234 0 2.5.15 3.8.45 1.334.267 2.65.783 3.95 1.55l2.6-5.55c-1.267-.767-2.85-1.35-4.75-1.75-1.9-.4-3.766-.6-5.6-.6-2.6 0-4.833.383-6.7 1.15-1.866.733-3.3 1.75-4.3 3.05-.966 1.3-1.45 2.8-1.45 4.5 0 1.533.284 2.783.85 3.75a6.753 6.753 0 0 0 2.35 2.3c.967.567 2.034 1 3.2 1.3a44.68 44.68 0 0 0 3.45.65c1.167.167 2.233.333 3.2.5.967.167 1.734.417 2.3.75.6.3.9.767.9 1.4 0 .767-.383 1.367-1.15 1.8-.733.433-2 .65-3.8.65-1.633 0-3.3-.233-5-.7-1.667-.5-3.116-1.133-4.35-1.9l-2.6 5.6c1.234.833 2.9 1.533 5 2.1Z" fill="url('#paint0_linear_235_2276')"/><path fill-rule="evenodd" clip-rule="evenodd" d="m154.901.536-63 99.121-.844-.536 63-99.121.844.536Z" fill="url('#paint1_linear_235_2276')"/><path fill-rule="evenodd" clip-rule="evenodd" d="m132.645 33.822-3.278-4.166 11.203-11.39h-9.3l-11.4 10.81V8.066h-7.8v37.1h7.8V38.34l3.769-3.706 4.821 5.988 4.185-6.8ZM0 10.167l11.45 35h8.7l7.934-23.715L35.8 45.167h8.7l11.45-35H48.2L40.045 34.95 32.05 10.167h-7.5l-8.254 24.602L8.4 10.167H0Zm63.07 33.6c2.233 1.2 4.783 1.8 7.65 1.8 2.833 0 5.367-.6 7.6-1.8 2.233-1.2 3.983-2.834 5.25-4.9 1.267-2.1 1.9-4.484 1.9-7.15 0-2.734-.633-5.134-1.9-7.2-1.267-2.067-3.017-3.684-5.25-4.85-2.233-1.2-4.767-1.8-7.6-1.8-2.867 0-5.417.6-7.65 1.8-2.2 1.166-3.95 2.8-5.25 4.9-1.267 2.066-1.9 4.45-1.9 7.15 0 2.666.633 5.05 1.9 7.15 1.3 2.066 3.05 3.7 5.25 4.9Zm11.15-5.5c-1.033.6-2.2.9-3.5.9-1.3 0-2.467-.3-3.5-.9-1.033-.6-1.867-1.45-2.5-2.55-.6-1.134-.9-2.467-.9-4 0-1.567.3-2.9.9-4 .633-1.1 1.467-1.95 2.5-2.55 1.033-.6 2.2-.9 3.5-.9 1.3 0 2.467.3 3.5.9 1.033.6 1.85 1.45 2.45 2.55.6 1.1.9 2.433.9 4 0 1.533-.3 2.866-.9 4-.6 1.1-1.417 1.95-2.45 2.55Zm23.914-20h-7.45v26.9h7.8v-12.7c0-2.567.65-4.45 1.95-5.65 1.333-1.234 3.066-1.85 5.2-1.85.3 0 .583.016.85.05.266 0 .566.016.9.05v-7.2c-2.534 0-4.684.5-6.45 1.5a8.448 8.448 0 0 0-2.8 2.432v-3.532Z" fill="url('#paint2_linear_235_2276')"/><defs><linearGradient id="paint0_linear_235_2276" x1="295.63" y1="127.025" x2="-21.584" y2="86.928" gradientUnits="userSpaceOnUse"><stop stop-color="#8574F5"/><stop offset="1" stop-color="#2C245D" stop-opacity="0"/></linearGradient><linearGradient id="paint1_linear_235_2276" x1="154.993" y1="-1.504" x2="101.61" y2="105.285" gradientUnits="userSpaceOnUse"><stop stop-color="#5346A5" stop-opacity="0"/><stop offset=".497" stop-color="#5346A5"/><stop offset="1" stop-color="#5346A5" stop-opacity="0"/></linearGradient><linearGradient id="paint2_linear_235_2276" x1="115.11" y1="45.59" x2="68.281" y2="-40.913" gradientUnits="userSpaceOnUse"><stop stop-color="#8473F4"/><stop offset="1" stop-color="#5346A5" stop-opacity=".47"/></linearGradient></defs></svg>