<svg width="437" height="100" fill="none" xmlns="http://www.w3.org/2000/svg"><path d="M102.398 68.658v14.05h8.1V55.312l-8.1 13.346Z" fill="url('#paint0_linear_226_2649')"/><path d="m111.107 54.308 4.006-6.6h6.585v6.6h-10.591Z" fill="url('#paint1_linear_226_2649')"/><path fill-rule="evenodd" clip-rule="evenodd" d="M128.022 81.308c2.334 1.2 5.034 1.8 8.1 1.8 2.434 0 4.584-.366 6.45-1.1 1.867-.766 3.417-1.85 4.65-3.25l-4.15-4.5c-.9.867-1.9 1.517-3 1.95-1.066.434-2.316.65-3.75.65-1.6 0-3-.283-4.2-.85a6.774 6.774 0 0 1-2.75-2.55 7.262 7.262 0 0 1-.753-2h20.353c.034-.333.067-.683.1-1.05.034-.4.05-.75.05-1.05 0-2.9-.616-5.383-1.85-7.45-1.233-2.1-2.916-3.7-5.05-4.8-2.1-1.133-4.466-1.7-7.1-1.7-2.733 0-5.183.6-7.35 1.8a13.241 13.241 0 0 0-5.15 4.9c-1.233 2.067-1.85 4.45-1.85 7.15 0 2.667.634 5.05 1.9 7.15 1.267 2.067 3.05 3.7 5.35 4.9Zm.507-14.4c.13-.833.378-1.583.743-2.25.567-1.066 1.35-1.883 2.35-2.45 1.034-.6 2.217-.9 3.55-.9 1.334 0 2.5.3 3.5.9a6.026 6.026 0 0 1 2.35 2.4c.376.686.628 1.453.754 2.3h-13.247Z" fill="url('#paint2_linear_226_2649')"/><path d="M159.565 81.358c2.267 1.167 4.85 1.75 7.75 1.75 2.834 0 5.3-.583 7.4-1.75 2.1-1.2 3.65-2.883 4.65-5.05l-6.05-3.3c-.7 1.3-1.583 2.25-2.65 2.85-1.033.567-2.166.85-3.4.85-1.333 0-2.533-.3-3.6-.9-1.066-.6-1.916-1.45-2.55-2.55-.6-1.1-.9-2.433-.9-4 0-1.566.3-2.9.9-4 .634-1.1 1.484-1.95 2.55-2.55 1.067-.6 2.267-.9 3.6-.9 1.234 0 2.367.3 3.4.9 1.067.6 1.95 1.534 2.65 2.8l6.05-3.25c-1-2.2-2.55-3.883-4.65-5.05-2.1-1.2-4.566-1.8-7.4-1.8-2.9 0-5.483.6-7.75 1.8-2.266 1.167-4.05 2.8-5.35 4.9-1.266 2.067-1.9 4.45-1.9 7.15 0 2.667.634 5.05 1.9 7.15 1.3 2.1 3.084 3.75 5.35 4.95Z" fill="url('#paint3_linear_226_2649')"/><path d="M205.76 56.708c-1.667-.866-3.567-1.3-5.7-1.3-2.3 0-4.35.484-6.15 1.45a10.101 10.101 0 0 0-2.4 1.775V45.608h-7.8v37.1h7.8v-13.3c0-1.666.266-3.033.8-4.1.566-1.066 1.333-1.85 2.3-2.35 1-.533 2.116-.8 3.35-.8 1.733 0 3.066.517 4 1.55.966 1.034 1.45 2.634 1.45 4.8v14.2h7.8v-15.4c0-2.733-.484-4.966-1.45-6.7-.967-1.766-2.3-3.066-4-3.9Z" fill="url('#paint4_linear_226_2649')"/><path d="M240.33 56.708c-1.667-.866-3.567-1.3-5.7-1.3-2.3 0-4.35.484-6.15 1.45a10.039 10.039 0 0 0-2.75 2.145v-3.195h-7.45v26.9h7.8v-13.3c0-1.666.267-3.033.8-4.1.567-1.066 1.333-1.85 2.3-2.35 1-.533 2.117-.8 3.35-.8 1.733 0 3.067.517 4 1.55.967 1.034 1.45 2.634 1.45 4.8v14.2h7.8v-15.4c0-2.733-.483-4.966-1.45-6.7-.967-1.766-2.3-3.066-4-3.9Z" fill="url('#paint5_linear_226_2649')"/><path fill-rule="evenodd" clip-rule="evenodd" d="M258.196 81.308c2.233 1.2 4.783 1.8 7.65 1.8 2.833 0 5.366-.6 7.6-1.8 2.233-1.2 3.983-2.833 5.25-4.9 1.266-2.1 1.9-4.483 1.9-7.15 0-2.733-.634-5.133-1.9-7.2-1.267-2.066-3.017-3.683-5.25-4.85-2.234-1.2-4.767-1.8-7.6-1.8-2.867 0-5.417.6-7.65 1.8-2.2 1.167-3.95 2.8-5.25 4.9-1.267 2.067-1.9 4.45-1.9 7.15 0 2.667.633 5.05 1.9 7.15 1.3 2.067 3.05 3.7 5.25 4.9Zm11.15-5.5c-1.034.6-2.2.9-3.5.9-1.3 0-2.467-.3-3.5-.9-1.034-.6-1.867-1.45-2.5-2.55-.6-1.133-.9-2.466-.9-4 0-1.566.3-2.9.9-4 .633-1.1 1.466-1.95 2.5-2.55 1.033-.6 2.2-.9 3.5-.9 1.3 0 2.466.3 3.5.9 1.033.6 1.85 1.45 2.45 2.55.6 1.1.9 2.434.9 4 0 1.534-.3 2.867-.9 4-.6 1.1-1.417 1.95-2.45 2.55Z" fill="url('#paint6_linear_226_2649')"/><path d="M285.809 45.608v37.1h7.8v-37.1h-7.8Z" fill="url('#paint7_linear_226_2649')"/><path fill-rule="evenodd" clip-rule="evenodd" d="M305.998 81.308c2.234 1.2 4.784 1.8 7.65 1.8 2.834 0 5.367-.6 7.6-1.8 2.234-1.2 3.984-2.833 5.25-4.9 1.267-2.1 1.9-4.483 1.9-7.15 0-2.733-.633-5.133-1.9-7.2-1.266-2.066-3.016-3.683-5.25-4.85-2.233-1.2-4.766-1.8-7.6-1.8-2.866 0-5.416.6-7.65 1.8-2.2 1.167-3.95 2.8-5.25 4.9-1.266 2.067-1.9 4.45-1.9 7.15 0 2.667.634 5.05 1.9 7.15 1.3 2.067 3.05 3.7 5.25 4.9Zm11.15-5.5c-1.033.6-2.2.9-3.5.9-1.3 0-2.466-.3-3.5-.9-1.033-.6-1.866-1.45-2.5-2.55-.6-1.133-.9-2.466-.9-4 0-1.566.3-2.9.9-4 .634-1.1 1.467-1.95 2.5-2.55 1.034-.6 2.2-.9 3.5-.9 1.3 0 2.467.3 3.5.9 1.034.6 1.85 1.45 2.45 2.55.6 1.1.9 2.434.9 4 0 1.534-.3 2.867-.9 4-.6 1.1-1.416 1.95-2.45 2.55Z" fill="url('#paint8_linear_226_2649')"/><path fill-rule="evenodd" clip-rule="evenodd" d="M338.912 91.858c2.367.634 4.817.95 7.35.95 4.867 0 8.6-1.183 11.2-3.55 2.6-2.366 3.9-6.05 3.9-11.05v-22.4h-7.4v3.418a8.808 8.808 0 0 0-2.9-2.418c-1.733-.933-3.733-1.4-6-1.4-2.5 0-4.767.534-6.8 1.6-2 1.067-3.617 2.584-4.85 4.55-1.2 1.934-1.8 4.217-1.8 6.85 0 2.6.6 4.884 1.8 6.85a13.23 13.23 0 0 0 4.85 4.55c2.033 1.067 4.3 1.6 6.8 1.6 2.267 0 4.267-.466 6-1.4a9.208 9.208 0 0 0 2.5-1.965v1.165c0 2.434-.633 4.267-1.9 5.5-1.233 1.234-3.233 1.85-6 1.85-1.7 0-3.433-.283-5.2-.85-1.733-.533-3.167-1.266-4.3-2.2l-3.1 5.6c1.567 1.234 3.517 2.15 5.85 2.75Zm11.35-17.65c-1.067.534-2.283.8-3.65.8s-2.583-.266-3.65-.8a6.656 6.656 0 0 1-2.55-2.35c-.6-1-.9-2.15-.9-3.45 0-1.333.3-2.483.9-3.45a6.288 6.288 0 0 1 2.55-2.3c1.067-.566 2.283-.85 3.65-.85s2.583.284 3.65.85c1.067.534 1.9 1.3 2.5 2.3.6.967.9 2.117.9 3.45 0 1.3-.3 2.45-.9 3.45-.6 1-1.433 1.784-2.5 2.35Z" fill="url('#paint9_linear_226_2649')"/><path d="M369.022 50.808c.9.834 2.067 1.25 3.5 1.25 1.467 0 2.633-.416 3.5-1.25.9-.866 1.35-1.95 1.35-3.25 0-1.233-.45-2.233-1.35-3-.9-.8-2.067-1.2-3.5-1.2-1.433 0-2.6.417-3.5 1.25-.9.834-1.35 1.867-1.35 3.1 0 1.234.45 2.267 1.35 3.1Z" fill="url('#paint10_linear_226_2649')"/><path fill-rule="evenodd" clip-rule="evenodd" d="M388.911 81.308c2.333 1.2 5.033 1.8 8.1 1.8 2.433 0 4.583-.366 6.45-1.1 1.867-.766 3.417-1.85 4.65-3.25l-4.15-4.5c-.9.867-1.9 1.517-3 1.95-1.067.434-2.317.65-3.75.65-1.6 0-3-.283-4.2-.85a6.767 6.767 0 0 1-2.75-2.55 7.262 7.262 0 0 1-.753-2h20.353c.033-.333.067-.683.1-1.05.033-.4.05-.75.05-1.05 0-2.9-.617-5.383-1.85-7.45-1.233-2.1-2.917-3.7-5.05-4.8-2.1-1.133-4.467-1.7-7.1-1.7-2.733 0-5.183.6-7.35 1.8a13.234 13.234 0 0 0-5.15 4.9c-1.233 2.067-1.85 4.45-1.85 7.15 0 2.667.633 5.05 1.9 7.15 1.267 2.067 3.05 3.7 5.35 4.9Zm.507-14.4h13.247a6.856 6.856 0 0 0-.754-2.3 6.033 6.033 0 0 0-2.35-2.4c-1-.6-2.167-.9-3.5-.9-1.333 0-2.517.3-3.55.9-1 .567-1.783 1.384-2.35 2.45a6.82 6.82 0 0 0-.743 2.25Z" fill="url('#paint11_linear_226_2649')"/><path d="M368.622 55.808v26.9h7.8v-26.9h-7.8Z" fill="url('#paint12_linear_226_2649')"/><path d="M417.604 82.308c2.133.534 4.35.8 6.65.8 2.7 0 4.983-.366 6.85-1.1 1.9-.733 3.35-1.733 4.35-3 1-1.3 1.5-2.783 1.5-4.45 0-1.533-.3-2.766-.9-3.7a6.33 6.33 0 0 0-2.35-2.25c-.933-.566-1.983-1-3.15-1.3a25.803 25.803 0 0 0-3.5-.65 55.486 55.486 0 0 1-3.15-.55c-.967-.2-1.75-.466-2.35-.8-.567-.333-.85-.833-.85-1.5 0-.733.4-1.333 1.2-1.8.8-.466 2.067-.7 3.8-.7 1.233 0 2.5.15 3.8.45 1.333.267 2.65.784 3.95 1.55l2.6-5.55c-1.267-.766-2.85-1.35-4.75-1.75-1.9-.4-3.767-.6-5.6-.6-2.6 0-4.833.384-6.7 1.15-1.867.734-3.3 1.75-4.3 3.05-.967 1.3-1.45 2.8-1.45 4.5 0 1.534.283 2.784.85 3.75a6.745 6.745 0 0 0 2.35 2.3c.967.567 2.033 1 3.2 1.3 1.167.267 2.317.484 3.45.65 1.167.167 2.233.334 3.2.5.967.167 1.733.417 2.3.75.6.3.9.767.9 1.4 0 .767-.383 1.367-1.15 1.8-.733.434-2 .65-3.8.65-1.633 0-3.3-.233-5-.7-1.667-.5-3.117-1.133-4.35-1.9l-2.6 5.6c1.233.834 2.9 1.534 5 2.1Z" fill="url('#paint13_linear_226_2649')"/><path fill-rule="evenodd" clip-rule="evenodd" d="m146 .708-63 99.12-.844-.536 63-99.12.844.536Z" fill="url('#paint14_linear_226_2649')"/><path d="M132.362 20c-1.136-.578-2.487-1.032-4.052-1.362-1.9-.4-3.767-.6-5.6-.6-2.6 0-4.834.384-6.7 1.15-1.867.734-3.3 1.75-4.3 3.05-.967 1.3-1.45 2.8-1.45 4.5 0 1.534.283 2.784.85 3.75a6.745 6.745 0 0 0 2.35 2.3c.966.567 2.033 1 3.2 1.3 1.166.267 2.316.483 3.45.65 1.049.15 2.018.3 2.906.45l3.395-5.518a25.366 25.366 0 0 0-2.351-.382 55.175 55.175 0 0 1-3.15-.55c-.967-.2-1.75-.466-2.35-.8-.567-.333-.85-.833-.85-1.5 0-.733.4-1.333 1.2-1.8.8-.466 2.066-.7 3.8-.7 1.233 0 2.5.15 3.8.45.882.177 1.757.462 2.624.858L132.362 20Z" fill="url('#paint15_linear_226_2649')"/><path d="m116.745 45.378 3.442-5.594a19.44 19.44 0 0 1-3.627-.646c-1.667-.5-3.117-1.133-4.35-1.9l-2.6 5.6c1.233.834 2.9 1.533 5 2.1.702.176 1.414.322 2.135.44Z" fill="url('#paint16_linear_226_2649')"/><path d="M6.2 44.838c2.567.733 5.25 1.1 8.05 1.1 3.333 0 6.083-.5 8.25-1.5 2.2-1 3.85-2.317 4.95-3.95a9.462 9.462 0 0 0 1.65-5.4c0-1.833-.383-3.35-1.15-4.55a8.619 8.619 0 0 0-2.9-2.9 16.705 16.705 0 0 0-4-1.75 64.1 64.1 0 0 0-4.35-1.15 96.662 96.662 0 0 1-3.95-1c-1.2-.333-2.167-.767-2.9-1.3-.733-.566-1.1-1.3-1.1-2.2 0-.767.217-1.433.65-2 .433-.6 1.15-1.083 2.15-1.45 1-.366 2.283-.55 3.85-.55 1.567 0 3.167.233 4.8.7 1.633.434 3.267 1.117 4.9 2.05l2.5-6.15c-1.633-1.033-3.517-1.8-5.65-2.3-2.133-.533-4.3-.8-6.5-.8-3.3 0-6.05.5-8.25 1.5-2.167.967-3.8 2.284-4.9 3.95-1.067 1.633-1.6 3.45-1.6 5.45 0 1.867.367 3.4 1.1 4.6a9.08 9.08 0 0 0 2.95 2.9c1.2.733 2.517 1.333 3.95 1.8 1.467.467 2.917.867 4.35 1.2 1.467.3 2.8.633 4 1 1.2.334 2.167.784 2.9 1.35.733.534 1.1 1.267 1.1 2.2a2.98 2.98 0 0 1-.7 1.95c-.467.567-1.2 1.017-2.2 1.35-.967.3-2.25.45-3.85.45-2.1 0-4.183-.333-6.25-1-2.033-.7-3.8-1.583-5.3-2.65L0 41.888c1.567 1.2 3.633 2.184 6.2 2.95Z" fill="url('#paint17_linear_226_2649')"/><path d="M41.885 38.51v6.828h-7.8v-37.1h7.8v21.01l11.4-10.81h9.3l-11.203 11.39 12.203 15.51h-9.45l-8.482-10.532-3.768 3.705Z" fill="url('#paint18_linear_226_2649')"/><path d="M67.093 18.438v26.9h7.8v-26.9h-7.8Z" fill="url('#paint19_linear_226_2649')"/><path d="M67.493 13.438c.9.833 2.066 1.25 3.5 1.25 1.466 0 2.633-.417 3.5-1.25.9-.867 1.35-1.95 1.35-3.25 0-1.233-.45-2.233-1.35-3-.9-.8-2.067-1.2-3.5-1.2-1.434 0-2.6.417-3.5 1.25-.9.833-1.35 1.867-1.35 3.1 0 1.234.45 2.267 1.35 3.1Z" fill="url('#paint20_linear_226_2649')"/><path d="M82.132 8.238v37.1h7.8v-37.1h-7.8Z" fill="url('#paint21_linear_226_2649')"/><path d="M97.17 8.238v37.1h7.801v-37.1h-7.8Z" fill="url('#paint22_linear_226_2649')"/><defs><linearGradient id="paint0_linear_226_2649" x1="438.5" y1="85.708" x2="300.459" y2="-94.603" gradientUnits="userSpaceOnUse"><stop stop-color="#8473F4"/><stop offset="1" stop-color="#5346A5" stop-opacity=".47"/></linearGradient><linearGradient id="paint1_linear_226_2649" x1="438.5" y1="85.708" x2="300.459" y2="-94.603" gradientUnits="userSpaceOnUse"><stop stop-color="#8473F4"/><stop offset="1" stop-color="#5346A5" stop-opacity=".47"/></linearGradient><linearGradient id="paint2_linear_226_2649" x1="438.5" y1="85.708" x2="300.459" y2="-94.603" gradientUnits="userSpaceOnUse"><stop stop-color="#8473F4"/><stop offset="1" stop-color="#5346A5" stop-opacity=".47"/></linearGradient><linearGradient id="paint3_linear_226_2649" x1="438.5" y1="85.708" x2="300.459" y2="-94.603" gradientUnits="userSpaceOnUse"><stop stop-color="#8473F4"/><stop offset="1" stop-color="#5346A5" stop-opacity=".47"/></linearGradient><linearGradient id="paint4_linear_226_2649" x1="438.5" y1="85.708" x2="300.459" y2="-94.603" gradientUnits="userSpaceOnUse"><stop stop-color="#8473F4"/><stop offset="1" stop-color="#5346A5" stop-opacity=".47"/></linearGradient><linearGradient id="paint5_linear_226_2649" x1="438.5" y1="85.708" x2="300.459" y2="-94.603" gradientUnits="userSpaceOnUse"><stop stop-color="#8473F4"/><stop offset="1" stop-color="#5346A5" stop-opacity=".47"/></linearGradient><linearGradient id="paint6_linear_226_2649" x1="438.5" y1="85.708" x2="300.459" y2="-94.603" gradientUnits="userSpaceOnUse"><stop stop-color="#8473F4"/><stop offset="1" stop-color="#5346A5" stop-opacity=".47"/></linearGradient><linearGradient id="paint7_linear_226_2649" x1="438.5" y1="85.708" x2="300.459" y2="-94.603" gradientUnits="userSpaceOnUse"><stop stop-color="#8473F4"/><stop offset="1" stop-color="#5346A5" stop-opacity=".47"/></linearGradient><linearGradient id="paint8_linear_226_2649" x1="438.5" y1="85.708" x2="300.459" y2="-94.603" gradientUnits="userSpaceOnUse"><stop stop-color="#8473F4"/><stop offset="1" stop-color="#5346A5" stop-opacity=".47"/></linearGradient><linearGradient id="paint9_linear_226_2649" x1="438.5" y1="85.708" x2="300.459" y2="-94.603" gradientUnits="userSpaceOnUse"><stop stop-color="#8473F4"/><stop offset="1" stop-color="#5346A5" stop-opacity=".47"/></linearGradient><linearGradient id="paint10_linear_226_2649" x1="438.5" y1="85.708" x2="300.459" y2="-94.603" gradientUnits="userSpaceOnUse"><stop stop-color="#8473F4"/><stop offset="1" stop-color="#5346A5" stop-opacity=".47"/></linearGradient><linearGradient id="paint11_linear_226_2649" x1="438.5" y1="85.708" x2="300.459" y2="-94.603" gradientUnits="userSpaceOnUse"><stop stop-color="#8473F4"/><stop offset="1" stop-color="#5346A5" stop-opacity=".47"/></linearGradient><linearGradient id="paint12_linear_226_2649" x1="438.5" y1="85.708" x2="300.459" y2="-94.603" gradientUnits="userSpaceOnUse"><stop stop-color="#8473F4"/><stop offset="1" stop-color="#5346A5" stop-opacity=".47"/></linearGradient><linearGradient id="paint13_linear_226_2649" x1="438.5" y1="85.708" x2="300.459" y2="-94.603" gradientUnits="userSpaceOnUse"><stop stop-color="#8473F4"/><stop offset="1" stop-color="#5346A5" stop-opacity=".47"/></linearGradient><linearGradient id="paint14_linear_226_2649" x1="81.004" y1="102.21" x2="137.619" y2="-4.474" gradientUnits="userSpaceOnUse"><stop stop-color="#5346A5" stop-opacity="0"/><stop offset=".497" stop-color="#5346A5"/><stop offset="1" stop-color="#5346A5" stop-opacity="0"/></linearGradient><linearGradient id="paint15_linear_226_2649" x1="105.504" y1="45.963" x2="53.69" y2="-43.032" gradientUnits="userSpaceOnUse"><stop stop-color="#8473F4"/><stop offset="1" stop-color="#5346A5" stop-opacity=".47"/></linearGradient><linearGradient id="paint16_linear_226_2649" x1="105.504" y1="45.963" x2="53.69" y2="-43.032" gradientUnits="userSpaceOnUse"><stop stop-color="#8473F4"/><stop offset="1" stop-color="#5346A5" stop-opacity=".47"/></linearGradient><linearGradient id="paint17_linear_226_2649" x1="105.504" y1="45.963" x2="53.69" y2="-43.032" gradientUnits="userSpaceOnUse"><stop stop-color="#8473F4"/><stop offset="1" stop-color="#5346A5" stop-opacity=".47"/></linearGradient><linearGradient id="paint18_linear_226_2649" x1="105.504" y1="45.963" x2="53.69" y2="-43.032" gradientUnits="userSpaceOnUse"><stop stop-color="#8473F4"/><stop offset="1" stop-color="#5346A5" stop-opacity=".47"/></linearGradient><linearGradient id="paint19_linear_226_2649" x1="105.504" y1="45.963" x2="53.69" y2="-43.032" gradientUnits="userSpaceOnUse"><stop stop-color="#8473F4"/><stop offset="1" stop-color="#5346A5" stop-opacity=".47"/></linearGradient><linearGradient id="paint20_linear_226_2649" x1="105.504" y1="45.963" x2="53.69" y2="-43.032" gradientUnits="userSpaceOnUse"><stop stop-color="#8473F4"/><stop offset="1" stop-color="#5346A5" stop-opacity=".47"/></linearGradient><linearGradient id="paint21_linear_226_2649" x1="105.504" y1="45.963" x2="53.69" y2="-43.032" gradientUnits="userSpaceOnUse"><stop stop-color="#8473F4"/><stop offset="1" stop-color="#5346A5" stop-opacity=".47"/></linearGradient><linearGradient id="paint22_linear_226_2649" x1="105.504" y1="45.963" x2="53.69" y2="-43.032" gradientUnits="userSpaceOnUse"><stop stop-color="#8473F4"/><stop offset="1" stop-color="#5346A5" stop-opacity=".47"/></linearGradient></defs></svg>