<svg width="73" height="72" fill="none" xmlns="http://www.w3.org/2000/svg"><circle cx="36.5" cy="36" r="3" fill="#7D6DE2"/><path d="M46.5 36c0 8.095-1.316 15.331-3.372 20.47-1.03 2.575-2.206 4.525-3.41 5.798C38.518 63.538 37.43 64 36.5 64c-.93 0-2.018-.463-3.218-1.732-1.204-1.273-2.38-3.223-3.41-5.798C27.816 51.331 26.5 44.095 26.5 36c0-8.095 1.316-15.331 3.372-20.47 1.03-2.575 2.206-4.525 3.41-5.798C34.482 8.462 35.57 8 36.5 8c.93 0 2.018.463 3.218 1.732 1.204 1.273 2.38 3.223 3.41 5.798C45.184 20.669 46.5 27.905 46.5 36Z" stroke="#7D6DE2" stroke-width="4"/><path d="M41.5 44.66c-7.01 4.048-13.936 6.526-19.414 7.316-2.745.395-5.022.351-6.726-.055-1.7-.405-2.644-1.116-3.109-1.92-.465-.806-.608-1.98-.11-3.653.501-1.68 1.602-3.673 3.317-5.853 3.422-4.35 9.031-9.108 16.042-13.155 7.01-4.047 13.935-6.526 19.413-7.315 2.745-.396 5.022-.352 6.727.054 1.699.405 2.644 1.116 3.108 1.921.465.805.608 1.98.11 3.653-.501 1.68-1.601 3.673-3.316 5.852-3.423 4.35-9.032 9.108-16.042 13.155Z" stroke="#7D6DE2" stroke-width="4"/><path d="M41.5 27.34c-7.01-4.048-13.936-6.526-19.414-7.316-2.745-.395-5.022-.351-6.726.055-1.7.405-2.644 1.116-3.109 1.92-.465.806-.608 1.98-.11 3.653.501 1.68 1.602 3.673 3.317 5.853 3.422 4.35 9.031 9.108 16.042 13.155 7.01 4.048 13.935 6.526 19.413 7.315 2.745.396 5.022.352 6.727-.054 1.699-.405 2.644-1.116 3.108-1.921.465-.805.608-1.98.11-3.653-.501-1.68-1.601-3.673-3.316-5.852-3.423-4.35-9.032-9.108-16.042-13.155Z" stroke="#7D6DE2" stroke-width="4"/></svg>