<svg width="104" height="104" fill="none" xmlns="http://www.w3.org/2000/svg"><g clip-path="url('#clip0_296_3080')"><path transform="translate(.334 .346)" fill="url('#paint0_linear_296_3080')" d="M0 0h103v103H0z"/><path d="M42.665 72.059c2.973-4.944 9.8-14.42 26.054-27.737C93.247 24.23 70.098 5.85 45.23 15.638c-2.66 1.048-10.033-3.145-16.862 1.272-4.405 2.85-2.69 5.082-4.406 7.315-1.715 2.233-8.328 2.101-9.777 7.9-.858 3.434 1.517 7.032 1.199 9.617-.317 2.586-2.824 4.916-2.944 8.33a10.982 10.982 0 0 0 10.585 11.37 11.046 11.046 0 0 0 10.63 10.992c1.827.067 3.64-.326 5.275-1.143 1.623 1.495 3.015 1.966 3.736.768Z" fill="url('#paint1_linear_296_3080')"/><path d="M43.25 66.952c0-3.09-.105-18.331-.1-18.589-8.483 1.25-8.312-14.886.272-10.938 1.888 1.202 7.21 0 6.695-9.956 9.27 9.956 20.032-1.657 20.955 7.806 1.26 12.922-.008 26.444-8.038 26.445a15.06 15.06 0 0 1-2.617-.261v5.493c0 3.433 6.18 5.15 6.18 5.15S55.922 82.162 51.49 82.106c-4.432-.055-14.42-10.004-14.42-10.004s6.18-1.717 6.18-5.15Z" fill="url('#paint2_linear_296_3080')"/><path style="mix-blend-mode:multiply" opacity=".7" d="M60.417 61.457a33.797 33.797 0 0 1-11.886-5.184s2.963 7.242 11.875 8.616l.011-3.432Z" fill="url('#paint3_linear_296_3080')"/><path d="M83.42 82.402c2.492 5.536 3.777 22.317 3.777 22.317H16.471s1.285-16.781 3.776-22.317c2.183-4.849 16.562-10.416 20.776-12.016 2.434 2.722 5.92 4.463 10.811 4.463 4.89 0 8.377-1.741 10.81-4.463 4.215 1.6 18.595 7.168 20.777 12.016Z" fill="url('#paint4_linear_296_3080')"/><path d="M19.587 82.514c1.869-3.553 8.018-7.281 13.704-9.794 2.836-1.253 11.334 34.746 11.334 34.746H16.157s-.343-17.776 3.43-24.952Z" fill="url('#paint5_linear_296_3080')"/></g><defs><linearGradient id="paint0_linear_296_3080" x1="51.5" y1="0" x2="51.5" y2="103" gradientUnits="userSpaceOnUse"><stop stop-color="#2C315B"/><stop offset="1" stop-color="#2A2F5A"/></linearGradient><linearGradient id="paint1_linear_296_3080" x1="46.724" y1="12.479" x2="44.609" y2="72.846" gradientUnits="userSpaceOnUse"><stop stop-color="#1D0024"/><stop offset="1" stop-color="#100014"/></linearGradient><linearGradient id="paint2_linear_296_3080" x1="54.189" y1="27.469" x2="54.189" y2="82.106" gradientUnits="userSpaceOnUse"><stop stop-color="#E6864E"/><stop offset="1" stop-color="#EB965E"/></linearGradient><linearGradient id="paint3_linear_296_3080" x1="50.776" y1="57.893" x2="52.557" y2="65.905" gradientUnits="userSpaceOnUse"><stop stop-color="#E68349"/><stop offset="1" stop-color="#F09960"/></linearGradient><linearGradient id="paint4_linear_296_3080" x1="51.834" y1="104.719" x2="51.834" y2="70.386" gradientUnits="userSpaceOnUse"><stop stop-color="#FFC9B3"/><stop offset="1" stop-color="#FFD2C2"/></linearGradient><linearGradient id="paint5_linear_296_3080" x1="30.387" y1="107.466" x2="30.387" y2="72.688" gradientUnits="userSpaceOnUse"><stop stop-color="#FCF2EB"/><stop offset="1" stop-color="#FFF9F5"/></linearGradient><clipPath id="clip0_296_3080"><path fill="#fff" transform="translate(.334 .346)" d="M0 0h103v103H0z"/></clipPath></defs></svg>