<svg width="79" height="79" fill="none" xmlns="http://www.w3.org/2000/svg"><g clip-path="url('#clip0_308_3295')"><path fill="url('#paint0_linear_308_3295')" d="M0 0h79v79H0z"/><path d="M32.468 55.004c2.28-3.792 7.516-11.06 19.983-21.274 18.813-15.411 1.057-29.508-18.017-22-2.04.803-7.695-2.413-12.932.975-3.38 2.185-2.064 3.898-3.38 5.61-1.316 1.713-6.388 1.612-7.499 6.06-.658 2.634 1.163 5.393.92 7.376-.244 1.983-2.166 3.77-2.258 6.389a8.423 8.423 0 0 0 8.118 8.72 8.473 8.473 0 0 0 8.154 8.431 8.37 8.37 0 0 0 4.046-.876c1.244 1.147 2.312 1.507 2.864.589Z" fill="url('#paint1_linear_308_3295')"/><path d="M32.915 51.087c0-2.37-.08-14.06-.076-14.257-6.507.959-6.375-11.418.208-8.39 1.448.922 5.53 0 5.135-7.636 7.11 7.636 15.365-1.27 16.072 5.987.967 9.91-.005 20.283-6.164 20.283a11.544 11.544 0 0 1-2.008-.2v4.213c0 2.633 4.74 3.95 4.74 3.95s-8.188 7.716-11.587 7.673c-3.399-.043-11.06-7.673-11.06-7.673s4.74-1.317 4.74-3.95Z" fill="url('#paint2_linear_308_3295')"/><path style="mix-blend-mode:multiply" opacity=".7" d="M46.083 46.873a25.925 25.925 0 0 1-9.116-3.976s2.272 5.554 9.108 6.608l.008-2.632Z" fill="url('#paint3_linear_308_3295')"/><path d="M63.727 62.936c1.91 4.246 2.897 17.117 2.897 17.117H12.377s.986-12.871 2.897-17.117c1.673-3.719 12.703-7.989 15.935-9.216 1.866 2.087 4.54 3.423 8.291 3.423 3.751 0 6.426-1.336 8.292-3.423 3.232 1.227 14.261 5.497 15.935 9.216Z" fill="url('#paint4_linear_308_3295')"/><path d="M14.766 63.022c1.433-2.725 6.15-5.585 10.511-7.512 2.175-.961 8.693 26.65 8.693 26.65H12.135s-.263-13.634 2.631-19.138Z" fill="url('#paint5_linear_308_3295')"/></g><defs><linearGradient id="paint0_linear_308_3295" x1="39.5" y1="0" x2="39.5" y2="79" gradientUnits="userSpaceOnUse"><stop stop-color="#2C315B"/><stop offset="1" stop-color="#2A2F5A"/></linearGradient><linearGradient id="paint1_linear_308_3295" x1="35.581" y1="9.307" x2="33.959" y2="55.607" gradientUnits="userSpaceOnUse"><stop stop-color="#1D0024"/><stop offset="1" stop-color="#100014"/></linearGradient><linearGradient id="paint2_linear_308_3295" x1="41.305" y1="20.804" x2="41.305" y2="62.71" gradientUnits="userSpaceOnUse"><stop stop-color="#E6864E"/><stop offset="1" stop-color="#EB965E"/></linearGradient><linearGradient id="paint3_linear_308_3295" x1="38.688" y1="44.139" x2="40.054" y2="50.284" gradientUnits="userSpaceOnUse"><stop stop-color="#E68349"/><stop offset="1" stop-color="#F09960"/></linearGradient><linearGradient id="paint4_linear_308_3295" x1="39.5" y1="80.053" x2="39.5" y2="53.72" gradientUnits="userSpaceOnUse"><stop stop-color="#FFC9B3"/><stop offset="1" stop-color="#FFD2C2"/></linearGradient><linearGradient id="paint5_linear_308_3295" x1="23.049" y1="82.159" x2="23.049" y2="55.485" gradientUnits="userSpaceOnUse"><stop stop-color="#FCF2EB"/><stop offset="1" stop-color="#FFF9F5"/></linearGradient><clipPath id="clip0_308_3295"><path fill="#fff" d="M0 0h79v79H0z"/></clipPath></defs></svg>