<svg width="794" height="127" fill="none" xmlns="http://www.w3.org/2000/svg"><path d="M282.078 57.625V69h-2.148V57.625h2.148Zm4.188 4.727V69h-2.063v-8.453h1.938l.125 1.805Zm-.328 2.117h-.61a5.586 5.586 0 0 1 .25-1.672c.162-.5.388-.93.68-1.29.297-.359.648-.635 1.054-.827.407-.193.86-.29 1.36-.29.406 0 .773.058 1.101.172.329.115.61.297.844.547.24.25.422.578.547.985.13.4.195.896.195 1.484V69h-2.078v-5.438c0-.385-.057-.69-.172-.914a.955.955 0 0 0-.484-.476c-.208-.094-.466-.14-.773-.14-.318 0-.597.064-.836.195-.235.125-.433.299-.594.523a2.602 2.602 0 0 0-.36.773 3.442 3.442 0 0 0-.124.946Zm12.312 2.734V57h2.078v12h-1.875l-.203-1.797Zm-5.43-2.328v-.164c0-.646.073-1.232.219-1.758.151-.531.37-.987.656-1.367.287-.38.633-.675 1.039-.883a3.056 3.056 0 0 1 1.399-.312c.505 0 .945.101 1.32.304.38.203.703.492.969.867.271.376.487.82.648 1.336a9.15 9.15 0 0 1 .352 1.688v.445a8.803 8.803 0 0 1-.352 1.649c-.161.5-.377.937-.648 1.312-.266.37-.589.656-.969.86-.38.203-.825.304-1.336.304a2.97 2.97 0 0 1-1.39-.32 3.045 3.045 0 0 1-1.039-.898 4.312 4.312 0 0 1-.649-1.36 6.292 6.292 0 0 1-.219-1.703Zm2.071-.164v.164c0 .365.031.706.093 1.023.063.318.164.6.305.844.141.24.32.427.539.563.224.135.495.203.813.203.406 0 .739-.089 1-.266a1.81 1.81 0 0 0 .617-.742c.146-.318.239-.674.281-1.07v-1.227a3.45 3.45 0 0 0-.164-.867 2.053 2.053 0 0 0-.359-.688 1.594 1.594 0 0 0-.563-.453 1.797 1.797 0 0 0-.797-.164c-.317 0-.588.07-.812.211a1.56 1.56 0 0 0-.547.57 2.887 2.887 0 0 0-.313.852 5.553 5.553 0 0 0-.093 1.047Zm9.492-4.164V69h-2.071v-8.453h2.071Zm-2.211-2.211c0-.307.104-.563.312-.766.214-.203.5-.304.86-.304.359 0 .643.101.851.304.214.203.321.459.321.766 0 .302-.107.555-.321.758-.208.203-.492.304-.851.304-.36 0-.646-.101-.86-.304a1.017 1.017 0 0 1-.312-.758Zm8.836 8.867v-3.898c0-.287-.05-.534-.149-.742a1.074 1.074 0 0 0-.453-.485c-.203-.114-.461-.172-.773-.172a1.76 1.76 0 0 0-.727.14 1.067 1.067 0 0 0-.468.4c-.11.166-.165.359-.165.577h-2.07c0-.349.083-.68.25-.992.167-.317.404-.599.711-.843a3.51 3.51 0 0 1 1.117-.586c.438-.141.927-.211 1.469-.211.641 0 1.211.109 1.711.328.505.213.901.536 1.187.968.292.433.438.977.438 1.633v3.688c0 .422.026.784.078 1.086.057.297.141.554.25.773V69h-2.102a3.15 3.15 0 0 1-.226-.813 6.38 6.38 0 0 1-.078-.984Zm.289-3.351.015 1.226h-1.304c-.323 0-.607.034-.852.102a1.568 1.568 0 0 0-.601.28c-.157.12-.274.267-.352.438a1.33 1.33 0 0 0-.117.57c0 .21.047.397.141.563.099.167.239.3.421.399.188.093.407.14.657.14.364 0 .682-.073.953-.218.271-.151.482-.334.633-.547.151-.214.231-.417.242-.61l.594.89c-.073.215-.183.441-.329.68a3.04 3.04 0 0 1-.562.672 2.86 2.86 0 0 1-.828.516 2.892 2.892 0 0 1-1.125.203c-.547 0-1.037-.11-1.469-.328a2.604 2.604 0 0 1-1.023-.898 2.307 2.307 0 0 1-.375-1.297c0-.448.083-.844.25-1.188.166-.343.414-.632.742-.867.328-.24.734-.42 1.219-.539a6.807 6.807 0 0 1 1.679-.187h1.391Zm5.672-1.5V69h-2.063v-8.453h1.938l.125 1.805Zm-.328 2.117h-.61a5.586 5.586 0 0 1 .25-1.672c.162-.5.388-.93.68-1.29a3.05 3.05 0 0 1 1.055-.827 3.13 3.13 0 0 1 1.359-.29c.406 0 .773.058 1.102.172.328.115.609.297.843.547.24.25.422.578.547.985.13.4.195.896.195 1.484V69h-2.078v-5.438c0-.385-.057-.69-.172-.914a.955.955 0 0 0-.484-.476c-.208-.094-.466-.14-.773-.14-.318 0-.597.064-.836.195-.235.125-.433.299-.594.523a2.576 2.576 0 0 0-.359.773 3.404 3.404 0 0 0-.125.946Zm13.531-6.844V69h-2.149V57.625h2.149Zm6.828 0-4.562 5.547-2.61 2.789-.383-2.086 1.813-2.352 3.109-3.898H337ZM334.609 69l-3.539-5.328 1.539-1.39L337.164 69h-2.555Zm5.329-6.648V69h-2.063v-8.453h1.937l.126 1.805Zm-.329 2.117H339a5.586 5.586 0 0 1 .25-1.672c.161-.5.388-.93.68-1.29.297-.359.648-.635 1.054-.827.407-.193.86-.29 1.36-.29.406 0 .773.058 1.101.172.328.115.61.297.844.547.24.25.422.578.547.985.13.4.195.896.195 1.484V69h-2.078v-5.438c0-.385-.057-.69-.172-.914a.959.959 0 0 0-.484-.476c-.208-.094-.466-.14-.774-.14a1.72 1.72 0 0 0-.835.195c-.235.125-.433.299-.594.523a2.602 2.602 0 0 0-.36.773 3.442 3.442 0 0 0-.125.946Zm6.875.39v-.164c0-.62.089-1.19.266-1.71.177-.527.435-.982.773-1.368a3.485 3.485 0 0 1 1.243-.898c.489-.219 1.046-.328 1.672-.328.635 0 1.197.109 1.687.328.495.213.911.513 1.25.898.339.386.596.841.773 1.367a5.26 5.26 0 0 1 .266 1.711v.164c0 .615-.088 1.185-.266 1.711-.177.521-.434.977-.773 1.368a3.49 3.49 0 0 1-1.242.898c-.49.213-1.05.32-1.68.32-.625 0-1.185-.107-1.68-.32a3.476 3.476 0 0 1-1.25-.898 4.063 4.063 0 0 1-.773-1.368 5.333 5.333 0 0 1-.266-1.71Zm2.063-.164v.164c0 .37.036.717.109 1.04.073.322.185.606.336.851.151.245.347.438.586.578.245.135.537.203.875.203.333 0 .62-.068.859-.203.24-.14.435-.333.586-.578a2.64 2.64 0 0 0 .344-.852c.073-.322.11-.669.11-1.039v-.164c0-.364-.037-.705-.11-1.023a2.642 2.642 0 0 0-.344-.852 1.644 1.644 0 0 0-.593-.586c-.24-.145-.529-.218-.867-.218a1.623 1.623 0 0 0-1.446.804 2.775 2.775 0 0 0-.336.852 4.563 4.563 0 0 0-.109 1.023Zm9.719 2.274 1.851-6.422h1.313l-.391 2.219L359.172 69h-1.133l.227-2.031Zm-1.024-6.422 1.391 6.437.125 2.016h-1.305l-2.219-8.453h2.008Zm5.906 6.344 1.36-6.344h2L364.305 69H363l.148-2.11Zm-1.515-6.344 1.836 6.36.242 2.093h-1.133l-1.883-6.234-.383-2.22h1.321ZM369.914 57v12h-2.07V57h2.07Zm5.766 12.156c-.641 0-1.216-.104-1.727-.312a3.803 3.803 0 0 1-1.305-.867 3.994 3.994 0 0 1-.82-1.305 4.557 4.557 0 0 1-.281-1.61v-.312c0-.651.094-1.242.281-1.773.188-.537.453-.998.797-1.383a3.51 3.51 0 0 1 1.234-.89 3.94 3.94 0 0 1 1.586-.313c.599 0 1.128.101 1.586.304.459.198.841.48 1.149.844.307.365.539.802.695 1.313.156.505.234 1.065.234 1.68v.866h-6.625v-1.421h4.594v-.157a2.493 2.493 0 0 0-.187-.898 1.437 1.437 0 0 0-.532-.656c-.239-.167-.549-.25-.929-.25a1.55 1.55 0 0 0-.805.203c-.224.13-.411.317-.563.562-.145.24-.255.526-.328.86a5.198 5.198 0 0 0-.109 1.109v.313c0 .354.047.682.141.984.099.302.242.565.429.789.193.219.422.39.688.516.271.12.578.18.922.18.432 0 .823-.084 1.172-.25.354-.173.661-.425.921-.759l1.04 1.079c-.178.26-.417.51-.719.75-.297.24-.657.434-1.078.585-.422.146-.909.22-1.461.22Zm9.882-1.953V57h2.079v12h-1.875l-.204-1.797Zm-5.429-2.328v-.164c0-.646.073-1.232.219-1.758.151-.531.369-.987.656-1.367.286-.38.633-.675 1.039-.883a3.05 3.05 0 0 1 1.398-.312c.506 0 .946.101 1.321.304.38.203.703.492.968.867.271.376.487.82.649 1.336.161.51.278 1.073.351 1.688v.445a8.885 8.885 0 0 1-.351 1.649c-.162.5-.378.937-.649 1.312-.265.37-.588.656-.968.86-.381.203-.826.304-1.336.304-.516 0-.979-.107-1.391-.32a3.055 3.055 0 0 1-1.039-.898 4.332 4.332 0 0 1-.648-1.36 6.292 6.292 0 0 1-.219-1.703Zm2.07-.164v.164c0 .365.031.706.094 1.023.062.318.164.6.305.844.14.24.32.427.539.563.224.135.494.203.812.203.406 0 .74-.089 1-.266.266-.182.471-.43.617-.742.146-.318.24-.674.282-1.07v-1.227a3.495 3.495 0 0 0-.164-.867 2.073 2.073 0 0 0-.36-.688 1.59 1.59 0 0 0-.562-.453 1.8 1.8 0 0 0-.797-.164c-.318 0-.589.07-.813.211a1.56 1.56 0 0 0-.547.57c-.14.245-.244.53-.312.852a5.47 5.47 0 0 0-.094 1.047Zm12.68-4.164h1.875v8.195c0 .766-.167 1.414-.5 1.945a3.12 3.12 0 0 1-1.383 1.22c-.594.28-1.284.421-2.07.421-.339 0-.706-.047-1.102-.14a4.458 4.458 0 0 1-1.133-.446 2.8 2.8 0 0 1-.898-.773l.93-1.219c.281.328.599.576.953.742.354.172.737.258 1.148.258.417 0 .771-.078 1.063-.234.296-.151.523-.375.679-.672.162-.292.243-.651.243-1.078v-6.29l.195-1.93Zm-5.711 4.328v-.164c0-.646.078-1.232.234-1.758a4.13 4.13 0 0 1 .672-1.367c.297-.38.654-.675 1.07-.883a3.17 3.17 0 0 1 1.422-.312c.558 0 1.026.101 1.407.304.385.203.703.492.953.867.255.376.453.82.593 1.336.146.51.258 1.073.336 1.688v.445a8.885 8.885 0 0 1-.351 1.649c-.156.5-.365.937-.625 1.312a2.74 2.74 0 0 1-.969.86c-.385.203-.838.304-1.359.304s-.99-.107-1.407-.32a3.164 3.164 0 0 1-1.07-.898 4.243 4.243 0 0 1-.672-1.36 5.913 5.913 0 0 1-.234-1.703Zm2.062-.164v.164c0 .365.037.706.11 1.023.073.318.185.6.336.844.151.24.341.427.57.563.229.135.503.203.82.203.427 0 .776-.089 1.047-.266.276-.182.485-.43.625-.742.146-.318.24-.674.281-1.07v-1.227a3.737 3.737 0 0 0-.171-.867 2.156 2.156 0 0 0-.352-.688 1.561 1.561 0 0 0-.578-.453 1.96 1.96 0 0 0-.836-.164c-.313 0-.586.07-.82.211a1.631 1.631 0 0 0-.578.57 2.887 2.887 0 0 0-.344.852c-.073.323-.11.672-.11 1.047Zm11.18 4.445c-.641 0-1.216-.104-1.726-.312a3.784 3.784 0 0 1-1.305-.867 3.996 3.996 0 0 1-.821-1.305 4.557 4.557 0 0 1-.281-1.61v-.312c0-.651.094-1.242.281-1.773.188-.537.454-.998.797-1.383a3.514 3.514 0 0 1 1.235-.89 3.936 3.936 0 0 1 1.586-.313c.599 0 1.127.101 1.586.304.458.198.841.48 1.148.844.307.365.539.802.695 1.313.157.505.235 1.065.235 1.68v.866h-6.625v-1.421h4.593v-.157a2.472 2.472 0 0 0-.187-.898 1.441 1.441 0 0 0-.531-.656c-.24-.167-.55-.25-.93-.25-.307 0-.575.067-.805.203-.224.13-.411.317-.562.562-.146.24-.255.526-.328.86-.073.333-.11.703-.11 1.109v.313c0 .354.047.682.141.984.099.302.242.565.43.789.192.219.422.39.687.516.271.12.578.18.922.18.432 0 .823-.084 1.172-.25.354-.173.661-.425.922-.759l1.039 1.079a3.45 3.45 0 0 1-.719.75 3.67 3.67 0 0 1-1.078.585c-.422.146-.909.22-1.461.22ZM318.5 85.046c0-.218-.034-.413-.102-.585a1.078 1.078 0 0 0-.351-.477 2.816 2.816 0 0 0-.711-.421 9.908 9.908 0 0 0-1.172-.438 12.965 12.965 0 0 1-1.484-.563 5.81 5.81 0 0 1-1.211-.726 3.097 3.097 0 0 1-.805-.953c-.193-.365-.289-.787-.289-1.266 0-.469.099-.896.297-1.281.203-.385.489-.716.859-.992.37-.281.805-.498 1.305-.649a5.819 5.819 0 0 1 1.672-.226c.844 0 1.573.153 2.187.46.62.308 1.099.725 1.438 1.25.338.527.508 1.118.508 1.774H318.5c0-.354-.076-.666-.227-.937a1.534 1.534 0 0 0-.671-.641c-.297-.156-.672-.234-1.125-.234-.438 0-.803.065-1.094.195-.287.13-.503.307-.649.531-.14.224-.211.474-.211.75 0 .209.05.396.149.563.099.161.247.315.445.46.198.141.443.274.735.4.296.119.64.239 1.031.358.625.188 1.172.396 1.64.625.474.23.868.49 1.18.782.318.291.555.62.711.984.162.365.242.779.242 1.242 0 .49-.096.927-.289 1.313a2.784 2.784 0 0 1-.828.984 3.84 3.84 0 0 1-1.297.617c-.5.14-1.06.211-1.68.211a6.284 6.284 0 0 1-1.64-.219 4.976 4.976 0 0 1-1.461-.671 3.42 3.42 0 0 1-1.047-1.141c-.26-.463-.391-1.005-.391-1.625h2.157c0 .36.057.667.172.922.119.25.286.456.5.617.218.156.474.27.765.344.292.073.607.11.945.11.438 0 .797-.06 1.079-.18.286-.126.5-.297.64-.516a1.32 1.32 0 0 0 .219-.75Zm6.133 2.016 2.265-7.515h2.211l-3.39 9.734a6.6 6.6 0 0 1-.305.68c-.12.245-.281.477-.484.695a2.324 2.324 0 0 1-.766.547c-.302.14-.669.211-1.102.211-.187 0-.354-.013-.5-.039a6.223 6.223 0 0 1-.46-.102v-1.546c.052.005.112.007.179.007.073.006.136.008.188.008.302 0 .552-.036.75-.11a.982.982 0 0 0 .476-.335c.125-.151.229-.35.313-.594l.625-1.64Zm-1.117-7.515 1.914 6.226.336 2.18-1.422.258-3.055-8.664h2.227Zm11.242 6.14a.838.838 0 0 0-.141-.476c-.094-.14-.271-.268-.531-.383-.255-.12-.63-.232-1.125-.336a8.298 8.298 0 0 1-1.211-.351 3.9 3.9 0 0 1-.953-.508 2.302 2.302 0 0 1-.625-.711 2.009 2.009 0 0 1-.219-.953c0-.35.076-.677.227-.985a2.4 2.4 0 0 1 .656-.82c.286-.24.635-.427 1.047-.562a4.28 4.28 0 0 1 1.39-.211c.719 0 1.336.117 1.852.351.521.235.919.557 1.195.969.276.406.414.865.414 1.375h-2.062c0-.224-.052-.427-.156-.61a1.075 1.075 0 0 0-.461-.437c-.209-.115-.472-.172-.789-.172a1.69 1.69 0 0 0-.727.14 1.059 1.059 0 0 0-.437.368.893.893 0 0 0-.149.5c0 .135.026.258.078.367.058.104.149.2.274.29.125.088.294.169.507.241.219.073.487.144.805.211.63.125 1.18.292 1.649.5.474.204.843.474 1.109.813.266.338.398.77.398 1.297 0 .375-.08.719-.242 1.031a2.388 2.388 0 0 1-.703.805c-.307.229-.674.408-1.101.539a5.15 5.15 0 0 1-1.446.187c-.776 0-1.432-.138-1.969-.414-.536-.281-.942-.635-1.218-1.062a2.464 2.464 0 0 1-.414-1.344h1.976c.016.328.104.591.266.789.161.198.364.341.609.43.25.083.513.125.789.125.313 0 .576-.042.789-.125a1.13 1.13 0 0 0 .485-.352.86.86 0 0 0 .164-.516Zm7.586-6.14v1.484H337.5v-1.484h4.844Zm-3.547-2.078h2.07v8.094c0 .25.034.442.102.578a.522.522 0 0 0 .304.273c.136.047.297.07.485.07.135 0 .26-.007.375-.023.114-.016.211-.031.289-.047l.008 1.547a3.906 3.906 0 0 1-.586.14 4.362 4.362 0 0 1-.727.055c-.463 0-.87-.078-1.219-.234a1.742 1.742 0 0 1-.812-.774c-.193-.359-.289-.833-.289-1.421v-8.258Zm8.719 10.687c-.641 0-1.217-.104-1.727-.312a3.803 3.803 0 0 1-1.305-.867 3.994 3.994 0 0 1-.82-1.305 4.557 4.557 0 0 1-.281-1.61v-.312c0-.651.094-1.242.281-1.773.188-.537.453-.998.797-1.383a3.51 3.51 0 0 1 1.234-.89 3.936 3.936 0 0 1 1.586-.313c.599 0 1.128.101 1.586.304.459.198.841.48 1.149.844.307.365.539.802.695 1.313.156.505.234 1.065.234 1.68v.866h-6.625v-1.421h4.594v-.157a2.493 2.493 0 0 0-.187-.898 1.437 1.437 0 0 0-.532-.656c-.239-.167-.549-.25-.929-.25a1.55 1.55 0 0 0-.805.203c-.224.13-.412.318-.563.562-.145.24-.255.526-.328.86a5.198 5.198 0 0 0-.109 1.109v.313c0 .354.047.682.141.984.099.302.242.565.429.789.193.219.422.39.688.516.271.12.578.18.922.18.432 0 .823-.084 1.171-.25.355-.173.662-.425.922-.759l1.039 1.079c-.177.26-.416.51-.718.75-.297.24-.657.434-1.078.585-.422.146-.909.22-1.461.22Zm6.867-6.875V88h-2.063v-8.453h1.946l.117 1.734Zm-.305 2.188h-.633c0-.589.071-1.13.211-1.625.146-.495.36-.925.641-1.29a2.9 2.9 0 0 1 1.039-.859c.417-.203.898-.304 1.445-.304.38 0 .729.057 1.047.171.318.11.591.284.82.524.235.234.414.542.54.922.124.375.187.825.187 1.351V88h-2.063v-5.43c0-.395-.057-.705-.171-.93a.932.932 0 0 0-.477-.468 1.815 1.815 0 0 0-.75-.14c-.323 0-.602.064-.836.195-.229.125-.419.299-.57.523a2.529 2.529 0 0 0-.328.773 4.159 4.159 0 0 0-.102.946Zm5.141-.383-.852.156a5.275 5.275 0 0 1 .219-1.492c.141-.469.346-.878.617-1.227.276-.354.617-.63 1.024-.828.411-.203.885-.304 1.421-.304.417 0 .792.06 1.125.18.339.114.628.299.868.554.239.25.421.576.547.977.13.4.195.89.195 1.468V88h-2.078v-5.438c0-.411-.058-.726-.172-.945a.898.898 0 0 0-.477-.453 1.864 1.864 0 0 0-.734-.133 1.62 1.62 0 0 0-.75.164c-.208.105-.386.25-.531.438a2.025 2.025 0 0 0-.321.656 3.01 3.01 0 0 0-.101.797Zm11.664 2.602a.838.838 0 0 0-.141-.477c-.094-.14-.271-.268-.531-.383-.255-.12-.63-.232-1.125-.336a8.298 8.298 0 0 1-1.211-.351c-.37-.141-.687-.31-.953-.508a2.302 2.302 0 0 1-.625-.711 2.009 2.009 0 0 1-.219-.953c0-.35.076-.677.227-.985a2.4 2.4 0 0 1 .656-.82c.286-.24.635-.427 1.047-.562a4.28 4.28 0 0 1 1.39-.211c.719 0 1.336.117 1.852.351.521.235.919.557 1.195.969.276.406.414.865.414 1.375h-2.062c0-.224-.052-.427-.156-.61a1.075 1.075 0 0 0-.461-.437c-.209-.115-.472-.172-.789-.172a1.69 1.69 0 0 0-.727.14 1.059 1.059 0 0 0-.437.368.893.893 0 0 0-.149.5c0 .135.026.258.078.367.058.104.149.2.274.29.125.088.294.169.508.241.218.073.486.144.804.211.63.125 1.18.292 1.649.5.474.204.843.474 1.109.813.266.338.398.77.398 1.297 0 .375-.08.719-.242 1.031a2.388 2.388 0 0 1-.703.805c-.307.229-.674.408-1.101.539a5.15 5.15 0 0 1-1.446.187c-.776 0-1.432-.138-1.968-.414-.537-.281-.943-.635-1.219-1.062a2.464 2.464 0 0 1-.414-1.344h1.976c.016.328.104.591.266.789.161.198.364.341.609.43.25.083.513.125.789.125.313 0 .576-.042.789-.125a1.13 1.13 0 0 0 .485-.352.86.86 0 0 0 .164-.516ZM498.586 65.383h1.5a4.787 4.787 0 0 1-.617 1.93 3.616 3.616 0 0 1-1.414 1.351c-.61.328-1.37.492-2.282.492a4.328 4.328 0 0 1-1.82-.375 4.035 4.035 0 0 1-1.398-1.062 4.976 4.976 0 0 1-.907-1.664c-.208-.651-.312-1.375-.312-2.172V62.75c0-.797.104-1.518.312-2.164a4.907 4.907 0 0 1 .914-1.672c.402-.464.883-.82 1.446-1.07.562-.25 1.195-.375 1.898-.375.86 0 1.586.161 2.18.484.594.323 1.055.771 1.383 1.344.333.568.539 1.226.617 1.976h-1.5c-.073-.53-.208-.987-.406-1.367a2.11 2.11 0 0 0-.844-.89c-.365-.209-.841-.313-1.43-.313-.505 0-.95.096-1.336.29-.38.192-.7.465-.961.82a3.817 3.817 0 0 0-.578 1.273 6.486 6.486 0 0 0-.195 1.648v1.149c0 .557.057 1.08.172 1.57.12.49.299.92.539 1.29.239.369.544.66.914.874.37.209.807.313 1.312.313.641 0 1.151-.102 1.532-.305.38-.203.666-.495.859-.875.198-.38.339-.836.422-1.367Zm2.953-.516v-.18c0-.609.089-1.174.266-1.695a4.03 4.03 0 0 1 .765-1.367c.334-.39.737-.693 1.211-.906a3.758 3.758 0 0 1 1.594-.328c.594 0 1.128.109 1.602.328.479.213.885.515 1.218.906.339.385.597.841.774 1.367.177.521.265 1.086.265 1.696v.18c0 .609-.088 1.174-.265 1.695-.177.52-.435.976-.774 1.367a3.54 3.54 0 0 1-1.211.906c-.468.213-1 .32-1.593.32a3.858 3.858 0 0 1-1.602-.32 3.628 3.628 0 0 1-1.219-.906 4.133 4.133 0 0 1-.765-1.368 5.237 5.237 0 0 1-.266-1.695Zm1.445-.18v.18c0 .422.05.82.149 1.195.099.37.247.698.445.985.203.286.456.513.758.68.302.161.654.242 1.055.242.395 0 .742-.081 1.039-.242.302-.167.552-.394.75-.68.198-.287.346-.615.445-.984.104-.376.156-.774.156-1.196v-.18c0-.416-.052-.81-.156-1.18a3.041 3.041 0 0 0-.453-.991 2.156 2.156 0 0 0-.75-.688 2.105 2.105 0 0 0-1.047-.25c-.396 0-.745.083-1.047.25a2.247 2.247 0 0 0-.75.688 3.136 3.136 0 0 0-.445.992c-.099.37-.149.763-.149 1.18Zm9.508-2.335V69h-1.445v-8.453h1.367l.078 1.805Zm-.344 2.101-.601-.023a5.07 5.07 0 0 1 .258-1.602c.166-.495.401-.924.703-1.289a3.128 3.128 0 0 1 1.078-.844 3.181 3.181 0 0 1 1.398-.304c.417 0 .792.057 1.125.172.334.109.618.286.852.53.24.245.422.563.547.954.125.385.187.857.187 1.414V69h-1.453v-5.555c0-.442-.065-.797-.195-1.062a1.2 1.2 0 0 0-.57-.586c-.25-.125-.558-.188-.922-.188-.36 0-.688.076-.985.227-.291.151-.544.36-.758.625-.208.266-.372.57-.492.914a3.356 3.356 0 0 0-.172 1.078Zm11.282-3.906v1.11h-4.571v-1.11h4.571Zm-3.024-2.055h1.446v8.414c0 .287.044.503.132.649a.64.64 0 0 0 .344.289c.141.047.292.07.453.07.12 0 .245-.01.375-.031.136-.026.237-.047.305-.063l.008 1.18a3.41 3.41 0 0 1-.453.102 3.458 3.458 0 0 1-.664.054c-.355 0-.68-.07-.977-.21-.297-.141-.534-.376-.711-.704-.172-.333-.258-.781-.258-1.344v-8.406Zm8.227 10.664a4.158 4.158 0 0 1-1.602-.297 3.622 3.622 0 0 1-1.226-.851 3.794 3.794 0 0 1-.782-1.297 4.763 4.763 0 0 1-.273-1.64v-.329c0-.687.102-1.3.305-1.836.203-.541.479-1 .828-1.375a3.553 3.553 0 0 1 1.187-.851c.443-.193.901-.29 1.375-.29.604 0 1.125.105 1.563.313.443.208.804.5 1.086.875.281.37.489.807.625 1.313.135.5.203 1.047.203 1.64v.649h-6.313V64h4.868v-.11a3.592 3.592 0 0 0-.235-1.093 1.96 1.96 0 0 0-.625-.875c-.286-.23-.677-.344-1.172-.344a1.966 1.966 0 0 0-1.617.82 3.08 3.08 0 0 0-.461.993c-.109.39-.164.84-.164 1.351v.328c0 .401.055.779.164 1.133.115.35.279.656.492.922.219.266.482.474.789.625.313.151.667.227 1.063.227.51 0 .943-.105 1.297-.313a3.22 3.22 0 0 0 .93-.836l.874.695c-.182.276-.414.54-.695.79a3.31 3.31 0 0 1-1.039.609c-.406.156-.888.234-1.445.234Zm6.414-6.93V69h-1.453v-8.453h1.375l.078 1.68Zm-.297 2.227-.672-.023a5.76 5.76 0 0 1 .227-1.602 3.81 3.81 0 0 1 .648-1.289 2.885 2.885 0 0 1 1.07-.844c.428-.203.922-.304 1.485-.304.396 0 .76.057 1.094.172.333.109.622.283.867.523.245.24.435.547.57.922.135.375.203.828.203 1.36V69h-1.445v-5.563c0-.442-.076-.796-.227-1.062a1.295 1.295 0 0 0-.625-.578 2.254 2.254 0 0 0-.953-.188c-.427 0-.784.076-1.07.227-.287.151-.516.36-.688.625-.172.266-.296.57-.375.914a5.106 5.106 0 0 0-.109 1.078Zm5.477-.797-.969.297c.005-.463.081-.909.226-1.336.151-.427.368-.807.649-1.14a3.062 3.062 0 0 1 1.055-.79c.416-.197.893-.296 1.429-.296a3.7 3.7 0 0 1 1.203.18c.354.12.651.304.891.554.245.245.43.56.555.945.125.386.187.844.187 1.375V69H544v-5.57c0-.474-.076-.841-.227-1.102a1.177 1.177 0 0 0-.625-.555 2.496 2.496 0 0 0-.953-.164c-.317 0-.599.055-.843.164-.245.11-.451.26-.618.454a1.978 1.978 0 0 0-.382.648 2.39 2.39 0 0 0-.125.781Zm8.859-1.484V72.25h-1.453V60.547h1.328l.125 1.625Zm5.695 2.531v.164c0 .615-.073 1.185-.219 1.711-.145.521-.359.974-.64 1.36a2.91 2.91 0 0 1-1.024.898c-.406.213-.872.32-1.398.32-.536 0-1.01-.088-1.422-.265a2.814 2.814 0 0 1-1.047-.774 3.962 3.962 0 0 1-.687-1.219 7.008 7.008 0 0 1-.344-1.601v-.875c.062-.625.18-1.185.352-1.68.171-.495.398-.916.679-1.265a2.797 2.797 0 0 1 1.039-.805c.407-.188.875-.281 1.407-.281.531 0 1.002.104 1.414.312.411.203.757.495 1.039.875.281.38.492.836.632 1.367.146.526.219 1.112.219 1.758Zm-1.453.164v-.164c0-.422-.044-.818-.133-1.187a2.98 2.98 0 0 0-.414-.985 1.965 1.965 0 0 0-.703-.672c-.286-.166-.627-.25-1.023-.25a2.25 2.25 0 0 0-.953.188 2.052 2.052 0 0 0-.68.508 2.688 2.688 0 0 0-.461.718 4.086 4.086 0 0 0-.258.829v2.023c.104.365.25.708.438 1.031.187.318.437.576.75.774.312.192.705.289 1.179.289.391 0 .727-.081 1.008-.242.287-.167.521-.394.703-.68.188-.287.326-.615.414-.984.089-.376.133-.774.133-1.196Zm2.914 0v-.18c0-.609.089-1.174.266-1.695a4.03 4.03 0 0 1 .765-1.367c.334-.39.737-.693 1.211-.906a3.761 3.761 0 0 1 1.594-.328c.594 0 1.128.109 1.602.328.479.213.885.515 1.218.906.339.385.597.841.774 1.367.177.521.266 1.086.266 1.696v.18c0 .609-.089 1.174-.266 1.695-.177.52-.435.976-.774 1.367a3.545 3.545 0 0 1-1.21.906c-.469.213-1 .32-1.594.32a3.858 3.858 0 0 1-1.602-.32 3.628 3.628 0 0 1-1.219-.906 4.133 4.133 0 0 1-.765-1.368 5.237 5.237 0 0 1-.266-1.695Zm1.446-.18v.18c0 .422.049.82.148 1.195.099.37.247.698.445.985.203.286.456.513.758.68.302.161.654.242 1.055.242.396 0 .742-.081 1.039-.242.302-.167.552-.394.75-.68.198-.287.346-.615.445-.984.104-.376.156-.774.156-1.196v-.18c0-.416-.052-.81-.156-1.18a3.041 3.041 0 0 0-.453-.991 2.156 2.156 0 0 0-.75-.688 2.105 2.105 0 0 0-1.047-.25c-.396 0-.745.083-1.047.25a2.247 2.247 0 0 0-.75.688 3.136 3.136 0 0 0-.445.992c-.099.37-.148.763-.148 1.18Zm9.507-2.812V69h-1.445v-8.453h1.406l.039 1.328Zm2.641-1.375-.008 1.344a2.078 2.078 0 0 0-.344-.047 3.652 3.652 0 0 0-.359-.016c-.333 0-.628.052-.883.157-.255.104-.471.25-.648.437a2.104 2.104 0 0 0-.422.672 3.217 3.217 0 0 0-.195.844l-.407.234c0-.51.05-.99.149-1.438.104-.447.263-.843.476-1.187.214-.349.485-.62.813-.813.333-.197.729-.296 1.187-.296.104 0 .224.013.36.039.135.02.229.044.281.07Zm6.008 7.055v-4.352c0-.333-.068-.622-.203-.867a1.337 1.337 0 0 0-.594-.578c-.266-.136-.594-.203-.985-.203-.364 0-.684.062-.96.187a1.67 1.67 0 0 0-.641.492 1.08 1.08 0 0 0-.227.657h-1.445c0-.302.078-.602.234-.899.157-.297.381-.565.672-.804a3.356 3.356 0 0 1 1.063-.579c.416-.145.88-.218 1.39-.218.615 0 1.157.104 1.625.312.474.208.844.524 1.11.945.271.417.406.94.406 1.57v3.938c0 .281.023.581.07.899.052.317.128.59.227.82V69h-1.508a2.71 2.71 0 0 1-.172-.664 5.444 5.444 0 0 1-.062-.781Zm.25-3.68.015 1.016h-1.461c-.411 0-.778.033-1.101.101a2.524 2.524 0 0 0-.813.29c-.218.13-.385.294-.5.491a1.31 1.31 0 0 0-.172.68c0 .266.06.508.18.727.12.218.3.393.539.523.245.125.545.188.899.188.442 0 .833-.094 1.172-.282.338-.187.606-.416.804-.687.203-.271.313-.534.328-.79l.618.696a2.119 2.119 0 0 1-.297.727 3.489 3.489 0 0 1-1.602 1.367 3.103 3.103 0 0 1-1.234.234c-.573 0-1.076-.112-1.508-.336a2.581 2.581 0 0 1-1-.898 2.382 2.382 0 0 1-.352-1.274c0-.453.089-.851.266-1.195.177-.349.432-.638.766-.867a3.633 3.633 0 0 1 1.203-.531 6.34 6.34 0 0 1 1.57-.18h1.68Zm4.914-2V69h-1.446v-8.453h1.407l.039 1.328Zm2.64-1.375-.007 1.344a2.092 2.092 0 0 0-.344-.047 3.652 3.652 0 0 0-.359-.016 2.32 2.32 0 0 0-.883.157c-.256.104-.472.25-.649.437a2.122 2.122 0 0 0-.422.672 3.217 3.217 0 0 0-.195.844l-.406.234c0-.51.049-.99.148-1.438.104-.447.263-.843.477-1.187.213-.349.484-.62.812-.813.334-.197.729-.296 1.188-.296.104 0 .224.013.359.039.136.02.229.044.281.07Zm3.852 7.625 2.352-7.578h1.546l-3.39 9.758a5.251 5.251 0 0 1-.313.672 3.213 3.213 0 0 1-.484.695 2.311 2.311 0 0 1-.719.531c-.276.14-.607.211-.992.211-.115 0-.26-.016-.438-.047a4.168 4.168 0 0 1-.374-.078l-.008-1.172c.041.005.106.01.195.016a2.325 2.325 0 0 0 1.031-.117c.229-.084.422-.227.578-.43.162-.198.3-.471.414-.82l.602-1.641Zm-1.727-7.578 2.196 6.562.375 1.524-1.039.531-3.11-8.617h1.578ZM135.219 62.516v1.226h-6.157v-1.226h6.157Zm-5.922-4.891V69h-1.508V57.625h1.508Zm7.234 0V69h-1.5V57.625h1.5Zm4.031 2.922V69h-1.453v-8.453h1.453ZM139 58.305a.87.87 0 0 1 .211-.594c.146-.161.359-.242.641-.242.276 0 .487.08.632.242.151.161.227.36.227.594a.818.818 0 0 1-.227.578c-.145.156-.356.234-.632.234-.282 0-.495-.078-.641-.234a.85.85 0 0 1-.211-.578Zm8.805 8.453c0-.209-.047-.401-.141-.578-.088-.183-.273-.347-.555-.493-.276-.15-.692-.28-1.25-.39a9.929 9.929 0 0 1-1.273-.352 3.869 3.869 0 0 1-.961-.492 2.074 2.074 0 0 1-.602-.68 1.902 1.902 0 0 1-.211-.914c0-.333.073-.648.219-.945.151-.297.362-.56.633-.789a3.08 3.08 0 0 1 .992-.54c.386-.13.815-.194 1.289-.194.677 0 1.256.12 1.735.359.479.24.846.56 1.101.96.255.397.383.837.383 1.321h-1.445c0-.234-.071-.46-.211-.68a1.56 1.56 0 0 0-.602-.554c-.26-.146-.58-.219-.961-.219-.401 0-.726.063-.976.188a1.25 1.25 0 0 0-.539.46c-.11.188-.164.386-.164.594 0 .157.026.297.078.422.057.12.156.232.297.336.14.1.338.193.593.281.256.089.581.178.977.266.693.156 1.263.344 1.711.563.448.218.781.486 1 .804.219.318.328.703.328 1.156 0 .37-.078.709-.234 1.016a2.258 2.258 0 0 1-.664.797 3.31 3.31 0 0 1-1.032.516c-.396.12-.841.18-1.336.18-.744 0-1.375-.134-1.89-.4-.516-.265-.906-.609-1.172-1.03a2.465 2.465 0 0 1-.399-1.336h1.454c.02.395.135.71.343.945.209.23.464.393.766.492.302.094.602.14.898.14.396 0 .727-.051.993-.156.27-.104.476-.247.617-.43a1 1 0 0 0 .211-.624Zm6.883-6.211v1.11h-4.571v-1.11h4.571Zm-3.024-2.055h1.445v8.414c0 .287.045.503.133.649a.636.636 0 0 0 .344.289c.141.047.292.07.453.07.12 0 .245-.01.375-.031.135-.026.237-.047.305-.063l.008 1.18c-.115.037-.266.07-.454.102a3.444 3.444 0 0 1-.664.054 2.25 2.25 0 0 1-.976-.21c-.297-.141-.534-.376-.711-.704-.172-.333-.258-.781-.258-1.344v-8.406Zm4.18 6.375v-.18c0-.609.088-1.174.265-1.695.177-.526.433-.982.766-1.367.333-.39.737-.693 1.211-.906a3.758 3.758 0 0 1 1.594-.328c.593 0 1.127.109 1.601.328.479.213.886.515 1.219.906.339.385.596.841.773 1.367a5.21 5.21 0 0 1 .266 1.696v.18a5.21 5.21 0 0 1-.266 1.695c-.177.52-.434.976-.773 1.367a3.54 3.54 0 0 1-1.211.906c-.469.213-1 .32-1.594.32a3.856 3.856 0 0 1-1.601-.32 3.628 3.628 0 0 1-1.219-.906 4.135 4.135 0 0 1-.766-1.368 5.237 5.237 0 0 1-.265-1.695Zm1.445-.18v.18c0 .422.05.82.149 1.195.098.37.247.698.445.985.203.286.456.513.758.68.302.161.653.242 1.054.242.396 0 .743-.081 1.039-.242.302-.167.552-.394.75-.68.198-.287.347-.615.446-.984.104-.376.156-.774.156-1.196v-.18c0-.416-.052-.81-.156-1.18a3.041 3.041 0 0 0-.453-.991 2.156 2.156 0 0 0-.75-.688 2.105 2.105 0 0 0-1.047-.25c-.396 0-.745.083-1.047.25a2.247 2.247 0 0 0-.75.688 3.114 3.114 0 0 0-.445.992c-.099.37-.149.763-.149 1.18Zm9.508-2.812V69h-1.445v-8.453h1.406l.039 1.328Zm2.641-1.375-.008 1.344a2.092 2.092 0 0 0-.344-.047 3.652 3.652 0 0 0-.359-.016 2.32 2.32 0 0 0-.883.157c-.255.104-.472.25-.649.437a2.122 2.122 0 0 0-.422.672 3.217 3.217 0 0 0-.195.844l-.406.234c0-.51.049-.99.148-1.438.104-.447.263-.843.477-1.187.213-.349.484-.62.812-.813.334-.197.73-.296 1.188-.296.104 0 .224.013.359.039.136.02.229.044.282.07Zm2.906.047V69h-1.453v-8.453h1.453Zm-1.563-2.242c0-.235.071-.433.211-.594.146-.161.36-.242.641-.242.276 0 .487.08.633.242.151.161.226.36.226.594a.817.817 0 0 1-.226.578c-.146.156-.357.234-.633.234-.281 0-.495-.078-.641-.234a.854.854 0 0 1-.211-.578Zm7.266 9.664c.344 0 .661-.07.953-.211.292-.14.531-.334.719-.578.187-.25.294-.534.32-.852h1.375c-.026.5-.195.966-.508 1.399a3.465 3.465 0 0 1-1.211 1.039c-.5.26-1.049.39-1.648.39-.636 0-1.19-.112-1.664-.336a3.29 3.29 0 0 1-1.172-.922 4.118 4.118 0 0 1-.695-1.343 5.672 5.672 0 0 1-.227-1.618v-.328c0-.567.076-1.104.227-1.609.156-.51.388-.96.695-1.352.312-.39.703-.698 1.172-.921.474-.224 1.028-.336 1.664-.336.661 0 1.239.135 1.734.406.495.266.883.63 1.164 1.094.287.458.443.979.469 1.562h-1.375a2.08 2.08 0 0 0-.297-.945 1.85 1.85 0 0 0-.687-.672 1.925 1.925 0 0 0-1.008-.258c-.443 0-.815.089-1.117.266a1.955 1.955 0 0 0-.711.703 3.275 3.275 0 0 0-.375.976c-.073.355-.11.717-.11 1.086v.329c0 .37.037.734.11 1.093.073.36.195.685.367.977.177.291.414.526.711.703.302.172.677.258 1.125.258Zm9.976-.414v-4.352c0-.333-.067-.622-.203-.867a1.33 1.33 0 0 0-.593-.578c-.266-.136-.594-.203-.985-.203-.364 0-.685.062-.961.187a1.667 1.667 0 0 0-.64.492 1.08 1.08 0 0 0-.227.657h-1.445c0-.302.078-.602.234-.899a2.62 2.62 0 0 1 .672-.804 3.356 3.356 0 0 1 1.063-.579c.416-.145.88-.218 1.39-.218.615 0 1.156.104 1.625.312.474.208.844.524 1.109.945.271.417.407.94.407 1.57v3.938c0 .281.023.581.07.899.052.317.128.59.227.82V69h-1.508a2.71 2.71 0 0 1-.172-.664 5.313 5.313 0 0 1-.063-.781Zm.25-3.68.016 1.016h-1.461c-.411 0-.779.033-1.101.101a2.524 2.524 0 0 0-.813.29c-.219.13-.385.294-.5.491-.115.193-.172.42-.172.68 0 .266.06.508.18.727.12.218.299.393.539.523.245.125.544.188.898.188.443 0 .834-.094 1.172-.282.339-.187.607-.416.805-.687.203-.271.312-.534.328-.79l.617.696c-.036.219-.135.461-.297.727a3.502 3.502 0 0 1-1.601 1.367 3.108 3.108 0 0 1-1.235.234c-.572 0-1.075-.112-1.507-.336a2.574 2.574 0 0 1-1-.898 2.373 2.373 0 0 1-.352-1.274c0-.453.089-.851.266-1.195.177-.349.432-.638.765-.867a3.652 3.652 0 0 1 1.203-.531c.469-.12.993-.18 1.571-.18h1.679ZM193.312 57v12h-1.453V57h1.453ZM5.977 4.633 2.21 15H.67L5.009 3.625H6l-.023 1.008ZM9.133 15 5.359 4.633l-.023-1.008h.992L10.68 15H9.133Zm-.195-4.21v1.233H2.546V10.79h6.39Zm4.492-2.438V15h-1.446V6.547h1.368l.078 1.805Zm-.344 2.101-.602-.023a5.084 5.084 0 0 1 .258-1.602c.167-.495.401-.924.703-1.289a3.133 3.133 0 0 1 2.477-1.148c.416 0 .791.057 1.125.171.333.11.617.287.851.532.24.245.422.562.547.953.125.385.188.857.188 1.414V15H17.18V9.445c0-.442-.065-.797-.196-1.062a1.2 1.2 0 0 0-.57-.586c-.25-.125-.557-.188-.922-.188-.36 0-.687.076-.984.227-.292.151-.544.36-.758.625-.208.266-.372.57-.492.914a3.34 3.34 0 0 0-.172 1.078ZM24.21 13.97c.344 0 .661-.07.953-.211.292-.14.531-.333.719-.578a1.61 1.61 0 0 0 .32-.852h1.375c-.026.5-.195.966-.508 1.399-.307.427-.71.773-1.21 1.039-.5.26-1.05.39-1.65.39-.634 0-1.19-.112-1.663-.336a3.297 3.297 0 0 1-1.172-.922 4.117 4.117 0 0 1-.695-1.343 5.669 5.669 0 0 1-.227-1.617v-.329c0-.567.076-1.104.227-1.609.156-.51.388-.96.695-1.352.313-.39.703-.697 1.172-.921.474-.224 1.029-.336 1.664-.336.661 0 1.24.135 1.734.406.495.266.883.63 1.164 1.094.287.458.443.979.47 1.562h-1.376a2.081 2.081 0 0 0-.297-.945 1.85 1.85 0 0 0-.687-.672 1.922 1.922 0 0 0-1.008-.258c-.443 0-.815.089-1.117.266a1.958 1.958 0 0 0-.711.703 3.28 3.28 0 0 0-.375.976c-.073.355-.11.717-.11 1.086v.329c0 .37.037.734.11 1.093.073.36.195.685.367.977.177.292.414.526.71.703.303.172.678.258 1.126.258Zm6.562-7.422V15H29.32V6.547h1.453Zm-1.562-2.242c0-.235.07-.433.21-.594.147-.162.36-.242.642-.242.276 0 .486.08.632.242.151.161.227.36.227.594a.817.817 0 0 1-.227.578c-.146.156-.357.234-.633.234-.28 0-.494-.078-.64-.234a.85.85 0 0 1-.211-.578Zm7.39 10.851A4.159 4.159 0 0 1 35 14.86a3.632 3.632 0 0 1-1.227-.851 3.789 3.789 0 0 1-.78-1.297 4.756 4.756 0 0 1-.274-1.64v-.329c0-.687.101-1.3.304-1.836.204-.541.48-1 .829-1.375a3.547 3.547 0 0 1 1.187-.851 3.41 3.41 0 0 1 1.375-.29c.604 0 1.125.105 1.563.313.442.208.804.5 1.086.875.28.37.49.807.624 1.313.136.5.204 1.046.204 1.64v.649h-6.313V10h4.867v-.11a3.601 3.601 0 0 0-.234-1.093 1.966 1.966 0 0 0-.625-.875c-.286-.23-.677-.344-1.172-.344a1.968 1.968 0 0 0-1.617.82 3.07 3.07 0 0 0-.461.993c-.11.39-.164.84-.164 1.351v.328c0 .401.055.779.164 1.133a2.9 2.9 0 0 0 .492.922c.219.266.482.474.79.625.312.151.666.227 1.062.227.51 0 .942-.105 1.297-.313.354-.208.664-.487.93-.836l.874.695c-.182.277-.414.54-.695.79a3.32 3.32 0 0 1-1.04.609c-.405.156-.887.234-1.444.234Zm6.422-6.804V15h-1.445V6.547h1.367l.078 1.805Zm-.343 2.101-.602-.023a5.086 5.086 0 0 1 .258-1.602c.167-.495.401-.924.703-1.289a3.131 3.131 0 0 1 2.477-1.148c.416 0 .791.057 1.125.171.333.11.617.287.851.532.24.245.422.562.547.953.125.385.188.857.188 1.414V15h-1.454V9.445c0-.442-.065-.797-.195-1.062a1.2 1.2 0 0 0-.57-.586c-.25-.125-.558-.188-.922-.188-.36 0-.688.076-.984.227-.292.151-.545.36-.758.625-.209.266-.373.57-.492.914a3.34 3.34 0 0 0-.172 1.078Zm11.28-3.906v1.11h-4.57v-1.11h4.57Zm-3.023-2.055h1.446v8.414c0 .287.044.503.133.649a.636.636 0 0 0 .343.289c.141.047.292.07.453.07.12 0 .245-.01.376-.031.135-.026.236-.047.304-.063L54 15c-.115.037-.266.07-.453.102a3.451 3.451 0 0 1-.664.054c-.354 0-.68-.07-.977-.21-.297-.141-.534-.376-.71-.704-.173-.333-.258-.781-.258-1.344V4.492ZM672.539 36.773V38h-5.687v-1.227h5.687Zm-5.391-10.148V38h-1.507V26.625h1.507Zm6.516 7.242v-.18c0-.609.089-1.174.266-1.695a4.03 4.03 0 0 1 .765-1.367c.334-.39.737-.693 1.211-.906a3.758 3.758 0 0 1 1.594-.328c.594 0 1.128.109 1.602.328.479.213.885.515 1.218.906.339.385.597.841.774 1.367.177.521.265 1.086.265 1.695v.18c0 .61-.088 1.175-.265 1.696-.177.52-.435.976-.774 1.367a3.54 3.54 0 0 1-1.211.906c-.468.214-1 .32-1.593.32a3.858 3.858 0 0 1-1.602-.32 3.628 3.628 0 0 1-1.219-.906 4.133 4.133 0 0 1-.765-1.367 5.237 5.237 0 0 1-.266-1.696Zm1.445-.18v.18c0 .422.05.82.149 1.196.099.37.247.697.445.984.203.286.456.513.758.68.302.161.654.242 1.055.242.395 0 .742-.081 1.039-.242.302-.167.552-.394.75-.68.198-.287.346-.615.445-.984.104-.376.156-.774.156-1.196v-.18c0-.416-.052-.81-.156-1.18a3.041 3.041 0 0 0-.453-.991 2.156 2.156 0 0 0-.75-.688 2.105 2.105 0 0 0-1.047-.25c-.396 0-.745.084-1.047.25a2.247 2.247 0 0 0-.75.688 3.136 3.136 0 0 0-.445.992c-.099.37-.149.763-.149 1.18Zm11.446 3.282c.343 0 .661-.07.953-.211.291-.14.531-.334.719-.578.187-.25.294-.534.32-.852h1.375c-.026.5-.195.966-.508 1.399a3.465 3.465 0 0 1-1.211 1.039c-.5.26-1.049.39-1.648.39-.636 0-1.19-.112-1.664-.336a3.29 3.29 0 0 1-1.172-.922 4.12 4.12 0 0 1-.696-1.343 5.672 5.672 0 0 1-.226-1.617v-.329c0-.567.075-1.104.226-1.609.157-.51.388-.96.696-1.352.312-.39.703-.697 1.172-.921.474-.224 1.028-.336 1.664-.336.661 0 1.239.135 1.734.406.495.265.883.63 1.164 1.094.287.458.443.979.469 1.562h-1.375a2.08 2.08 0 0 0-.297-.945 1.853 1.853 0 0 0-.688-.672 1.919 1.919 0 0 0-1.007-.258c-.443 0-.815.089-1.117.266a1.955 1.955 0 0 0-.711.703 3.275 3.275 0 0 0-.375.976c-.073.355-.11.717-.11 1.086v.328c0 .37.037.735.11 1.094.072.36.195.685.367.977.177.291.414.526.711.703.302.172.677.258 1.125.258Zm9.976-.414v-4.352c0-.333-.067-.622-.203-.867a1.327 1.327 0 0 0-.594-.578c-.265-.136-.593-.203-.984-.203-.365 0-.685.062-.961.187a1.678 1.678 0 0 0-.641.492 1.078 1.078 0 0 0-.226.657h-1.445c0-.302.078-.602.234-.899a2.62 2.62 0 0 1 .672-.805 3.362 3.362 0 0 1 1.062-.578 4.192 4.192 0 0 1 1.391-.218c.615 0 1.156.104 1.625.312.474.209.844.524 1.109.945.271.417.407.94.407 1.57v3.938c0 .282.023.581.07.899.052.317.127.59.226.82V38h-1.507a2.666 2.666 0 0 1-.172-.664 5.313 5.313 0 0 1-.063-.781Zm.25-3.68.016 1.016h-1.461c-.412 0-.779.034-1.102.101a2.518 2.518 0 0 0-.812.29c-.219.13-.386.294-.5.491-.115.193-.172.42-.172.68 0 .266.06.508.18.727a1.3 1.3 0 0 0 .539.523c.245.125.544.188.898.188.443 0 .834-.094 1.172-.282.339-.187.607-.416.805-.687.203-.271.312-.534.328-.79l.617.696c-.036.219-.135.461-.297.727a3.518 3.518 0 0 1-1.601 1.367 3.108 3.108 0 0 1-1.235.234c-.573 0-1.075-.112-1.508-.336a2.581 2.581 0 0 1-1-.898 2.381 2.381 0 0 1-.351-1.274c0-.453.088-.851.265-1.195a2.32 2.32 0 0 1 .766-.867 3.633 3.633 0 0 1 1.203-.531c.469-.12.992-.18 1.571-.18h1.679Zm7.008-3.328v1.11h-4.57v-1.11h4.57Zm-3.023-2.055h1.445v8.414c0 .287.044.503.133.649a.633.633 0 0 0 .344.289c.14.047.291.07.453.07.119 0 .244-.01.375-.031.135-.026.237-.047.304-.063l.008 1.18c-.114.036-.266.07-.453.102a3.451 3.451 0 0 1-.664.054c-.354 0-.68-.07-.977-.21-.296-.141-.533-.376-.711-.704-.171-.333-.257-.781-.257-1.344v-8.406Zm6.289 2.055V38h-1.453v-8.453h1.453Zm-1.563-2.242a.87.87 0 0 1 .211-.594c.146-.162.359-.242.641-.242.276 0 .487.08.633.242.151.161.226.36.226.594a.817.817 0 0 1-.226.578c-.146.156-.357.234-.633.234-.282 0-.495-.078-.641-.234a.85.85 0 0 1-.211-.578Zm3.5 6.562v-.18c0-.609.089-1.174.266-1.695a4.03 4.03 0 0 1 .765-1.367c.334-.39.737-.693 1.211-.906a3.761 3.761 0 0 1 1.594-.328c.594 0 1.128.109 1.602.328.479.213.885.515 1.218.906.339.385.597.841.774 1.367.177.521.266 1.086.266 1.695v.18c0 .61-.089 1.175-.266 1.696-.177.52-.435.976-.774 1.367a3.545 3.545 0 0 1-1.21.906c-.469.214-1 .32-1.594.32a3.858 3.858 0 0 1-1.602-.32 3.628 3.628 0 0 1-1.219-.906 4.133 4.133 0 0 1-.765-1.367 5.237 5.237 0 0 1-.266-1.696Zm1.446-.18v.18c0 .422.049.82.148 1.196.099.37.247.697.445.984.203.286.456.513.758.68.302.161.654.242 1.055.242.396 0 .742-.081 1.039-.242.302-.167.552-.394.75-.68.198-.287.346-.615.445-.984.104-.376.156-.774.156-1.196v-.18c0-.416-.052-.81-.156-1.18a3.041 3.041 0 0 0-.453-.991 2.156 2.156 0 0 0-.75-.688 2.105 2.105 0 0 0-1.047-.25c-.396 0-.745.084-1.047.25a2.247 2.247 0 0 0-.75.688 3.136 3.136 0 0 0-.445.992c-.099.37-.148.763-.148 1.18Zm9.507-2.335V38H718.5v-8.453h1.367l.078 1.805Zm-.343 2.101L719 33.43a5.07 5.07 0 0 1 .258-1.602c.166-.495.401-.924.703-1.289a3.128 3.128 0 0 1 1.078-.844 3.183 3.183 0 0 1 1.399-.304c.416 0 .791.057 1.124.172.334.109.618.286.852.53.24.245.422.563.547.954.125.385.187.857.187 1.414V38h-1.453v-5.555c0-.442-.065-.797-.195-1.062a1.2 1.2 0 0 0-.57-.586c-.25-.125-.558-.188-.922-.188-.36 0-.688.076-.985.227-.291.151-.544.36-.757.625-.209.266-.373.57-.493.914a3.356 3.356 0 0 0-.171 1.078ZM731.305 26h1.453v10.36l-.125 1.64h-1.328V26Zm7.164 7.703v.164c0 .615-.073 1.185-.219 1.711-.146.521-.359.974-.641 1.36a2.984 2.984 0 0 1-1.031.898c-.406.214-.872.32-1.398.32-.537 0-1.008-.09-1.414-.273a2.78 2.78 0 0 1-1.016-.805 4.168 4.168 0 0 1-.664-1.266 7.91 7.91 0 0 1-.336-1.671v-.72a7.92 7.92 0 0 1 .336-1.679c.167-.495.388-.916.664-1.265a2.676 2.676 0 0 1 1.016-.805c.401-.188.867-.281 1.398-.281.531 0 1.003.104 1.414.312.412.203.755.495 1.031.875.282.38.495.836.641 1.367.146.526.219 1.112.219 1.758Zm-1.453.164v-.164c0-.422-.039-.818-.118-1.187a3.07 3.07 0 0 0-.375-.985 1.86 1.86 0 0 0-.679-.672c-.282-.166-.628-.25-1.039-.25a2.25 2.25 0 0 0-.953.188 2.052 2.052 0 0 0-.68.508 2.688 2.688 0 0 0-.461.718 4.086 4.086 0 0 0-.258.829v1.882c.083.365.219.716.406 1.055.193.333.448.607.766.82.323.214.721.32 1.195.32.391 0 .724-.077 1-.234.282-.161.508-.383.68-.664.177-.281.307-.606.391-.976.083-.37.125-.766.125-1.188Zm8.265 2.688v-4.352c0-.333-.067-.622-.203-.867a1.327 1.327 0 0 0-.594-.578c-.265-.136-.593-.203-.984-.203-.365 0-.685.062-.961.187a1.678 1.678 0 0 0-.641.492 1.078 1.078 0 0 0-.226.657h-1.445c0-.302.078-.602.234-.899a2.62 2.62 0 0 1 .672-.805 3.362 3.362 0 0 1 1.062-.578 4.192 4.192 0 0 1 1.391-.218c.615 0 1.156.104 1.625.312.474.209.844.524 1.109.945.271.417.407.94.407 1.57v3.938c0 .282.023.581.07.899.052.317.127.59.226.82V38h-1.507a2.666 2.666 0 0 1-.172-.664 5.313 5.313 0 0 1-.063-.781Zm.25-3.68.016 1.016h-1.461c-.412 0-.779.034-1.102.101a2.518 2.518 0 0 0-.812.29c-.219.13-.386.294-.5.491-.115.193-.172.42-.172.68 0 .266.06.508.18.727a1.3 1.3 0 0 0 .539.523c.245.125.544.188.898.188.443 0 .834-.094 1.172-.282.339-.187.607-.416.805-.687.203-.271.312-.534.328-.79l.617.696c-.036.219-.135.461-.297.727a3.518 3.518 0 0 1-1.601 1.367 3.108 3.108 0 0 1-1.235.234c-.573 0-1.075-.112-1.508-.336a2.581 2.581 0 0 1-1-.898 2.381 2.381 0 0 1-.351-1.274c0-.453.088-.851.265-1.195a2.32 2.32 0 0 1 .766-.867 3.633 3.633 0 0 1 1.203-.531c.469-.12.992-.18 1.571-.18h1.679Zm8.391 2.883c0-.209-.047-.401-.141-.578-.088-.183-.273-.347-.554-.492-.276-.152-.693-.282-1.25-.391a9.9 9.9 0 0 1-1.274-.352 3.869 3.869 0 0 1-.961-.492 2.06 2.06 0 0 1-.601-.68 1.89 1.89 0 0 1-.211-.914c0-.333.073-.648.218-.945.151-.297.362-.56.633-.789a3.08 3.08 0 0 1 .992-.54c.386-.13.816-.194 1.289-.194.678 0 1.256.12 1.735.359.479.24.846.56 1.101.96.256.397.383.837.383 1.321h-1.445c0-.234-.07-.46-.211-.68a1.552 1.552 0 0 0-.602-.554c-.26-.146-.58-.219-.961-.219-.401 0-.726.063-.976.188a1.25 1.25 0 0 0-.539.46 1.164 1.164 0 0 0-.086 1.016c.057.12.156.232.297.336.14.1.338.193.594.281.255.089.58.177.976.266.693.156 1.263.344 1.711.563.448.218.781.486 1 .804.219.318.328.703.328 1.156 0 .37-.078.709-.234 1.016a2.258 2.258 0 0 1-.664.797c-.287.219-.63.39-1.031.516-.396.12-.842.18-1.336.18-.745 0-1.375-.134-1.891-.4-.516-.265-.906-.609-1.172-1.03a2.464 2.464 0 0 1-.398-1.336h1.453c.021.395.135.71.344.945.208.23.463.393.765.492.302.094.602.14.899.14.395 0 .726-.051.992-.156.271-.104.476-.247.617-.43a.993.993 0 0 0 .211-.624Zm6.851 2.398a4.157 4.157 0 0 1-1.601-.297 3.636 3.636 0 0 1-1.227-.851 3.791 3.791 0 0 1-.781-1.297 4.763 4.763 0 0 1-.273-1.64v-.329c0-.687.101-1.3.304-1.836.203-.541.479-1 .828-1.375a3.546 3.546 0 0 1 1.188-.851c.443-.193.901-.29 1.375-.29.604 0 1.125.105 1.562.313.443.209.805.5 1.086.875.282.37.49.807.625 1.313.136.5.203 1.047.203 1.64v.649h-6.312V33h4.867v-.11a3.621 3.621 0 0 0-.234-1.093 1.968 1.968 0 0 0-.625-.875c-.287-.23-.677-.344-1.172-.344a1.966 1.966 0 0 0-1.617.82 3.06 3.06 0 0 0-.461.993c-.11.39-.164.84-.164 1.351v.328c0 .401.054.779.164 1.133.114.35.278.656.492.922.219.266.482.474.789.625.313.151.667.227 1.063.227.51 0 .942-.105 1.296-.313.355-.208.664-.487.93-.836l.875.695c-.182.276-.414.54-.695.79-.281.25-.628.453-1.039.609-.407.156-.888.234-1.446.234Zm10.305-1.797V26h1.453v12h-1.328l-.125-1.64Zm-5.687-2.492v-.164c0-.646.078-1.232.234-1.758a4.24 4.24 0 0 1 .68-1.367c.297-.38.648-.672 1.054-.875.412-.208.87-.312 1.375-.312.532 0 .995.093 1.391.28.401.183.74.451 1.016.806.281.349.502.77.664 1.265.161.495.273 1.055.336 1.68v.719a7.437 7.437 0 0 1-.336 1.672 3.959 3.959 0 0 1-.664 1.265 2.78 2.78 0 0 1-1.016.805c-.401.182-.87.273-1.406.273a2.91 2.91 0 0 1-1.36-.32 3.21 3.21 0 0 1-1.054-.898 4.361 4.361 0 0 1-.68-1.36 5.994 5.994 0 0 1-.234-1.71Zm1.453-.164v.164c0 .422.041.818.125 1.188.088.37.224.695.406.976.182.282.414.503.695.664.282.157.618.235 1.008.235.479 0 .873-.102 1.18-.305a2.28 2.28 0 0 0 .75-.805 4.66 4.66 0 0 0 .437-1.086v-1.882a4.127 4.127 0 0 0-.273-.829 2.57 2.57 0 0 0-.453-.718 1.964 1.964 0 0 0-.68-.508 2.204 2.204 0 0 0-.945-.188c-.396 0-.737.084-1.024.25a1.992 1.992 0 0 0-.695.672c-.182.282-.318.61-.406.985-.084.37-.125.765-.125 1.187ZM1.813 57.625h1.46L7 66.898l3.719-9.273h1.469L7.561 69h-1.14l-4.61-11.375Zm-.477 0h1.289l.21 6.938V69h-1.5V57.625Zm10.031 0h1.29V69h-1.5v-4.438l.21-6.937Zm7.227 11.531a4.159 4.159 0 0 1-1.602-.297 3.632 3.632 0 0 1-1.226-.851 3.789 3.789 0 0 1-.782-1.297 4.756 4.756 0 0 1-.273-1.64v-.329c0-.687.101-1.3.305-1.836.203-.541.479-1 .828-1.375a3.546 3.546 0 0 1 1.187-.851c.443-.193.901-.29 1.375-.29.604 0 1.125.105 1.563.313.442.208.804.5 1.086.875.28.37.49.807.625 1.313.135.5.203 1.047.203 1.64v.649H15.57V64h4.867v-.11a3.604 3.604 0 0 0-.234-1.093 1.965 1.965 0 0 0-.625-.875c-.286-.23-.677-.344-1.172-.344a1.966 1.966 0 0 0-1.617.82c-.198.271-.352.602-.46.993-.11.39-.165.84-.165 1.351v.328c0 .401.055.779.164 1.133a2.9 2.9 0 0 0 .492.922c.22.266.482.474.79.625.312.151.666.227 1.062.227.51 0 .943-.105 1.297-.313.354-.208.664-.487.93-.836l.874.695c-.182.276-.414.54-.695.79a3.32 3.32 0 0 1-1.039.609c-.406.156-.888.234-1.445.234Zm10.304-1.797V57h1.454v12h-1.329l-.125-1.64Zm-5.687-2.492v-.164c0-.646.078-1.232.234-1.758.162-.53.388-.987.68-1.367.297-.38.648-.672 1.055-.875a3 3 0 0 1 1.375-.312c.53 0 .994.093 1.39.28.401.183.74.451 1.016.806.281.349.503.77.664 1.265.162.495.273 1.055.336 1.68v.719a7.36 7.36 0 0 1-.336 1.671 3.943 3.943 0 0 1-.664 1.266 2.778 2.778 0 0 1-1.016.805c-.4.182-.87.273-1.406.273-.495 0-.948-.107-1.36-.32a3.208 3.208 0 0 1-1.054-.898 4.378 4.378 0 0 1-.68-1.36 5.987 5.987 0 0 1-.234-1.71Zm1.453-.164v.164c0 .422.042.818.125 1.188.089.37.224.695.406.976.183.281.414.503.696.664.28.157.617.235 1.007.235.48 0 .873-.102 1.18-.305.313-.203.563-.471.75-.805.188-.333.334-.695.438-1.086v-1.882a4.173 4.173 0 0 0-.274-.829 2.55 2.55 0 0 0-.453-.718 1.959 1.959 0 0 0-.68-.508 2.202 2.202 0 0 0-.945-.188c-.396 0-.737.084-1.023.25a1.994 1.994 0 0 0-.696.672c-.182.282-.317.61-.406.985a5.39 5.39 0 0 0-.125 1.187Zm9.508-4.156V69h-1.453v-8.453h1.453Zm-1.563-2.242c0-.235.07-.433.211-.594.146-.161.36-.242.64-.242.277 0 .488.08.634.242.15.161.226.36.226.594a.817.817 0 0 1-.226.578c-.146.156-.357.234-.633.234-.281 0-.495-.078-.64-.234a.85.85 0 0 1-.212-.578ZM40 69.156a4.159 4.159 0 0 1-1.602-.297 3.632 3.632 0 0 1-1.226-.851 3.787 3.787 0 0 1-.781-1.297 4.756 4.756 0 0 1-.274-1.64v-.329c0-.687.102-1.3.305-1.836.203-.541.479-1 .828-1.375a3.548 3.548 0 0 1 1.188-.851 3.41 3.41 0 0 1 1.374-.29c.605 0 1.126.105 1.563.313.443.208.805.5 1.086.875.281.37.49.807.625 1.313.135.5.203 1.047.203 1.64v.649h-6.312V64h4.867v-.11a3.607 3.607 0 0 0-.235-1.093 1.966 1.966 0 0 0-.625-.875c-.286-.23-.677-.344-1.172-.344a1.967 1.967 0 0 0-1.617.82 3.07 3.07 0 0 0-.46.993c-.11.39-.165.84-.165 1.351v.328c0 .401.055.779.164 1.133.115.35.279.656.493.922.218.266.481.474.789.625.312.151.666.227 1.062.227.51 0 .943-.105 1.297-.313.354-.208.664-.487.93-.836l.875.695c-.183.276-.414.54-.696.79a3.32 3.32 0 0 1-1.039.609c-.406.156-.888.234-1.445.234Zm7.438-1.46 2.312-7.15h1.477L48.187 69h-.968l.218-1.305Zm-1.93-7.15 2.383 7.188.164 1.266h-.97l-3.062-8.453h1.485Zm11.969 7.009v-4.352c0-.333-.068-.622-.204-.867a1.33 1.33 0 0 0-.593-.578c-.266-.136-.594-.203-.985-.203-.364 0-.685.062-.96.187-.271.125-.485.29-.641.492a1.078 1.078 0 0 0-.227.657h-1.445c0-.302.078-.602.234-.899a2.63 2.63 0 0 1 .672-.804 3.359 3.359 0 0 1 1.063-.579c.416-.145.88-.218 1.39-.218.615 0 1.157.104 1.625.312.474.208.844.524 1.11.945.27.417.406.94.406 1.57v3.938c0 .281.023.581.07.899.052.317.128.59.227.82V69H57.71a2.698 2.698 0 0 1-.172-.664 5.35 5.35 0 0 1-.062-.781Zm.25-3.68.015 1.016h-1.46c-.412 0-.78.033-1.102.101a2.52 2.52 0 0 0-.813.29c-.219.13-.385.294-.5.491-.114.193-.172.42-.172.68 0 .266.06.508.18.727.12.218.3.393.54.523.244.125.543.188.898.188a2.38 2.38 0 0 0 1.171-.282c.339-.187.607-.416.805-.687.203-.271.313-.534.328-.79l.617.696a2.098 2.098 0 0 1-.297.727 3.502 3.502 0 0 1-1.602 1.367 3.105 3.105 0 0 1-1.233.234c-.573 0-1.076-.112-1.508-.336a2.577 2.577 0 0 1-1-.898 2.378 2.378 0 0 1-.352-1.274c0-.453.089-.851.266-1.195.177-.349.432-.638.765-.867a3.64 3.64 0 0 1 1.204-.531c.468-.12.992-.18 1.57-.18h1.68ZM62.766 57v12h-1.453V57h1.453ZM672.477 97.383h1.5a4.788 4.788 0 0 1-.618 1.93 3.6 3.6 0 0 1-1.414 1.351c-.609.328-1.369.492-2.281.492a4.325 4.325 0 0 1-1.82-.375 4.048 4.048 0 0 1-1.399-1.062 4.992 4.992 0 0 1-.906-1.664c-.208-.651-.312-1.375-.312-2.172V94.75c0-.797.104-1.518.312-2.164a4.89 4.89 0 0 1 .914-1.672 4.08 4.08 0 0 1 1.445-1.07c.563-.25 1.196-.375 1.899-.375.859 0 1.586.161 2.18.484.593.323 1.054.771 1.382 1.344.334.568.539 1.226.618 1.976h-1.5c-.073-.53-.209-.986-.407-1.367a2.115 2.115 0 0 0-.843-.89c-.365-.209-.842-.313-1.43-.313-.505 0-.951.096-1.336.29-.38.192-.701.465-.961.82a3.817 3.817 0 0 0-.578 1.273 6.486 6.486 0 0 0-.195 1.648v1.149c0 .557.057 1.08.171 1.57.12.49.3.92.54 1.29.239.369.544.66.914.874.369.209.807.313 1.312.313.641 0 1.151-.102 1.531-.305.381-.203.667-.495.86-.875.198-.38.338-.836.422-1.367Zm2.953-.516v-.18c0-.609.088-1.174.265-1.695.177-.526.433-.982.766-1.367.333-.39.737-.693 1.211-.906a3.758 3.758 0 0 1 1.594-.328c.593 0 1.127.109 1.601.328.479.213.886.515 1.219.906.338.385.596.841.773 1.367.177.521.266 1.086.266 1.695v.18c0 .61-.089 1.175-.266 1.695-.177.521-.435.977-.773 1.368a3.545 3.545 0 0 1-1.211.906c-.469.213-1 .32-1.594.32a3.866 3.866 0 0 1-1.601-.32 3.624 3.624 0 0 1-1.219-.906 4.135 4.135 0 0 1-.766-1.368 5.237 5.237 0 0 1-.265-1.695Zm1.445-.18v.18c0 .422.049.82.148 1.195.099.37.248.698.446.985.203.286.455.513.758.68.302.161.653.242 1.054.242.396 0 .742-.081 1.039-.242.302-.167.552-.394.75-.68.198-.287.347-.615.446-.984.104-.376.156-.774.156-1.196v-.18c0-.416-.052-.81-.156-1.18a3.023 3.023 0 0 0-.454-.991 2.139 2.139 0 0 0-.75-.688c-.296-.166-.645-.25-1.046-.25-.396 0-.745.084-1.047.25a2.247 2.247 0 0 0-.75.688 3.138 3.138 0 0 0-.446.992c-.099.37-.148.763-.148 1.18Zm9.5-2.46V101h-1.453v-8.453h1.375l.078 1.68Zm-.297 2.226-.672-.023a5.76 5.76 0 0 1 .227-1.602 3.81 3.81 0 0 1 .648-1.289 2.88 2.88 0 0 1 1.071-.844c.427-.203.921-.304 1.484-.304.396 0 .76.057 1.094.171.333.11.622.284.867.524.245.24.435.547.57.922.136.375.203.828.203 1.36V101h-1.445v-5.563c0-.442-.076-.796-.227-1.062a1.29 1.29 0 0 0-.625-.578 2.25 2.25 0 0 0-.953-.188c-.427 0-.784.076-1.07.227-.286.151-.516.36-.688.625-.171.266-.296.57-.374.914-.073.338-.11.698-.11 1.078Zm5.477-.797-.969.297c.005-.463.081-.909.226-1.336.152-.427.368-.807.649-1.14a3.062 3.062 0 0 1 1.055-.79c.416-.197.893-.296 1.429-.296a3.7 3.7 0 0 1 1.203.18c.355.12.651.304.891.554.245.245.43.56.555.945.125.386.187.844.187 1.375V101h-1.453v-5.57c0-.474-.075-.842-.226-1.102a1.184 1.184 0 0 0-.625-.555 2.505 2.505 0 0 0-.954-.164c-.317 0-.599.055-.843.164-.245.11-.451.26-.618.454a1.978 1.978 0 0 0-.382.648 2.39 2.39 0 0 0-.125.781Zm8.851-1.43V101h-1.453v-8.453h1.375l.078 1.68Zm-.297 2.227-.671-.023a5.76 5.76 0 0 1 .226-1.602 3.81 3.81 0 0 1 .648-1.289 2.889 2.889 0 0 1 1.071-.844c.427-.203.922-.304 1.484-.304.396 0 .761.057 1.094.171.333.11.622.284.867.524.245.24.435.547.57.922.136.375.204.828.204 1.36V101h-1.446v-5.563c0-.442-.075-.796-.226-1.062a1.295 1.295 0 0 0-.625-.578 2.257 2.257 0 0 0-.953-.188c-.428 0-.784.076-1.071.227-.286.151-.515.36-.687.625a2.81 2.81 0 0 0-.375.914c-.073.338-.11.698-.11 1.078Zm5.477-.797-.969.297c.005-.463.081-.909.227-1.336.151-.427.367-.807.648-1.14a3.072 3.072 0 0 1 1.055-.79c.417-.197.893-.296 1.43-.296a3.7 3.7 0 0 1 1.203.18c.354.12.651.304.89.554.245.245.43.56.555.945.125.386.187.844.187 1.375V101h-1.453v-5.57c0-.474-.075-.842-.226-1.102a1.18 1.18 0 0 0-.625-.555 2.503 2.503 0 0 0-.953-.164c-.318 0-.599.055-.844.164-.245.11-.451.26-.617.454a1.964 1.964 0 0 0-.383.648 2.417 2.417 0 0 0-.125.781Zm12.586 3.39v-6.5h1.453V101h-1.383l-.07-1.953Zm.273-1.78.602-.016c0 .563-.06 1.083-.18 1.563a3.353 3.353 0 0 1-.562 1.234 2.666 2.666 0 0 1-1.024.82c-.422.193-.935.289-1.539.289-.411 0-.789-.06-1.133-.179a2.272 2.272 0 0 1-.875-.555 2.529 2.529 0 0 1-.57-.977c-.13-.4-.195-.882-.195-1.445v-5.453h1.445v5.469c0 .38.042.695.125.945.089.245.206.44.352.586.151.14.317.24.5.297.187.057.38.086.578.086.614 0 1.101-.118 1.461-.352.359-.24.617-.56.773-.96a3.62 3.62 0 0 0 .242-1.352Zm4.828-2.914V101h-1.445v-8.453h1.367l.078 1.805Zm-.343 2.101-.602-.023a5.07 5.07 0 0 1 .258-1.602c.167-.495.401-.924.703-1.289a3.137 3.137 0 0 1 2.477-1.148c.416 0 .791.057 1.125.171.333.11.617.287.851.532.24.245.422.562.547.953.125.385.188.857.188 1.414V101h-1.454v-5.555c0-.442-.065-.797-.195-1.062a1.2 1.2 0 0 0-.57-.586c-.25-.125-.557-.188-.922-.188-.359 0-.688.076-.984.227-.292.151-.545.36-.758.625a3.11 3.11 0 0 0-.492.914 3.329 3.329 0 0 0-.172 1.078Zm9.312-3.906V101h-1.453v-8.453h1.453Zm-1.562-2.242a.87.87 0 0 1 .211-.594c.145-.162.359-.242.64-.242.276 0 .487.08.633.242.151.161.227.36.227.594a.818.818 0 0 1-.227.578c-.146.156-.357.234-.633.234-.281 0-.495-.078-.64-.234a.85.85 0 0 1-.211-.578Zm7.422 2.242v1.11h-4.571v-1.11h4.571Zm-3.024-2.055h1.445v8.414c0 .287.045.503.133.649a.636.636 0 0 0 .344.289c.141.047.292.07.453.07.12 0 .245-.01.375-.031.136-.026.237-.047.305-.063l.008 1.18c-.115.036-.266.07-.453.102a3.5 3.5 0 0 1-.665.054c-.354 0-.679-.07-.976-.211-.297-.14-.534-.375-.711-.703-.172-.333-.258-.781-.258-1.344v-8.406Zm7.094 9.633 2.351-7.578h1.547l-3.39 9.758a5.44 5.44 0 0 1-.313.672 3.235 3.235 0 0 1-.484.695 2.3 2.3 0 0 1-.719.531c-.276.141-.607.211-.992.211-.115 0-.261-.016-.438-.047a4.119 4.119 0 0 1-.375-.078l-.007-1.172c.041.005.106.011.195.016a2.34 2.34 0 0 0 1.031-.117 1.27 1.27 0 0 0 .578-.43c.162-.198.3-.471.414-.82l.602-1.641Zm-1.727-7.578 2.196 6.562.375 1.524-1.039.531-3.11-8.617h1.578ZM751.336 89h1.453v10.36l-.125 1.64h-1.328V89Zm7.164 7.703v.164c0 .615-.073 1.185-.219 1.711-.146.521-.359.974-.64 1.36a2.991 2.991 0 0 1-1.032.898c-.406.213-.872.32-1.398.32-.537 0-1.008-.091-1.414-.273a2.786 2.786 0 0 1-1.016-.805 4.166 4.166 0 0 1-.664-1.266 8.037 8.037 0 0 1-.336-1.671v-.72a8.046 8.046 0 0 1 .336-1.679c.167-.495.388-.916.664-1.265a2.676 2.676 0 0 1 1.016-.805c.401-.188.867-.281 1.398-.281.532 0 1.003.104 1.414.312.412.203.756.495 1.032.875.281.38.494.836.64 1.367.146.526.219 1.112.219 1.758Zm-1.453.164v-.164c0-.422-.039-.818-.117-1.187a3.07 3.07 0 0 0-.375-.985 1.87 1.87 0 0 0-.68-.672c-.281-.166-.628-.25-1.039-.25-.365 0-.682.063-.953.188a2.062 2.062 0 0 0-.68.508 2.712 2.712 0 0 0-.461.718c-.114.266-.2.542-.258.829v1.882c.084.365.219.717.407 1.055.192.333.448.607.765.82.323.214.722.32 1.196.32.39 0 .724-.077 1-.234.281-.161.507-.382.679-.664.177-.281.308-.607.391-.976.083-.37.125-.766.125-1.188Zm8.265 2.688v-4.352c0-.333-.067-.622-.203-.867a1.33 1.33 0 0 0-.593-.578c-.266-.136-.594-.203-.985-.203-.364 0-.685.062-.961.187a1.667 1.667 0 0 0-.64.492 1.08 1.08 0 0 0-.227.657h-1.445c0-.303.078-.602.234-.899a2.62 2.62 0 0 1 .672-.805 3.356 3.356 0 0 1 1.063-.578c.416-.145.88-.218 1.39-.218.615 0 1.156.104 1.625.312.474.209.844.524 1.11.945.27.417.406.94.406 1.57v3.938c0 .281.023.581.07.899.052.317.128.591.227.82V101h-1.508a2.715 2.715 0 0 1-.172-.664 5.312 5.312 0 0 1-.063-.781Zm.25-3.68.016 1.016h-1.461c-.411 0-.778.033-1.101.101a2.524 2.524 0 0 0-.813.29c-.219.13-.385.294-.5.491a1.31 1.31 0 0 0-.172.68c0 .266.06.508.18.727.12.218.299.393.539.523.245.125.544.188.898.188.443 0 .834-.094 1.172-.282.339-.187.607-.416.805-.687.203-.271.313-.534.328-.79l.617.696c-.036.219-.135.461-.297.727a3.506 3.506 0 0 1-1.601 1.367 3.11 3.11 0 0 1-1.234.234c-.573 0-1.076-.112-1.508-.336a2.573 2.573 0 0 1-1-.898 2.373 2.373 0 0 1-.352-1.274c0-.453.089-.851.266-1.195.177-.349.432-.638.765-.867a3.652 3.652 0 0 1 1.203-.531c.469-.12.993-.18 1.571-.18h1.679Zm8.391 2.883c0-.209-.047-.401-.141-.578-.088-.183-.273-.347-.554-.493-.276-.15-.693-.28-1.25-.39a9.946 9.946 0 0 1-1.274-.352 3.869 3.869 0 0 1-.961-.492 2.06 2.06 0 0 1-.601-.68 1.89 1.89 0 0 1-.211-.914c0-.333.073-.648.219-.945.151-.297.362-.56.632-.789.277-.23.607-.409.993-.54.385-.13.815-.194 1.289-.194.677 0 1.255.12 1.734.359.479.24.846.56 1.102.96.255.397.382.837.382 1.321h-1.445c0-.234-.07-.46-.211-.68a1.556 1.556 0 0 0-.601-.554c-.261-.146-.581-.219-.961-.219-.401 0-.727.063-.977.188-.245.12-.424.273-.539.46a1.164 1.164 0 0 0-.086 1.016c.057.12.156.232.297.336.141.1.339.193.594.281.255.089.581.178.976.266.693.156 1.263.344 1.711.563.448.218.782.486 1 .804.219.318.328.703.328 1.156a2.248 2.248 0 0 1-.898 1.813 3.29 3.29 0 0 1-1.031.516 4.635 4.635 0 0 1-1.336.179c-.745 0-1.375-.133-1.891-.398-.515-.266-.906-.61-1.172-1.031a2.472 2.472 0 0 1-.398-1.336h1.453c.021.395.135.71.344.945.208.23.463.393.765.492.302.094.602.14.899.14.396 0 .726-.051.992-.156.271-.104.477-.247.617-.43a.993.993 0 0 0 .211-.624Zm6.852 2.398a4.157 4.157 0 0 1-1.602-.297 3.626 3.626 0 0 1-1.226-.851 3.796 3.796 0 0 1-.782-1.297 4.763 4.763 0 0 1-.273-1.64v-.329c0-.687.101-1.3.305-1.836.203-.541.479-1 .828-1.375a3.543 3.543 0 0 1 1.187-.851c.443-.193.901-.29 1.375-.29.604 0 1.125.105 1.563.313.442.209.804.5 1.086.875.281.37.489.807.625 1.313.135.5.203 1.046.203 1.64v.649h-6.313V96h4.867v-.11a3.591 3.591 0 0 0-.234-1.093 1.96 1.96 0 0 0-.625-.875c-.286-.23-.677-.344-1.172-.344a1.966 1.966 0 0 0-1.617.82 3.06 3.06 0 0 0-.461.993c-.109.39-.164.84-.164 1.351v.328c0 .401.055.779.164 1.133.115.35.279.656.492.922.219.266.482.474.789.625.313.151.667.227 1.063.227.51 0 .943-.105 1.297-.313.354-.208.664-.487.929-.836l.875.695a4.037 4.037 0 0 1-.695.789c-.281.25-.628.454-1.039.61-.406.156-.888.234-1.445.234Zm10.304-1.797V89h1.453v12h-1.328l-.125-1.64Zm-5.687-2.492v-.164c0-.646.078-1.232.234-1.758a4.26 4.26 0 0 1 .68-1.367 3.07 3.07 0 0 1 1.055-.875 2.997 2.997 0 0 1 1.375-.312c.531 0 .994.093 1.39.28.401.183.74.451 1.016.806.281.349.502.77.664 1.265.161.495.273 1.055.336 1.68v.719a7.328 7.328 0 0 1-.336 1.671 3.957 3.957 0 0 1-.664 1.266 2.786 2.786 0 0 1-1.016.805c-.401.182-.87.273-1.406.273a2.91 2.91 0 0 1-1.359-.32 3.208 3.208 0 0 1-1.055-.898 4.383 4.383 0 0 1-.68-1.36 5.994 5.994 0 0 1-.234-1.71Zm1.453-.164v.164c0 .422.042.818.125 1.188.089.37.224.695.406.976.183.281.414.503.696.664.281.157.617.235 1.007.235.48 0 .873-.102 1.18-.305.313-.203.563-.471.75-.805.188-.333.333-.695.438-1.086v-1.882a4.194 4.194 0 0 0-.274-.829 2.526 2.526 0 0 0-.453-.718 1.955 1.955 0 0 0-.68-.508 2.197 2.197 0 0 0-.945-.188c-.396 0-.737.084-1.023.25a1.995 1.995 0 0 0-.696.672c-.182.281-.317.61-.406.985-.083.37-.125.765-.125 1.187ZM1.86 111.625h1.46l3.727 9.273 3.719-9.273h1.468L7.61 123H6.47l-4.61-11.375Zm-.477 0h1.289l.21 6.937V123h-1.5v-11.375Zm10.031 0h1.29V123h-1.5v-4.438l.21-6.937Zm3.336 7.242v-.179c0-.61.088-1.175.266-1.696.177-.526.432-.982.765-1.367a3.405 3.405 0 0 1 1.211-.906 3.755 3.755 0 0 1 1.594-.328c.594 0 1.128.109 1.602.328.479.213.885.515 1.218.906.339.385.597.841.774 1.367.177.521.265 1.086.265 1.696v.179c0 .61-.088 1.175-.265 1.695a4.062 4.062 0 0 1-.774 1.368 3.55 3.55 0 0 1-1.21.906c-.47.213-1 .32-1.594.32a3.866 3.866 0 0 1-1.602-.32 3.632 3.632 0 0 1-1.219-.906 4.136 4.136 0 0 1-.765-1.368 5.226 5.226 0 0 1-.266-1.695Zm1.445-.179v.179c0 .422.05.821.149 1.195.099.37.247.698.445.985.203.286.456.513.758.68a2.21 2.21 0 0 0 1.055.242c.395 0 .742-.081 1.039-.242a2.19 2.19 0 0 0 .75-.68c.198-.287.346-.615.445-.985.104-.374.156-.773.156-1.195v-.179c0-.417-.052-.81-.156-1.18a3.032 3.032 0 0 0-.453-.992 2.155 2.155 0 0 0-.75-.688c-.297-.167-.646-.25-1.047-.25-.396 0-.745.083-1.047.25a2.249 2.249 0 0 0-.75.688 3.128 3.128 0 0 0-.445.992c-.1.37-.149.763-.149 1.18Zm13.39 2.671V111h1.454v12h-1.328l-.125-1.641Zm-5.687-2.492v-.164c0-.646.079-1.232.235-1.758.161-.531.388-.987.68-1.367.296-.38.648-.672 1.054-.875.412-.208.87-.312 1.375-.312.531 0 .995.093 1.39.281.402.182.74.45 1.016.805.282.349.503.77.665 1.265.161.495.273 1.055.335 1.68v.719a7.353 7.353 0 0 1-.335 1.671 3.944 3.944 0 0 1-.665 1.266 2.784 2.784 0 0 1-1.015.805c-.401.182-.87.273-1.406.273-.495 0-.948-.107-1.36-.32a3.217 3.217 0 0 1-1.055-.898 4.387 4.387 0 0 1-.68-1.36 5.985 5.985 0 0 1-.234-1.711Zm1.454-.164v.164c0 .422.041.818.125 1.188.088.369.224.695.406.976.182.281.414.503.695.664.281.157.617.235 1.008.235.48 0 .872-.102 1.18-.305.312-.203.562-.471.75-.805.187-.333.333-.695.437-1.086v-1.882a4.176 4.176 0 0 0-.273-.829 2.554 2.554 0 0 0-.453-.718 1.954 1.954 0 0 0-.68-.508 2.202 2.202 0 0 0-.945-.188c-.396 0-.737.084-1.024.25a2.003 2.003 0 0 0-.695.672c-.182.281-.318.61-.406.985a5.379 5.379 0 0 0-.125 1.187Zm11.445 4.453a4.157 4.157 0 0 1-1.602-.297 3.636 3.636 0 0 1-1.226-.851 3.792 3.792 0 0 1-.782-1.297 4.757 4.757 0 0 1-.273-1.641v-.328c0-.687.102-1.299.305-1.836.203-.541.479-1 .828-1.375a3.535 3.535 0 0 1 1.187-.851 3.406 3.406 0 0 1 1.375-.289c.605 0 1.125.104 1.563.312.443.208.805.5 1.086.875.281.37.49.807.625 1.313.135.5.203 1.047.203 1.64v.649h-6.313V118h4.868v-.109a3.602 3.602 0 0 0-.235-1.094 1.966 1.966 0 0 0-.625-.875c-.286-.229-.677-.344-1.172-.344a1.963 1.963 0 0 0-1.617.82 3.072 3.072 0 0 0-.46.993c-.11.39-.165.841-.165 1.351v.328c0 .401.055.779.164 1.133.115.349.279.656.492.922.22.266.482.474.79.625.312.151.666.227 1.062.227.51 0 .943-.105 1.297-.313.354-.208.664-.487.93-.836l.875.695a4.044 4.044 0 0 1-.696.789c-.281.25-.627.454-1.039.61-.406.156-.888.234-1.445.234Zm6.422-7.281V123h-1.446v-8.453h1.407l.039 1.328Zm2.64-1.375-.007 1.344a2.071 2.071 0 0 0-.344-.047 3.472 3.472 0 0 0-.36-.016c-.333 0-.627.052-.882.157-.256.104-.472.25-.649.437a2.094 2.094 0 0 0-.422.672 3.223 3.223 0 0 0-.195.844l-.406.234c0-.51.05-.99.148-1.437.104-.448.263-.844.477-1.188.213-.349.484-.62.812-.812.334-.198.73-.297 1.188-.297.104 0 .224.013.36.039.135.021.228.044.28.07Zm2.782 1.852V123h-1.446v-8.453h1.367l.079 1.805Zm-.344 2.101-.602-.023a5.092 5.092 0 0 1 .258-1.602c.167-.495.401-.924.703-1.289a3.13 3.13 0 0 1 2.477-1.148c.416 0 .791.057 1.125.171.333.11.617.287.851.532.24.245.422.562.547.953.125.385.188.857.188 1.414V123H52.39v-5.555c0-.442-.066-.797-.196-1.062a1.201 1.201 0 0 0-.57-.586c-.25-.125-.557-.188-.922-.188-.36 0-.687.076-.984.227a2.35 2.35 0 0 0-.758.625c-.208.266-.372.57-.492.914a3.342 3.342 0 0 0-.172 1.078Z" fill="#B6ABFF"/><path d="M270.5 64H200M122 65H67M482.5 64H412M600 65c24.5 0 22-31.5 55-31.5M122 65c-24.5 0-22-52-55-52M600 65c24.5 0 22 31.5 55 31.5M122 65c-24.5 0-22 52-55 52" stroke="#3F3584"/></svg>