<svg width="387" height="100" fill="none" xmlns="http://www.w3.org/2000/svg"><path fill-rule="evenodd" clip-rule="evenodd" d="M104 82.688h22.881v-6.5h-18.936l-3.945 6.5Zm8.861-14.6h11.22v-6.3h-7.397l-3.823 6.3Zm8.436-13.9 3.944-6.5h.99v6.5h-4.934Zm18.134 14.93-10.348 13.57h8.5l6.109-8.24 5.891 8.24h8.85l-10.406-13.745 10.006-13.155h-8.3l-5.844 7.856-5.706-7.856h-8.75l9.998 13.33Zm32.738 12.47c1.7 1 3.684 1.5 5.95 1.5 2.534 0 4.8-.567 6.8-1.7 2.034-1.134 3.634-2.734 4.8-4.8 1.2-2.067 1.8-4.517 1.8-7.35 0-2.8-.6-5.234-1.8-7.3-1.166-2.067-2.766-3.667-4.8-4.8-2-1.167-4.266-1.75-6.8-1.75-2.366 0-4.4.5-6.1 1.5a8.889 8.889 0 0 0-2.35 2.006v-3.106h-7.45v36.6h7.8V79.84a9.26 9.26 0 0 0 2.15 1.748Zm8.05-5.8c-1 .6-2.15.9-3.45.9-1.3 0-2.466-.3-3.5-.9-1.033-.6-1.85-1.45-2.45-2.55-.6-1.134-.9-2.467-.9-4 0-1.567.3-2.9.9-4 .6-1.1 1.417-1.95 2.45-2.55 1.034-.6 2.2-.9 3.5-.9 1.3 0 2.45.3 3.45.9 1.034.6 1.85 1.45 2.45 2.55.634 1.1.95 2.433.95 4 0 1.533-.316 2.866-.95 4-.6 1.1-1.416 1.95-2.45 2.55Zm21.772 5.5c2.333 1.2 5.033 1.8 8.1 1.8 2.433 0 4.583-.367 6.45-1.1 1.866-.767 3.416-1.85 4.65-3.25l-4.15-4.5a9.12 9.12 0 0 1-3 1.95c-1.067.433-2.317.65-3.75.65-1.6 0-3-.284-4.2-.85a6.761 6.761 0 0 1-2.75-2.55 7.26 7.26 0 0 1-.753-2h20.353c.033-.334.066-.684.1-1.05.033-.4.05-.75.05-1.05 0-2.9-.617-5.384-1.85-7.45-1.234-2.1-2.917-3.7-5.05-4.8-2.1-1.134-4.467-1.7-7.1-1.7-2.734 0-5.184.6-7.35 1.8a13.228 13.228 0 0 0-5.15 4.9c-1.234 2.066-1.85 4.45-1.85 7.15 0 2.666.633 5.05 1.9 7.15 1.266 2.066 3.05 3.7 5.35 4.9Zm.507-14.4c.13-.834.377-1.584.743-2.25.566-1.067 1.35-1.884 2.35-2.45 1.033-.6 2.216-.9 3.55-.9 1.333 0 2.5.3 3.5.9a6.034 6.034 0 0 1 2.35 2.4c.376.686.627 1.452.754 2.3h-13.247Zm33.236-11.1h-7.45v26.9h7.8v-12.7c0-2.567.65-4.45 1.95-5.65 1.333-1.234 3.066-1.85 5.2-1.85.3 0 .583.016.85.05.266 0 .566.016.9.05v-7.2c-2.534 0-4.684.5-6.45 1.5a8.448 8.448 0 0 0-2.8 2.432v-3.532Zm14.336-5c.9.833 2.067 1.25 3.5 1.25 1.467 0 2.634-.417 3.5-1.25.9-.867 1.35-1.95 1.35-3.25 0-1.234-.45-2.234-1.35-3-.899-.8-2.066-1.2-3.5-1.2-1.433 0-2.6.416-3.5 1.25-.9.833-1.35 1.866-1.35 3.1 0 1.233.45 2.266 1.35 3.1Zm19.89 30.5c2.333 1.2 5.033 1.8 8.1 1.8 2.433 0 4.583-.367 6.45-1.1 1.866-.767 3.416-1.85 4.65-3.25l-4.15-4.5a9.12 9.12 0 0 1-3 1.95c-1.067.433-2.317.65-3.75.65-1.6 0-3-.284-4.2-.85a6.761 6.761 0 0 1-2.75-2.55 7.26 7.26 0 0 1-.753-2h20.353c.033-.334.066-.684.1-1.05.033-.4.05-.75.05-1.05 0-2.9-.617-5.384-1.85-7.45-1.234-2.1-2.917-3.7-5.05-4.8-2.1-1.134-4.467-1.7-7.1-1.7-2.734 0-5.184.6-7.35 1.8a13.228 13.228 0 0 0-5.15 4.9c-1.234 2.066-1.85 4.45-1.85 7.15 0 2.666.633 5.05 1.9 7.15 1.266 2.066 3.05 3.7 5.35 4.9Zm.507-14.4a6.798 6.798 0 0 1 .743-2.25c.566-1.067 1.35-1.884 2.35-2.45 1.033-.6 2.216-.9 3.55-.9 1.333 0 2.5.3 3.5.9a6.034 6.034 0 0 1 2.35 2.4c.376.686.627 1.452.753 2.3h-13.246Zm-20.797-11.1v26.9h7.8v-26.9h-7.8Zm68.632.9c-1.666-.867-3.566-1.3-5.699-1.3-2.301 0-4.35.483-6.15 1.45a10.026 10.026 0 0 0-2.75 2.145v-3.195h-7.45v26.9h7.799v-13.3c0-1.667.267-3.034.801-4.1.566-1.067 1.333-1.85 2.3-2.35 1-.534 2.116-.8 3.35-.8 1.733 0 3.066.516 4 1.55.966 1.033 1.45 2.633 1.45 4.8v14.2h7.8v-15.4c0-2.734-.484-4.967-1.45-6.7-.967-1.767-2.3-3.067-4.001-3.9Zm17.966 24.65c2.267 1.166 4.85 1.75 7.75 1.75 2.833 0 5.3-.584 7.4-1.75 2.1-1.2 3.65-2.884 4.65-5.05l-6.05-3.3c-.7 1.3-1.583 2.25-2.65 2.85-1.033.566-2.167.85-3.4.85-1.333 0-2.533-.3-3.6-.9-1.067-.6-1.917-1.45-2.55-2.55-.6-1.1-.9-2.434-.9-4 0-1.567.3-2.9.9-4 .633-1.1 1.483-1.95 2.55-2.55 1.067-.6 2.267-.9 3.6-.9 1.233 0 2.367.3 3.4.9 1.067.6 1.95 1.533 2.65 2.8l6.05-3.25c-1-2.2-2.55-3.884-4.65-5.05-2.1-1.2-4.567-1.8-7.4-1.8-2.9 0-5.483.6-7.75 1.8-2.267 1.166-4.05 2.8-5.35 4.9-1.267 2.066-1.9 4.45-1.9 7.15 0 2.666.633 5.05 1.9 7.15 1.3 2.1 3.083 3.75 5.35 4.95Zm29.199-.05c2.334 1.2 5.034 1.8 8.1 1.8 2.434 0 4.584-.367 6.45-1.1 1.867-.767 3.417-1.85 4.65-3.25l-4.15-4.5a9.12 9.12 0 0 1-3 1.95c-1.066.433-2.316.65-3.75.65-1.6 0-3-.284-4.2-.85a6.774 6.774 0 0 1-2.75-2.55 7.26 7.26 0 0 1-.753-2h20.353c.034-.334.067-.684.1-1.05.034-.4.05-.75.05-1.05 0-2.9-.616-5.384-1.85-7.45-1.233-2.1-2.916-3.7-5.05-4.8-2.1-1.134-4.466-1.7-7.1-1.7-2.733 0-5.183.6-7.35 1.8a13.242 13.242 0 0 0-5.15 4.9c-1.233 2.066-1.85 4.45-1.85 7.15 0 2.666.634 5.05 1.9 7.15 1.267 2.066 3.05 3.7 5.35 4.9Zm.507-14.4h13.247a6.812 6.812 0 0 0-.754-2.3 6.027 6.027 0 0 0-2.35-2.4c-1-.6-2.166-.9-3.5-.9-1.333 0-2.516.3-3.55.9-1 .566-1.783 1.383-2.35 2.45a6.844 6.844 0 0 0-.743 2.25Z" fill="url('#paint0_linear_226_2482')"/><path fill-rule="evenodd" clip-rule="evenodd" d="M156 .707 93 99.828l-.844-.536 63-99.121.844.536Z" fill="url('#paint1_linear_226_2482')"/><path fill-rule="evenodd" clip-rule="evenodd" d="m133.209 34.71-3.842-4.883 11.203-11.389h-9.3l-11.4 10.81V8.238h-7.8v37.1h7.8v-6.827l3.769-3.705 5.391 6.695 4.179-6.79ZM0 10.339l11.45 35h8.7l7.934-23.715L35.8 45.338h8.7l11.45-35H48.2l-8.155 24.785-7.995-24.785h-7.5L16.296 34.94 8.4 10.338H0Zm63.07 33.6c2.233 1.2 4.783 1.8 7.65 1.8 2.833 0 5.367-.6 7.6-1.8 2.233-1.2 3.983-2.833 5.25-4.9 1.267-2.1 1.9-4.483 1.9-7.15 0-2.733-.633-5.133-1.9-7.2s-3.017-3.683-5.25-4.85c-2.233-1.2-4.767-1.8-7.6-1.8-2.867 0-5.417.6-7.65 1.8-2.2 1.167-3.95 2.8-5.25 4.9-1.267 2.067-1.9 4.45-1.9 7.15 0 2.667.633 5.05 1.9 7.15 1.3 2.067 3.05 3.7 5.25 4.9Zm11.15-5.5c-1.033.6-2.2.9-3.5.9-1.3 0-2.467-.3-3.5-.9-1.033-.6-1.867-1.45-2.5-2.55-.6-1.133-.9-2.467-.9-4 0-1.567.3-2.9.9-4 .633-1.1 1.467-1.95 2.5-2.55 1.033-.6 2.2-.9 3.5-.9 1.3 0 2.467.3 3.5.9 1.033.6 1.85 1.45 2.45 2.55.6 1.1.9 2.433.9 4 0 1.533-.3 2.867-.9 4-.6 1.1-1.417 1.95-2.45 2.55Zm23.914-20h-7.45v26.9h7.8v-12.7c0-2.567.65-4.45 1.95-5.65 1.333-1.233 3.066-1.85 5.2-1.85.3 0 .583.017.85.05.266 0 .566.017.9.05v-7.2c-2.534 0-4.684.5-6.45 1.5a8.447 8.447 0 0 0-2.8 2.432v-3.532Z" fill="url('#paint2_linear_226_2482')"/><defs><linearGradient id="paint0_linear_226_2482" x1="387" y1="83.171" x2="101.902" y2="92.596" gradientUnits="userSpaceOnUse"><stop stop-color="#8574F5"/><stop offset="1" stop-color="#7D6DE2" stop-opacity=".18"/></linearGradient><linearGradient id="paint1_linear_226_2482" x1="154.508" y1=".175" x2="102.221" y2="104.522" gradientUnits="userSpaceOnUse"><stop stop-color="#5346A5" stop-opacity="0"/><stop offset=".497" stop-color="#5346A5"/><stop offset="1" stop-color="#5346A5" stop-opacity="0"/></linearGradient><linearGradient id="paint2_linear_226_2482" x1="111.221" y1="45.762" x2="65.516" y2="-42.399" gradientUnits="userSpaceOnUse"><stop stop-color="#8473F4"/><stop offset="1" stop-color="#5346A5" stop-opacity=".47"/></linearGradient></defs></svg>